<svg width="319" height="54" viewBox="0 0 319 54" fill="none" xmlns="http://www.w3.org/2000/svg">
<path d="M10.875 1.92653L10.6141 3.40367L10.875 1.92653ZM13.125 1.92985L12.8683 0.451973L13.125 1.92985ZM24.375 1.7746L24.3733 3.2746L24.375 1.7746ZM55.875 2.53358L55.7596 1.03803L55.875 2.53358ZM67.125 2.47677L66.9753 3.96928L67.125 2.47677ZM69.375 3.3645L68.5241 4.59981L69.375 3.3645ZM94.125 3.46388L94.2061 1.96607L94.125 3.46388ZM280.875 3.48519L281.279 4.92983L280.875 3.48519ZM296.625 1.88994L296.344 0.416532L296.625 1.88994ZM315.404 6.125L316.83 5.66021L315.404 6.125ZM314.832 10.625L316.332 10.6521L314.832 10.625ZM315.089 12.875L316.545 12.5157L315.089 12.875ZM316.145 28.625L317.635 28.4528L316.145 28.625ZM316.797 30.875L318.158 30.2435L316.797 30.875ZM316.262 35.375L314.934 36.072L316.262 35.375ZM315.687 44.375L314.508 43.4484L315.687 44.375ZM315.165 46.625L313.737 47.0838L315.165 46.625ZM309.125 51.4998L309.924 52.7691L309.125 51.4998ZM304.625 50.0263L304.152 48.6027L304.625 50.0263ZM297.875 49.8281L297.461 48.3863L297.875 49.8281ZM293.375 51.3603L292.426 50.199L293.375 51.3603ZM277.625 52.3162L277.454 50.826L277.625 52.3162ZM273.125 51.2134L272.518 49.8418L273.125 51.2134ZM270.875 52.0322L271.286 53.4747L270.875 52.0322ZM264.125 51.0216L263.548 52.4062L264.125 51.0216ZM257.375 51.9139L256.904 50.4899L257.375 51.9139ZM255.125 50.9523L256.272 49.9853L255.125 50.9523ZM230.375 51.769L230.295 53.2668L230.375 51.769ZM216.875 50.4685L217.719 51.7085L216.875 50.4685ZM212.375 50.4778L213.27 51.6815L212.375 50.4778ZM205.625 50.8554L205.987 49.3997L205.625 50.8554ZM198.875 51.6786L198.815 50.1798L198.875 51.6786ZM196.625 51.8853L196.839 53.3701L196.625 51.8853ZM185.375 50.5168L185.906 51.9198L185.375 50.5168ZM183.125 50.8796L183.042 52.3773L183.125 50.8796ZM178.625 50.8237L177.542 49.7857L178.625 50.8237ZM160.625 51.2762L159.838 49.9995L160.625 51.2762ZM158.375 51.9179L158.444 50.4195L158.375 51.9179ZM151.625 50.8616L151.184 49.428L151.625 50.8616ZM135.875 51.0267L135.395 52.4479L135.875 51.0267ZM120.125 52.0779L119.999 50.5832L120.125 52.0779ZM117.875 51.2618L118.819 50.0962L117.875 51.2618ZM115.625 50.5068L115.419 49.021L115.625 50.5068ZM104.375 50.1823L104.986 51.5522L104.375 50.1823ZM102.125 51.2507L101.45 49.9111L102.125 51.2507ZM97.625 51.3829L97.0374 52.763L97.625 51.3829ZM93.125 50.7548L92.5352 49.3756L93.125 50.7548ZM84.125 50.5671L84.2055 52.0649L84.125 50.5671ZM81.875 50.939L82.2752 52.3846L81.875 50.939ZM72.875 50.0909L72.4075 48.6656L72.875 50.0909ZM70.625 50.5376L70.5217 49.0411L70.625 50.5376ZM57.125 50.3003L57.8828 49.0058L57.125 50.3003ZM54.875 50.2441L55.583 51.5664L54.875 50.2441ZM45.875 51.605L46.4512 52.9899L45.875 51.605ZM36.875 51.638L37.3892 50.2289L36.875 51.638ZM30.125 50.2253L29.6678 51.6539L30.125 50.2253ZM27.875 50.5132L27.1264 49.2134L27.875 50.5132ZM23.375 50.2439L23.7794 51.6883L23.375 50.2439ZM21.125 50.522L21.0759 52.0212L21.125 50.522ZM18.875 51.2707L19.7337 52.5005L18.875 51.2707ZM16.625 51.6796L16.1489 53.1021L16.625 51.6796ZM14.375 51.6561L14.824 53.0873L14.375 51.6561ZM5.37501 50.9422L6.17917 52.2084L5.37501 50.9422ZM4.16767 50.8283L5.66031 50.68L4.16767 50.8283ZM2.44385 17.375L1.17695 16.5719L2.44385 17.375ZM4.08557 8.375L2.667 7.88752L4.08557 8.375ZM4.125 3.59453L3.42414 4.92073C4.08762 5.27136 4.83531 5.3992 5.60195 5.21415C6.3328 5.03775 6.94251 4.61082 7.44156 4.10618L6.375 3.05145L5.30844 1.99672C5.05749 2.25048 4.9172 2.29328 4.89805 2.2979C4.89322 2.29907 4.89273 2.29877 4.89547 2.29864C4.89662 2.29858 4.89786 2.29858 4.89903 2.29863C4.90019 2.29869 4.90078 2.29878 4.90064 2.29876C4.9005 2.29874 4.8992 2.29855 4.89663 2.29793C4.89405 2.29731 4.88987 2.29619 4.88402 2.29422C4.87238 2.29031 4.85305 2.28271 4.82586 2.26833L4.125 3.59453ZM6.375 3.05145L7.44156 4.10618C8.04361 3.49737 8.4791 3.33802 8.74857 3.31574L8.625 1.82084L8.50143 0.325938C7.2709 0.427656 6.20639 1.0887 5.30844 1.99672L6.375 3.05145ZM8.625 1.82084L8.74857 3.31574C9.36864 3.26448 9.98943 3.29335 10.6141 3.40367L10.875 1.92653L11.1359 0.449395C10.2606 0.294802 9.38136 0.253201 8.50143 0.325938L8.625 1.82084ZM10.875 1.92653L10.6141 3.40367C11.5352 3.56635 12.4603 3.56774 13.3817 3.40773L13.125 1.92985L12.8683 0.451973C12.2897 0.552465 11.7148 0.55164 11.1359 0.449395L10.875 1.92653ZM13.125 1.92985L13.3817 3.40773C13.4994 3.38728 13.7906 3.3757 14.3334 3.89946L15.375 2.82005L16.4166 1.74065C15.4594 0.816979 14.2506 0.211929 12.8683 0.451973L13.125 1.92985ZM15.375 2.82005L14.3334 3.89946C15.238 4.77237 16.2971 5.39423 17.5061 5.49036L17.625 3.99508L17.7439 2.4998C17.4529 2.47666 17.012 2.31516 16.4166 1.74065L15.375 2.82005ZM17.625 3.99508L17.5061 5.49036C18.3347 5.55624 19.1636 5.55672 19.9922 5.4918L19.875 3.99638L19.7578 2.50096C19.0864 2.55357 18.4153 2.55318 17.7439 2.4998L17.625 3.99508ZM19.875 3.99638L19.9922 5.4918C21.1936 5.39766 22.2507 4.78932 23.1575 3.92888L22.125 2.84076L21.0925 1.75264C20.4993 2.3155 20.0564 2.47757 19.7578 2.50096L19.875 3.99638ZM22.125 2.84076L23.1575 3.92888C23.7354 3.38054 24.1339 3.27432 24.3733 3.2746L24.375 1.7746L24.3767 0.274604C23.1161 0.273134 22.0146 0.877692 21.0925 1.75264L22.125 2.84076ZM24.375 1.7746L24.3733 3.2746C24.6151 3.27488 25.0152 3.38292 25.5933 3.93067L26.625 2.84177L27.6567 1.75288C26.7348 0.879479 25.6349 0.276071 24.3767 0.274604L24.375 1.7746ZM26.625 2.84177L25.5933 3.93067C26.6064 4.89043 27.9235 5.43518 29.3668 4.93431L28.875 3.51722L28.3832 2.10013C28.3018 2.12839 28.2497 2.12745 28.1813 2.1069C28.0908 2.07974 27.9136 1.99636 27.6567 1.75288L26.625 2.84177ZM28.875 3.51722L29.3668 4.93431C30.0622 4.69296 30.7547 4.49756 31.4443 4.3473L31.125 2.88169L30.8057 1.41607C29.9953 1.59263 29.1878 1.82092 28.3832 2.10013L28.875 3.51722ZM31.125 2.88169L31.4443 4.3473C32.1703 4.18912 32.896 4.0497 33.6212 3.929L33.375 2.44935L33.1288 0.969699C32.354 1.09863 31.5797 1.24743 30.8057 1.41607L31.125 2.88169ZM33.375 2.44935L33.6212 3.929C34.0475 3.85807 34.4928 3.91217 34.9941 4.14456L35.625 2.7837L36.2559 1.42283C35.2572 0.9598 34.2025 0.791001 33.1288 0.969699L33.375 2.44935ZM35.625 2.7837L34.9941 4.14456C35.6103 4.43024 36.2808 4.54723 36.9721 4.44374C37.6512 4.34208 38.2572 4.04203 38.7849 3.63937L37.875 2.44687L36.9651 1.25436C36.7428 1.42396 36.5988 1.46619 36.5279 1.4768C36.4692 1.48559 36.3897 1.48486 36.2559 1.42283L35.625 2.7837ZM37.875 2.44687L38.7849 3.63937C38.9647 3.50216 39.0241 3.52221 38.9885 3.52194C38.9544 3.52168 39.0185 3.50368 39.2037 3.64782L40.125 2.46413L41.0463 1.28043C40.4815 0.840802 39.7956 0.528042 39.0115 0.522027C38.2259 0.516002 37.5353 0.819311 36.9651 1.25436L37.875 2.44687ZM40.125 2.46413L39.2037 3.64782C39.7405 4.0657 40.369 4.37545 41.081 4.45618C41.8056 4.53834 42.4903 4.36867 43.0995 4.03267L42.375 2.71924L41.6505 1.4058C41.5097 1.48349 41.4444 1.47816 41.419 1.47528C41.381 1.47097 41.2595 1.44632 41.0463 1.28043L40.125 2.46413ZM42.375 2.71924L43.0995 4.03267C43.649 3.72959 44.1367 3.61706 44.5831 3.62953L44.625 2.13012L44.6669 0.630704C43.6133 0.601272 42.601 0.881492 41.6505 1.4058L42.375 2.71924ZM44.625 2.13012L44.5831 3.62953C45.2557 3.64832 45.9298 3.71903 46.606 3.84229L46.875 2.3666L47.144 0.890912C46.3202 0.740762 45.4943 0.653818 44.6669 0.630704L44.625 2.13012ZM46.875 2.3666L46.606 3.84229C47.621 4.02728 48.6326 3.93991 49.6163 3.59889L49.125 2.18164L48.6337 0.764389C48.1174 0.943383 47.629 0.979325 47.144 0.890912L46.875 2.3666ZM49.125 2.18164L49.6163 3.59889C50.056 3.44648 50.4671 3.44424 50.9023 3.58874L51.375 2.16516L51.8477 0.741587C50.7829 0.388035 49.694 0.396776 48.6337 0.764389L49.125 2.18164ZM51.375 2.16516L50.9023 3.58874C51.7803 3.88026 52.6709 4.0459 53.5706 4.07856L53.625 2.57955L53.6794 1.08054C53.0791 1.05874 52.4697 0.948128 51.8477 0.741587L51.375 2.16516ZM53.625 2.57955L53.5706 4.07856C54.3773 4.10785 55.184 4.09136 55.9904 4.02914L55.875 2.53358L55.7596 1.03803C55.066 1.09155 54.3727 1.10571 53.6794 1.08054L53.625 2.57955ZM55.875 2.53358L55.9904 4.02914C56.2683 4.00769 56.6548 4.0879 57.1924 4.51463L58.125 3.33976L59.0576 2.16489C58.0952 1.40097 56.9817 0.943729 55.7596 1.03803L55.875 2.53358ZM58.125 3.33976L57.1924 4.51463C58.1737 5.29355 59.3244 5.7369 60.5823 5.56139L60.375 4.07578L60.1677 2.59017C59.9256 2.62395 59.5763 2.57662 59.0576 2.16489L58.125 3.33976ZM60.375 4.07578L60.5823 5.56139C61.3823 5.44975 62.1811 5.29714 62.9784 5.10386L62.625 3.64608L62.2716 2.18831C61.5689 2.35866 60.8677 2.49251 60.1677 2.59017L60.375 4.07578ZM62.625 3.64608L62.9784 5.10386C63.8234 4.89901 64.6605 4.60894 65.489 4.23724L64.875 2.86865L64.261 1.50007C63.5895 1.80131 62.9266 2.02952 62.2716 2.18831L62.625 3.64608ZM64.875 2.86865L65.489 4.23724C66.022 3.99813 66.5096 3.92258 66.9753 3.96928L67.125 2.47677L67.2747 0.984259C66.2404 0.880527 65.2281 1.06623 64.261 1.50007L64.875 2.86865ZM67.125 2.47677L66.9753 3.96928C67.4262 4.0145 67.9393 4.19697 68.5241 4.59981L69.375 3.3645L70.2259 2.12919C69.3107 1.49883 68.3238 1.08948 67.2747 0.984259L67.125 2.47677ZM69.375 3.3645L68.5241 4.59981C69.5564 5.31087 70.7387 5.62504 71.979 5.32387L71.625 3.86622L71.271 2.40858C71.0114 2.47164 70.6936 2.45134 70.2259 2.12919L69.375 3.3645ZM71.625 3.86622L71.979 5.32387C72.9352 5.09167 73.8511 4.65627 74.7251 4.05505L73.875 2.8192L73.0249 1.58334C72.3989 2.01392 71.8148 2.27655 71.271 2.40858L71.625 3.86622ZM73.875 2.8192L74.7251 4.05505C74.8014 4.00253 74.8441 3.98839 74.8536 3.98565C74.8593 3.98401 74.8496 3.98688 74.8354 3.98531C74.804 3.98184 74.8962 3.97775 75.1163 4.17772L76.125 3.06756L77.1337 1.9574C76.6038 1.47589 75.946 1.08968 75.1646 1.00342C74.3614 0.914754 73.6325 1.16538 73.0249 1.58334L73.875 2.8192ZM76.125 3.06756L75.1163 4.17772C75.6513 4.66383 76.3225 5.05303 77.1228 5.12113C77.9419 5.19082 78.6706 4.90537 79.2661 4.46566L78.375 3.25901L77.4839 2.05236C77.4027 2.11233 77.3568 2.12943 77.3467 2.13274C77.3409 2.13464 77.3548 2.13003 77.3772 2.13193C77.4275 2.13621 77.3487 2.15277 77.1337 1.9574L76.125 3.06756ZM78.375 3.25901L79.2661 4.46566C79.3475 4.40548 79.3939 4.38807 79.4046 4.38455C79.4111 4.38243 79.3978 4.387 79.3759 4.38518C79.3262 4.38106 79.4046 4.36453 79.6188 4.55826L80.625 3.44583L81.6312 2.33339C81.0954 1.84873 80.4238 1.46187 79.6241 1.39547C78.8062 1.32756 78.0787 1.61312 77.4839 2.05236L78.375 3.25901ZM80.625 3.44583L79.6188 4.55826C80.1717 5.05842 80.8884 5.45404 81.7471 5.45571C82.6063 5.45737 83.3245 5.06404 83.8788 4.56477L82.875 3.45019L81.8712 2.33561C81.7741 2.42304 81.7151 2.45385 81.6977 2.46166C81.6855 2.46713 81.7077 2.45563 81.7529 2.45571C81.798 2.4558 81.8197 2.46736 81.8067 2.46147C81.7885 2.45323 81.7289 2.4217 81.6312 2.33339L80.625 3.44583ZM82.875 3.45019L83.8788 4.56477C83.9898 4.46487 84.0744 4.40997 84.1303 4.38084C84.1841 4.35285 84.209 4.34972 84.2092 4.34969C84.2101 4.34956 84.2092 4.34972 84.2077 4.34964C84.2062 4.34957 84.2079 4.34946 84.2137 4.35086C84.2249 4.35353 84.265 4.36505 84.3355 4.40874L85.125 3.13329L85.9144 1.85783C85.2929 1.47314 84.5687 1.26945 83.7908 1.37901C83.0361 1.4853 82.3957 1.86317 81.8712 2.33561L82.875 3.45019ZM85.125 3.13329L84.3355 4.40874C84.9781 4.80645 85.7327 5.00051 86.5349 4.84531C87.3004 4.6972 87.9322 4.26508 88.4388 3.7555L87.375 2.69797L86.3112 1.64043C86.0678 1.88528 85.9496 1.90293 85.9651 1.89993C85.9757 1.89787 85.9912 1.89825 85.9996 1.90003C86.0044 1.90105 85.9768 1.89643 85.9144 1.85783L85.125 3.13329ZM87.375 2.69797L88.4388 3.7555C89.0213 3.16957 89.3949 3.0922 89.5826 3.09751L89.625 1.5981L89.6673 0.098701C88.3551 0.0616381 87.2287 0.717515 86.3112 1.64043L87.375 2.69797ZM89.625 1.5981L89.5826 3.09751C89.9319 3.10737 90.3802 3.24821 90.9466 3.69456L91.875 2.51641L92.8034 1.33826C91.8698 0.602564 90.8181 0.131202 89.6673 0.098701L89.625 1.5981ZM91.875 2.51641L90.9466 3.69456C91.8733 4.42487 92.9108 4.90031 94.0439 4.96168L94.125 3.46388L94.2061 1.96607C93.8392 1.9462 93.3767 1.78999 92.8034 1.33826L91.875 2.51641ZM94.125 3.46388L94.0439 4.96168C94.6013 4.99187 95.1774 5.12811 95.7787 5.3886L96.375 4.01223L96.9713 2.63585C96.0726 2.24646 95.1487 2.01713 94.2061 1.96607L94.125 3.46388ZM96.375 4.01223L95.7787 5.3886C96.4621 5.6847 97.1999 5.74302 97.9292 5.52526C98.6251 5.31744 99.2118 4.88952 99.7014 4.385L98.625 3.34037L97.5485 2.29574C97.2882 2.56407 97.1248 2.63454 97.0708 2.65068C97.0478 2.65754 97.0397 2.6565 97.0383 2.6564C97.0359 2.65624 97.0154 2.65496 96.9713 2.63585L96.375 4.01223ZM98.625 3.34037L99.7014 4.385C99.9399 4.13924 100.029 4.15614 99.9612 4.16579C99.9253 4.17089 99.893 4.16584 99.879 4.16163C99.8707 4.15913 99.9039 4.16729 99.9781 4.22266L100.875 3.02035L101.772 1.81804C101.158 1.36042 100.394 1.07405 99.5388 1.19568C98.7209 1.312 98.06 1.76866 97.5485 2.29574L98.625 3.34037ZM100.875 3.02035L99.9781 4.22266C100.522 4.62868 101.156 4.92109 101.869 4.98353C102.591 5.04683 103.269 4.86265 103.869 4.52024L103.125 3.2175L102.381 1.91476C102.231 2.00042 102.159 1.99741 102.131 1.99499C102.094 1.99172 101.978 1.97152 101.772 1.81804L100.875 3.02035ZM103.125 3.2175L103.869 4.52024C104.391 4.22182 104.836 4.13659 105.236 4.17388L105.375 2.68036L105.514 1.18685C104.414 1.08419 103.359 1.35705 102.381 1.91476L103.125 3.2175ZM105.375 2.68036L105.236 4.17388C106.025 4.24752 106.815 4.28974 107.605 4.30048L107.625 2.80062L107.645 1.30076C106.935 1.2911 106.225 1.25315 105.514 1.18685L105.375 2.68036ZM107.625 2.80062L107.605 4.30048C108.219 4.30884 108.84 4.3993 109.469 4.57623L109.875 3.13222L110.281 1.68821C109.41 1.44341 108.531 1.3128 107.645 1.30076L107.625 2.80062ZM109.875 3.13222L109.469 4.57623C110.27 4.80156 111.074 4.98134 111.879 5.11508L112.125 3.63534L112.371 2.15561C111.676 2.04025 110.98 1.88461 110.281 1.68821L109.875 3.13222ZM112.125 3.63534L111.879 5.11508C112.902 5.28486 113.917 5.17458 114.899 4.80871L114.375 3.40307L113.851 1.99744C113.333 2.19037 112.848 2.23494 112.371 2.15561L112.125 3.63534ZM114.375 3.40307L114.899 4.80871C115.596 4.54895 116.29 4.33497 116.981 4.16593L116.625 2.70886L116.269 1.2518C115.46 1.44958 114.654 1.6984 113.851 1.99744L114.375 3.40307ZM116.625 2.70886L116.981 4.16593C117.773 3.9723 118.563 3.74298 119.352 3.47824L118.875 2.05619L118.398 0.634139C117.687 0.872813 116.977 1.0786 116.269 1.2518L116.625 2.70886ZM118.875 2.05619L119.352 3.47824C119.85 3.31111 120.321 3.28839 120.796 3.39508L121.125 1.93163L121.454 0.468174C120.429 0.237542 119.4 0.297864 118.398 0.634139L118.875 2.05619ZM121.125 1.93163L120.796 3.39508C121.59 3.57375 122.386 3.71466 123.183 3.81758L123.375 2.32995L123.567 0.842307C122.864 0.751459 122.16 0.626828 121.454 0.468174L121.125 1.93163ZM123.375 2.32995L123.183 3.81758C123.552 3.86529 124.034 4.06582 124.631 4.59451L125.625 3.47156L126.619 2.3486C125.716 1.54891 124.698 0.988373 123.567 0.842307L123.375 2.32995ZM125.625 3.47156L124.631 4.59451C125.199 5.09771 125.943 5.4845 126.828 5.43828C127.696 5.39293 128.399 4.94568 128.93 4.41999L127.875 3.35404L126.82 2.28808C126.714 2.39301 126.645 2.43531 126.619 2.44885C126.598 2.45979 126.619 2.44511 126.672 2.44236C126.696 2.4411 126.719 2.44288 126.738 2.44634C126.756 2.44972 126.766 2.45366 126.764 2.45321C126.76 2.45153 126.711 2.42958 126.619 2.3486L125.625 3.47156ZM127.875 3.35404L128.93 4.41999C129.51 3.84585 129.887 3.76427 130.085 3.76952L130.125 2.27004L130.165 0.770571C128.863 0.736069 127.74 1.37715 126.82 2.28808L127.875 3.35404ZM130.125 2.27004L130.085 3.76952C131.015 3.79416 131.936 3.65395 132.84 3.35895L132.375 1.9329L131.91 0.506843C131.314 0.701117 130.735 0.785676 130.165 0.770571L130.125 2.27004ZM132.375 1.9329L132.84 3.35895C133.151 3.25746 133.467 3.26942 133.888 3.50701L134.625 2.20053L135.362 0.894058C134.283 0.28552 133.099 0.119053 131.91 0.506843L132.375 1.9329ZM134.625 2.20053L133.888 3.50701C134.898 4.07646 135.996 4.3149 137.131 4.11806L136.875 2.6401L136.619 1.16215C136.254 1.22534 135.852 1.17074 135.362 0.894058L134.625 2.20053ZM136.875 2.6401L137.131 4.11806C137.292 4.09026 137.596 4.09779 138.124 4.57071L139.125 3.45401L140.126 2.33731C139.154 1.46498 137.958 0.929905 136.619 1.16215L136.875 2.6401ZM139.125 3.45401L138.124 4.57071C139.129 5.47265 140.393 5.98101 141.782 5.59L141.375 4.14615L140.968 2.70231C140.857 2.73368 140.621 2.78062 140.126 2.33731L139.125 3.45401ZM141.375 4.14615L141.782 5.59C142.68 5.33708 143.556 4.94198 144.408 4.42016L143.625 3.14078L142.842 1.86141C142.194 2.25769 141.57 2.53284 140.968 2.70231L141.375 4.14615ZM143.625 3.14078L144.408 4.42016C144.805 4.17701 145.071 4.17954 145.341 4.28242L145.875 2.88062L146.409 1.47883C145.179 1.01048 143.945 1.18646 142.842 1.86141L143.625 3.14078ZM145.875 2.88062L145.341 4.28242C146.059 4.55592 146.779 4.85788 147.5 5.18848L148.125 3.82507L148.75 2.46166C147.971 2.10422 147.191 1.77655 146.409 1.47883L145.875 2.88062ZM148.125 3.82507L147.5 5.18848C148.508 5.65124 149.574 5.80641 150.655 5.60116L150.375 4.12749L150.095 2.65382C149.676 2.73339 149.242 2.68694 148.75 2.46166L148.125 3.82507ZM150.375 4.12749L150.655 5.60116C151.523 5.43627 152.381 5.16563 153.227 4.79525L152.625 3.42122L152.023 2.04719C151.369 2.33368 150.727 2.53389 150.095 2.65382L150.375 4.12749ZM152.625 3.42122L153.227 4.79525C153.92 4.49178 154.608 4.24158 155.292 4.0433L154.875 2.60257L154.458 1.16184C153.642 1.39822 152.83 1.69379 152.023 2.04719L152.625 3.42122ZM154.875 2.60257L155.292 4.0433C155.365 4.02218 155.585 3.95152 156.091 4.4333L157.125 3.34624L158.159 2.25918C157.165 1.31474 155.885 0.748298 154.458 1.16184L154.875 2.60257ZM157.125 3.34624L156.091 4.4333C156.607 4.9233 157.242 5.32701 158 5.45519C158.787 5.58836 159.526 5.39344 160.159 5.00575L159.375 3.7267L158.591 2.44764C158.525 2.48812 158.491 2.49612 158.488 2.49695C158.485 2.49745 158.487 2.4969 158.492 2.49678C158.494 2.49673 158.496 2.49678 158.497 2.4969C158.498 2.49696 158.499 2.49703 158.499 2.49708C158.5 2.49714 158.5 2.49718 158.5 2.49718C158.5 2.49718 158.5 2.49713 158.499 2.49698C158.498 2.49684 158.497 2.49661 158.496 2.49624C158.493 2.4955 158.489 2.49416 158.482 2.49186C158.47 2.48726 158.449 2.4785 158.42 2.46236C158.361 2.42936 158.273 2.36819 158.159 2.25918L157.125 3.34624ZM159.375 3.7267L160.159 5.00575C160.608 4.73047 160.936 4.7092 161.234 4.78957L161.625 3.34152L162.016 1.89347C160.814 1.56847 159.642 1.80398 158.591 2.44764L159.375 3.7267ZM161.625 3.34152L161.234 4.78957C162.061 5.01326 162.893 5.16684 163.728 5.24888L163.875 3.75607L164.022 2.26325C163.357 2.19794 162.689 2.07515 162.016 1.89347L161.625 3.34152ZM163.875 3.75607L163.728 5.24888C165.018 5.37561 166.165 4.83797 167.12 3.99182L166.125 2.86935L165.13 1.74687C164.585 2.23037 164.232 2.28388 164.022 2.26325L163.875 3.75607ZM166.125 2.86935L167.12 3.99182C167.696 3.48127 168.124 3.34651 168.42 3.3376L168.375 1.83828L168.33 0.338955C167.126 0.375146 166.054 0.927763 165.13 1.74687L166.125 2.86935ZM168.375 1.83828L168.42 3.3376C168.831 3.32526 169.296 3.43896 169.841 3.77304L170.625 2.49432L171.409 1.2156C170.454 0.629858 169.419 0.306197 168.33 0.338955L168.375 1.83828ZM170.625 2.49432L169.841 3.77304C170.957 4.45736 172.206 4.61799 173.441 4.11514L172.875 2.72596L172.309 1.33678C172.044 1.44491 171.793 1.4511 171.409 1.2156L170.625 2.49432ZM172.875 2.72596L173.441 4.11514C173.738 3.99425 174.009 3.99406 174.39 4.20792L175.125 2.90057L175.86 1.59322C174.741 0.963291 173.512 0.846695 172.309 1.33678L172.875 2.72596ZM175.125 2.90057L174.39 4.20792C175.019 4.56189 175.734 4.72874 176.488 4.60735C177.22 4.48954 177.847 4.1232 178.369 3.66186L177.375 2.53831L176.381 1.41477C176.153 1.61682 176.03 1.64255 176.012 1.64549C176.002 1.64697 175.996 1.64717 175.983 1.64458C175.968 1.64154 175.928 1.63101 175.86 1.59322L175.125 2.90057ZM177.375 2.53831L178.369 3.66186C178.448 3.59163 178.473 3.59118 178.44 3.60308C178.422 3.60945 178.392 3.61733 178.354 3.6208C178.315 3.62431 178.277 3.62243 178.243 3.61644C178.172 3.60419 178.157 3.58212 178.2 3.61234C178.246 3.64503 178.335 3.72113 178.46 3.87492L179.625 2.92986L180.79 1.9848C180.309 1.39232 179.643 0.815003 178.757 0.660862C177.8 0.494269 176.982 0.883632 176.381 1.41477L177.375 2.53831ZM179.625 2.92986L178.46 3.87492C179.323 4.9386 180.421 5.7983 181.778 5.88628L181.875 4.38943L181.972 2.89257C181.829 2.88332 181.427 2.76998 180.79 1.9848L179.625 2.92986ZM181.875 4.38943L181.778 5.88628C182.619 5.94083 183.461 5.91838 184.301 5.81921L184.125 4.32955L183.949 2.83989C183.289 2.91779 182.631 2.93526 181.972 2.89257L181.875 4.38943ZM184.125 4.32955L184.301 5.81921C185.458 5.68265 186.489 5.09537 187.391 4.26471L186.375 3.16112L185.359 2.05753C184.761 2.60771 184.292 2.79938 183.949 2.83989L184.125 4.32955ZM186.375 3.16112L187.391 4.26471C188.012 3.69319 188.542 3.41632 188.978 3.31073L188.625 1.85291L188.272 0.395096C187.208 0.652944 186.238 1.24821 185.359 2.05753L186.375 3.16112ZM188.625 1.85291L188.978 3.31073C188.99 3.30781 189.013 3.29611 189.102 3.33888C189.22 3.39546 189.433 3.54328 189.722 3.89107L190.875 2.93112L192.028 1.97118C191.123 0.885139 189.839 0.0153649 188.272 0.395096L188.625 1.85291ZM190.875 2.93112L189.722 3.89107C190.618 4.96618 191.863 5.8321 193.396 5.55101L193.125 4.07561L192.854 2.60021C192.837 2.60348 192.794 2.61362 192.68 2.55566C192.543 2.4859 192.32 2.32229 192.028 1.97118L190.875 2.93112ZM193.125 4.07561L193.396 5.55101C194.165 5.40999 194.933 5.25366 195.702 5.08203L195.375 3.61808L195.048 2.15414C194.317 2.31748 193.585 2.46617 192.854 2.60021L193.125 4.07561ZM195.375 3.61808L195.702 5.08203C196.171 4.97738 196.637 5.00235 197.133 5.17457L197.625 3.7576L198.117 2.34064C197.113 1.99186 196.079 1.92381 195.048 2.15414L195.375 3.61808ZM197.625 3.7576L197.133 5.17457C198.066 5.49883 199.023 5.6319 199.989 5.55804L199.875 4.0624L199.761 2.56676C199.227 2.6075 198.684 2.53737 198.117 2.34064L197.625 3.7576ZM199.875 4.0624L199.989 5.55804C200.98 5.48236 201.935 5.1741 202.847 4.67353L202.125 3.35871L201.403 2.04389C200.815 2.36697 200.27 2.52784 199.761 2.56676L199.875 4.0624ZM202.125 3.35871L202.847 4.67353C203.337 4.40445 203.743 4.35048 204.116 4.41585L204.375 2.93844L204.634 1.46102C203.507 1.26311 202.413 1.48932 201.403 2.04389L202.125 3.35871ZM204.375 2.93844L204.116 4.41585C205.237 4.61276 206.328 4.39383 207.337 3.8493L206.625 2.5291L205.913 1.2089C205.422 1.47345 205.013 1.52741 204.634 1.46102L204.375 2.93844ZM206.625 2.5291L207.337 3.8493C207.836 3.5801 208.257 3.51913 208.645 3.57929L208.875 2.09707L209.105 0.614849C207.993 0.441986 206.914 0.669042 205.913 1.2089L206.625 2.5291ZM208.875 2.09707L208.645 3.57929C209.294 3.68008 209.949 3.84953 210.612 4.09087L211.125 2.68136L211.638 1.27184C210.801 0.967162 209.956 0.747087 209.105 0.614849L208.875 2.09707ZM211.125 2.68136L210.612 4.09087C211.666 4.47462 212.754 4.50488 213.823 4.16987L213.375 2.73846L212.927 1.30705C212.496 1.44192 212.084 1.43411 211.638 1.27184L211.125 2.68136ZM213.375 2.73846L213.823 4.16987C214.434 3.97875 215.031 3.88807 215.619 3.89031L215.625 2.39032L215.631 0.890332C214.719 0.886872 213.816 1.02829 212.927 1.30705L213.375 2.73846ZM215.625 2.39032L215.619 3.89031C216.459 3.8935 217.297 3.82181 218.133 3.67603L217.875 2.19835L217.617 0.72066C216.953 0.836547 216.291 0.89284 215.631 0.890332L215.625 2.39032ZM217.875 2.19835L218.133 3.67603C218.827 3.55493 219.52 3.47446 220.212 3.43433L220.125 1.93684L220.038 0.439361C219.23 0.48623 218.423 0.580096 217.617 0.72066L217.875 2.19835ZM220.125 1.93684L220.212 3.43433C220.725 3.40458 221.255 3.49015 221.815 3.71561L222.375 2.32386L222.935 0.932118C221.995 0.55455 221.025 0.382111 220.038 0.439361L220.125 1.93684ZM222.375 2.32386L221.815 3.71561C222.455 3.97253 223.11 4.32479 223.782 4.78135L224.625 3.54078L225.468 2.30021C224.64 1.73724 223.795 1.27823 222.935 0.932118L222.375 2.32386ZM224.625 3.54078L223.782 4.78135C224.378 5.18667 225.085 5.43536 225.865 5.37562C226.631 5.3169 227.292 4.97354 227.835 4.52095L226.875 3.36839L225.915 2.21582C225.812 2.30153 225.737 2.34445 225.692 2.36512C225.669 2.37526 225.654 2.38 225.646 2.38217C225.642 2.38327 225.639 2.38382 225.638 2.38408C225.637 2.38422 225.636 2.3843 225.636 2.38434C225.636 2.38438 225.635 2.38439 225.635 2.38439C225.635 2.38439 225.635 2.38439 225.635 2.38439C225.636 2.38438 225.636 2.38438 225.636 2.38438C225.636 2.38437 225.636 2.38437 225.636 2.38437C225.637 2.38438 225.637 2.38441 225.636 2.38436C225.636 2.38431 225.631 2.38375 225.621 2.38062C225.6 2.37436 225.549 2.35521 225.468 2.30021L224.625 3.54078ZM226.875 3.36839L227.835 4.52095C228.336 4.10342 228.63 4.101 228.81 4.13973L229.125 2.67324L229.44 1.20676C228.12 0.922961 226.914 1.38397 225.915 2.21582L226.875 3.36839ZM229.125 2.67324L228.81 4.13973C229.847 4.36275 230.884 4.28083 231.888 3.91583L231.375 2.50612L230.862 1.0964C230.366 1.27677 229.903 1.30626 229.44 1.20676L229.125 2.67324ZM231.375 2.50612L231.888 3.91583C232.126 3.82902 232.381 3.82043 232.793 4.09518L233.625 2.84712L234.457 1.59907C233.369 0.87378 232.124 0.637845 230.862 1.0964L231.375 2.50612ZM233.625 2.84712L232.793 4.09518C233.689 4.69263 234.639 5.09851 235.637 5.25866L235.875 3.77759L236.113 2.29651C235.611 2.2161 235.061 2.00166 234.457 1.59907L233.625 2.84712ZM235.875 3.77759L235.637 5.25866C236.424 5.38474 237.21 5.48144 237.997 5.54868L238.125 4.05412L238.253 2.55956C237.54 2.49866 236.826 2.41101 236.113 2.29651L235.875 3.77759ZM238.125 4.05412L237.997 5.54868C239.148 5.64701 240.231 5.29927 241.206 4.65073L240.375 3.40183L239.544 2.15293C239.019 2.50226 238.602 2.58937 238.253 2.55956L238.125 4.05412ZM240.375 3.40183L241.206 4.65073C241.842 4.22773 242.444 3.95283 243.014 3.79952L242.625 2.35097L242.236 0.902411C241.306 1.1524 240.408 1.57808 239.544 2.15293L240.375 3.40183ZM242.625 2.35097L243.014 3.79952C243.735 3.60583 244.455 3.436 245.174 3.28992L244.875 1.81994L244.576 0.349971C243.795 0.508622 243.015 0.692801 242.236 0.902411L242.625 2.35097ZM244.875 1.81994L245.174 3.28992C245.762 3.17043 246.344 3.15071 246.926 3.22862L247.125 1.74185L247.324 0.25509C246.406 0.132382 245.488 0.16473 244.576 0.349971L244.875 1.81994ZM247.125 1.74185L246.926 3.22862C247.444 3.29781 248 3.49251 248.602 3.85449L249.375 2.56921L250.148 1.28394C249.25 0.743377 248.306 0.386509 247.324 0.25509L247.125 1.74185ZM249.375 2.56921L248.602 3.85449C249.621 4.46793 250.747 4.72635 251.915 4.49617L251.625 3.02446L251.335 1.55276C251.003 1.61812 250.629 1.57304 250.148 1.28394L249.375 2.56921ZM251.625 3.02446L251.915 4.49617C252.184 4.44314 252.524 4.47831 253.012 4.82132L253.875 3.59476L254.738 2.36819C253.726 1.65528 252.566 1.31024 251.335 1.55276L251.625 3.02446ZM253.875 3.59476L253.012 4.82132C254.113 5.59675 255.396 5.8446 256.689 5.32067L256.125 3.93058L255.561 2.54049C255.354 2.62473 255.137 2.6487 254.738 2.36819L253.875 3.59476ZM256.125 3.93058L256.689 5.32067C257.073 5.16499 257.414 5.16568 257.802 5.32595L258.375 3.93989L258.948 2.55383C257.836 2.09351 256.677 2.08799 255.561 2.54049L256.125 3.93058ZM258.375 3.93989L257.802 5.32595C258.502 5.61556 259.25 5.65008 259.978 5.40566C260.668 5.17364 261.247 4.72323 261.728 4.20065L260.625 3.18427L259.522 2.16789C259.253 2.45934 259.082 2.54189 259.022 2.56175C259.009 2.56631 259.001 2.56767 258.999 2.56806C258.997 2.56828 258.996 2.56832 258.996 2.56833C258.996 2.56834 258.996 2.56834 258.996 2.56834C258.996 2.56833 258.995 2.56831 258.994 2.56816C258.993 2.568 258.991 2.56766 258.987 2.5669C258.981 2.56543 258.968 2.56194 258.948 2.55383L258.375 3.93989ZM260.625 3.18427L261.728 4.20065C262.004 3.90171 262.198 3.78844 262.298 3.74925C262.37 3.721 262.4 3.72472 262.443 3.73772L262.875 2.30112L263.307 0.86453C261.786 0.407959 260.476 1.13233 259.522 2.16789L260.625 3.18427ZM262.875 2.30112L262.443 3.73772C263.418 4.0305 264.412 4.08747 265.405 3.89843L265.125 2.42489L264.845 0.951348C264.338 1.04784 263.832 1.0223 263.307 0.86453L262.875 2.30112ZM265.125 2.42489L265.405 3.89843C265.883 3.80759 266.363 3.84253 266.873 4.02368L267.375 2.6101L267.877 1.19652C266.887 0.845185 265.867 0.756652 264.845 0.951348L265.125 2.42489ZM267.375 2.6101L266.873 4.02368C268.069 4.44825 269.27 4.29723 270.363 3.67954L269.625 2.37366L268.887 1.06778C268.48 1.29782 268.181 1.30443 267.877 1.19652L267.375 2.6101ZM269.625 2.37366L270.363 3.67954C270.671 3.50573 270.873 3.50816 271.163 3.66453L271.875 2.34402L272.587 1.02351C271.377 0.371659 270.079 0.393853 268.887 1.06778L269.625 2.37366ZM271.875 2.34402L271.163 3.66453C271.944 4.085 272.726 4.47166 273.51 4.82421L274.125 3.45623L274.74 2.08826C274.024 1.76608 273.306 1.41126 272.587 1.02351L271.875 2.34402ZM274.125 3.45623L273.51 4.82421C274.402 5.22559 275.319 5.47254 276.256 5.54715L276.375 4.05189L276.494 2.55662C275.931 2.51176 275.348 2.36161 274.74 2.08826L274.125 3.45623ZM276.375 4.05189L276.256 5.54715C277.122 5.61612 277.987 5.58466 278.85 5.45353L278.625 3.97055L278.4 2.48757C277.763 2.58436 277.128 2.60713 276.494 2.55662L276.375 4.05189ZM278.625 3.97055L278.85 5.45353C279.662 5.33019 280.472 5.1554 281.279 4.92983L280.875 3.48519L280.471 2.04055C279.778 2.23421 279.088 2.383 278.4 2.48757L278.625 3.97055ZM280.875 3.48519L281.279 4.92983C282.11 4.69743 282.935 4.39116 283.754 4.01356L283.125 2.65159L282.496 1.28963C281.815 1.60425 281.14 1.85371 280.471 2.04055L280.875 3.48519ZM283.125 2.65159L283.754 4.01356C283.958 3.91939 284.143 3.88984 284.513 4.14972L285.375 2.92187L286.237 1.69403C285.107 0.901301 283.792 0.691566 282.496 1.28963L283.125 2.65159ZM285.375 2.92187L284.513 4.14972C285.419 4.78538 286.392 5.21029 287.426 5.34859L287.625 3.86183L287.824 2.37508C287.358 2.3127 286.831 2.11097 286.237 1.69403L285.375 2.92187ZM287.625 3.86183L287.426 5.34859C288.179 5.44928 288.931 5.5479 289.684 5.64444L289.875 4.15663L290.066 2.66882C289.319 2.57297 288.571 2.47506 287.824 2.37508L287.625 3.86183ZM289.875 4.15663L289.684 5.64444C291.203 5.83922 292.415 4.93602 293.293 3.84779L292.125 2.90609L290.957 1.96439C290.659 2.3339 290.425 2.51938 290.271 2.60504C290.137 2.67983 290.081 2.67081 290.066 2.66882L289.875 4.15663ZM292.125 2.90609L293.293 3.84779C293.585 3.48547 293.797 3.33641 293.908 3.28216C293.933 3.26974 293.951 3.26329 293.962 3.26C293.973 3.25676 293.979 3.25609 293.98 3.25598C293.98 3.2559 293.981 3.25591 293.98 3.25591C293.98 3.25591 293.98 3.2559 293.98 3.25592C293.98 3.25592 293.984 3.25616 293.992 3.25836L294.375 1.80795L294.758 0.357547C293.154 -0.0652387 291.853 0.854249 290.957 1.96439L292.125 2.90609ZM294.375 1.80795L293.992 3.25836C294.956 3.51238 295.932 3.54919 296.906 3.36334L296.625 1.88994L296.344 0.416532C295.818 0.516968 295.294 0.49912 294.758 0.357547L294.375 1.80795ZM296.625 1.88994L296.906 3.36334C296.915 3.36165 296.95 3.34888 297.059 3.40588C297.194 3.47577 297.418 3.64247 297.712 4.0039L298.875 3.05674L300.038 2.10957C299.15 1.01851 297.898 0.119937 296.344 0.416532L296.625 1.88994ZM298.875 3.05674L297.712 4.0039C298.188 4.58845 298.816 5.1373 299.63 5.34424C300.519 5.57021 301.343 5.31957 302.001 4.84618L301.125 3.62867L300.249 2.41115C300.191 2.45296 300.182 2.44487 300.223 2.43555C300.27 2.42453 300.326 2.42556 300.37 2.43671C300.406 2.44591 300.393 2.45164 300.331 2.40542C300.266 2.35783 300.167 2.26783 300.038 2.10957L298.875 3.05674ZM301.125 3.62867L302.001 4.84618C302.571 4.43621 303.048 4.28116 303.45 4.26118L303.375 2.76304L303.3 1.26489C302.202 1.31964 301.179 1.74168 300.249 2.41115L301.125 3.62867ZM303.375 2.76304L303.45 4.26118C304.407 4.21348 305.342 3.97126 306.248 3.55753L305.625 2.19312L305.002 0.828719C304.408 1.10014 303.843 1.23787 303.3 1.26489L303.375 2.76304ZM305.625 2.19312L306.248 3.55753C306.367 3.50307 306.431 3.50609 306.479 3.51486C306.543 3.52666 306.69 3.57364 306.921 3.76407L307.875 2.60664L308.829 1.4492C308.31 1.02137 307.707 0.690309 307.021 0.564275C306.319 0.435203 305.633 0.540591 305.002 0.828719L305.625 2.19312ZM307.875 2.60664L306.921 3.76407C307.912 4.58107 309.099 5.04142 310.4 4.79894L310.125 3.32433L309.85 1.84973C309.651 1.88683 309.338 1.86871 308.829 1.4492L307.875 2.60664ZM310.125 3.32433L310.4 4.79894C311.151 4.65895 311.902 4.51812 312.653 4.37643L312.375 2.90243L312.097 1.42843C311.348 1.56971 310.599 1.71014 309.85 1.84973L310.125 3.32433ZM312.375 2.90243L312.653 4.37643C313.438 4.22835 314.222 4.05147 315.006 3.84593L314.625 2.39504L314.244 0.944147C313.528 1.13217 312.812 1.29355 312.097 1.42843L312.375 2.90243ZM314.625 2.39504L315.006 3.84593C315.079 3.82666 314.994 3.86371 314.819 3.83096C314.594 3.78884 314.316 3.64563 314.131 3.36725C314.052 3.24933 314.015 3.1424 313.997 3.07202C313.98 3.0032 313.979 2.96 313.979 2.95464C313.979 2.95142 313.979 3.02161 313.937 3.19194L315.394 3.54993L316.85 3.90792C316.927 3.59489 316.984 3.25445 316.979 2.91331C316.975 2.58156 316.91 2.12853 316.628 1.7051C315.934 0.661322 314.764 0.80784 314.244 0.944147L314.625 2.39504ZM315.394 3.54993L313.937 3.19194C313.65 4.3598 313.627 5.51219 313.978 6.58979L315.404 6.125L316.83 5.66021C316.692 5.23781 316.662 4.67349 316.85 3.90792L315.394 3.54993ZM315.404 6.125L313.978 6.58979C314.109 6.99254 314.099 7.37715 313.923 7.8082L315.311 8.375L316.7 8.9418C317.136 7.87285 317.188 6.75746 316.83 5.66021L315.404 6.125ZM315.311 8.375L313.923 7.8082C313.552 8.71592 313.349 9.64836 313.332 10.5979L314.832 10.625L316.332 10.6521C316.342 10.1016 316.458 9.53408 316.7 8.9418L315.311 8.375ZM314.832 10.625L313.332 10.5979C313.316 11.4819 313.418 12.3617 313.633 13.2343L315.089 12.875L316.545 12.5157C316.391 11.8883 316.321 11.2681 316.332 10.6521L314.832 10.625ZM315.089 12.875L313.633 13.2343C313.787 13.8609 313.857 14.4803 313.845 15.0955L315.344 15.125L316.844 15.1545C316.862 14.2697 316.761 13.3891 316.545 12.5157L315.089 12.875ZM315.344 15.125L313.845 15.0955C313.832 15.7656 313.765 16.4372 313.645 17.111L315.121 17.375L316.598 17.639C316.746 16.8128 316.828 15.9844 316.844 15.1545L315.344 15.125ZM315.121 17.375L313.645 17.111C313.399 18.4842 313.984 19.6927 314.895 20.6558L315.984 19.625L317.074 18.5942C316.566 18.0573 316.575 17.7658 316.598 17.639L315.121 17.375ZM315.984 19.625L314.895 20.6558C315.12 20.8936 315.147 21.0195 315.149 21.0293C315.15 21.0327 315.15 21.0311 315.149 21.0343C315.148 21.0402 315.141 21.0729 315.106 21.1352L316.411 21.875L317.716 22.6148C318.079 21.9733 318.243 21.2399 318.097 20.4707C317.956 19.7305 317.558 19.1064 317.074 18.5942L315.984 19.625ZM316.411 21.875L315.106 21.1352C314.652 21.9349 314.257 22.7395 313.92 23.5489L315.305 24.125L316.69 24.7011C316.977 24.0105 317.319 23.3151 317.716 22.6148L316.411 21.875ZM315.305 24.125L313.92 23.5489C313.429 24.7297 313.508 25.9453 314.097 27.0708L315.426 26.375L316.755 25.6792C316.559 25.3047 316.557 25.0203 316.69 24.7011L315.305 24.125ZM315.426 26.375L314.097 27.0708C314.415 27.6773 314.592 28.251 314.655 28.7972L316.145 28.625L317.635 28.4528C317.525 27.499 317.223 26.5727 316.755 25.6792L315.426 26.375ZM316.145 28.625L314.655 28.7972C314.762 29.7206 315.028 30.6251 315.437 31.5065L316.797 30.875L318.158 30.2435C317.871 29.6249 317.702 29.0294 317.635 28.4528L316.145 28.625ZM316.797 30.875L315.437 31.5065C315.522 31.6903 315.561 31.8629 315.285 32.2387L316.496 33.125L317.706 34.0113C318.529 32.8871 318.769 31.5597 318.158 30.2435L316.797 30.875ZM316.496 33.125L315.285 32.2387C314.89 32.7786 314.605 33.4005 314.533 34.0951C314.46 34.7994 314.617 35.4688 314.934 36.072L316.262 35.375L317.59 34.678C317.513 34.5312 317.512 34.4506 317.517 34.4049C317.523 34.3495 317.552 34.2214 317.706 34.0113L316.496 33.125ZM316.262 35.375L314.934 36.072C315.193 36.5653 315.248 36.9835 315.181 37.3723L316.66 37.625L318.139 37.8777C318.329 36.7665 318.118 35.6847 317.59 34.678L316.262 35.375ZM316.66 37.625L315.181 37.3723C315.056 38.1036 314.917 38.835 314.763 39.5666L316.231 39.875L317.699 40.1834C317.861 39.415 318.007 38.6465 318.139 37.8777L316.66 37.625ZM316.231 39.875L314.763 39.5666C314.558 40.5439 314.582 41.5266 314.83 42.4968L316.283 42.125L317.736 41.7532C317.601 41.2234 317.59 40.7061 317.699 40.1834L316.231 39.875ZM316.283 42.125L314.83 42.4968C314.879 42.6902 314.883 42.9707 314.508 43.4484L315.687 44.375L316.867 45.3016C317.67 44.2793 318.07 43.0598 317.736 41.7532L316.283 42.125ZM315.687 44.375L314.508 43.4484C313.685 44.4959 313.31 45.7556 313.737 47.0838L315.165 46.625L316.593 46.1662C316.538 45.9944 316.511 45.7541 316.867 45.3016L315.687 44.375ZM315.165 46.625L313.737 47.0838C313.934 47.6965 314.03 48.2958 314.035 48.8864L315.535 48.875L317.035 48.8636C317.028 47.9542 316.878 47.0535 316.593 46.1662L315.165 46.625ZM315.535 48.875L314.035 48.8864C314.037 49.1848 314.011 49.3536 313.991 49.4293C313.969 49.5112 313.981 49.392 314.139 49.2487L315.147 50.3598L316.154 51.4708C316.577 51.0877 316.785 50.6011 316.893 50.1881C317.003 49.7688 317.038 49.3152 317.035 48.8636L315.535 48.875ZM315.147 50.3598L314.139 49.2487C314.006 49.3693 313.626 49.6363 312.875 50.07L313.625 51.369L314.375 52.6681C315.124 52.2358 315.759 51.8299 316.154 51.4708L315.147 50.3598ZM313.625 51.369L312.875 50.07C312.57 50.246 312.376 50.2426 312.093 50.0881L311.375 51.405L310.657 52.7219C311.874 53.3855 313.18 53.3582 314.375 52.6681L313.625 51.369ZM311.375 51.405L312.093 50.0881C311.513 49.7716 310.87 49.5945 310.187 49.6232C309.507 49.6519 308.882 49.8804 308.326 50.2305L309.125 51.4998L309.924 52.7691C310.118 52.647 310.243 52.6235 310.313 52.6206C310.38 52.6178 310.487 52.6294 310.657 52.7219L311.375 51.405ZM309.125 51.4998L308.326 50.2305C308.272 50.2641 308.26 50.2605 308.285 50.2558C308.314 50.2502 308.347 50.2522 308.368 50.2575C308.394 50.2641 308.264 50.2386 308.001 49.9393L306.875 50.9305L305.749 51.9218C306.236 52.4742 306.856 52.9695 307.632 53.1658C308.464 53.3764 309.257 53.1891 309.924 52.7691L309.125 51.4998ZM306.875 50.9305L308.001 49.9393C307.056 48.8665 305.718 48.0832 304.152 48.6027L304.625 50.0263L305.098 51.4499C305.125 51.4408 305.135 51.4419 305.135 51.4419C305.136 51.4419 305.152 51.442 305.191 51.4575C305.278 51.4927 305.47 51.6051 305.749 51.9218L306.875 50.9305ZM304.625 50.0263L304.152 48.6027C303.592 48.7887 303.053 48.8483 302.522 48.7959L302.375 50.2886L302.228 51.7813C303.197 51.8771 304.158 51.7618 305.098 51.4499L304.625 50.0263ZM302.375 50.2886L302.522 48.7959C301.872 48.7316 301.216 48.6018 300.554 48.4041L300.125 49.8413L299.696 51.2785C300.534 51.529 301.378 51.6974 302.228 51.7813L302.375 50.2886ZM300.125 49.8413L300.554 48.4041C299.53 48.0981 298.488 48.0916 297.461 48.3863L297.875 49.8281L298.289 51.2698C298.762 51.134 299.22 51.1363 299.696 51.2785L300.125 49.8413ZM297.875 49.8281L297.461 48.3863C296.782 48.5813 296.106 48.7214 295.434 48.8079L295.625 50.2957L295.816 51.7834C296.644 51.677 297.468 51.5054 298.289 51.2698L297.875 49.8281ZM295.625 50.2957L295.434 48.8079C294.337 48.949 293.332 49.4575 292.426 50.199L293.375 51.3603L294.324 52.5215C294.918 52.0365 295.413 51.8353 295.816 51.7834L295.625 50.2957ZM293.375 51.3603L292.426 50.199C291.95 50.5876 291.694 50.5661 291.53 50.5202L291.125 51.9644L290.72 53.4086C292.056 53.7837 293.3 53.3594 294.324 52.5215L293.375 51.3603ZM291.125 51.9644L291.53 50.5202C290.506 50.2328 289.467 50.2424 288.447 50.5465L288.875 51.984L289.303 53.4215C289.783 53.2786 290.244 53.2751 290.72 53.4086L291.125 51.9644ZM288.875 51.984L288.447 50.5465C288.269 50.5993 288.015 50.6188 287.553 50.2547L286.625 51.433L285.697 52.6112C286.735 53.4288 287.981 53.8157 289.303 53.4215L288.875 51.984ZM286.625 51.433L287.553 50.2547C287.017 49.832 286.386 49.517 285.669 49.4355C284.94 49.3525 284.251 49.5269 283.642 49.8686L284.375 51.1771L285.108 52.4857C285.249 52.4071 285.31 52.414 285.331 52.4163C285.364 52.42 285.483 52.4431 285.697 52.6112L286.625 51.433ZM284.375 51.1771L283.642 49.8686C283.18 50.1274 282.814 50.161 282.474 50.0796L282.125 51.5385L281.776 52.9973C282.936 53.2748 284.07 53.0674 285.108 52.4857L284.375 51.1771ZM282.125 51.5385L282.474 50.0796C281.403 49.8235 280.333 49.9214 279.309 50.3393L279.875 51.7282L280.441 53.1172C280.917 52.9233 281.347 52.8947 281.776 52.9973L282.125 51.5385ZM279.875 51.7282L279.309 50.3393C278.676 50.5973 278.059 50.7566 277.454 50.826L277.625 52.3162L277.796 53.8064C278.691 53.7036 279.574 53.4709 280.441 53.1172L279.875 51.7282ZM277.625 52.3162L277.454 50.826C277.183 50.8571 276.812 50.7935 276.289 50.3913L275.375 51.5804L274.461 52.7695C275.438 53.5206 276.567 53.9476 277.796 53.8064L277.625 52.3162ZM275.375 51.5804L276.289 50.3913C275.185 49.5419 273.857 49.249 272.518 49.8418L273.125 51.2134L273.732 52.585C273.893 52.5138 274.065 52.4656 274.461 52.7695L275.375 51.5804ZM273.125 51.2134L272.518 49.8418C271.828 50.1471 271.143 50.3958 270.464 50.5897L270.875 52.0322L271.286 53.4747C272.107 53.2408 272.922 52.9437 273.732 52.585L273.125 51.2134ZM270.875 52.0322L270.464 50.5897C270.434 50.5982 270.41 50.6048 270.336 50.5731C270.231 50.529 270.031 50.4042 269.75 50.0857L268.625 51.0782L267.5 52.0707C268.435 53.1298 269.741 53.9153 271.286 53.4747L270.875 52.0322ZM268.625 51.0782L269.75 50.0857C269.257 49.5272 268.608 49.018 267.782 48.8597C266.9 48.6907 266.105 48.9744 265.475 49.4468L266.375 50.6469L267.275 51.847C267.343 51.7959 267.365 51.7955 267.341 51.8023C267.31 51.811 267.262 51.8147 267.218 51.8061C267.179 51.7986 267.183 51.7898 267.234 51.8236C267.288 51.8593 267.378 51.9325 267.5 52.0707L268.625 51.0782ZM266.375 50.6469L265.475 49.4468C265.072 49.7489 264.878 49.7105 264.702 49.6371L264.125 51.0216L263.548 52.4062C264.872 52.9579 266.178 52.6697 267.275 51.847L266.375 50.6469ZM264.125 51.0216L264.702 49.6371C263.675 49.2088 262.6 49.1063 261.523 49.3664L261.875 50.8245L262.227 52.2825C262.65 52.1803 263.075 52.2092 263.548 52.4062L264.125 51.0216ZM261.875 50.8245L261.523 49.3664C260.793 49.5428 260.063 49.7031 259.334 49.8475L259.625 51.3189L259.916 52.7904C260.687 52.6379 261.457 52.4686 262.227 52.2825L261.875 50.8245ZM259.625 51.3189L259.334 49.8475C258.521 50.0083 257.711 50.2228 256.904 50.4899L257.375 51.9139L257.846 53.3379C258.539 53.1086 259.229 52.9263 259.916 52.7904L259.625 51.3189ZM257.375 51.9139L256.904 50.4899C256.882 50.4971 256.879 50.4949 256.885 50.4952C256.89 50.4954 256.877 50.4965 256.839 50.4804C256.752 50.4429 256.556 50.3222 256.272 49.9853L255.125 50.9523L253.978 51.9194C254.905 53.018 256.248 53.8669 257.846 53.3379L257.375 51.9139ZM255.125 50.9523L256.272 49.9853C255.349 48.8909 254.017 48.0408 252.426 48.5407L252.875 49.9717L253.324 51.4028C253.336 51.399 253.343 51.3981 253.345 51.3979C253.346 51.3977 253.346 51.3977 253.346 51.3977C253.346 51.3977 253.346 51.3977 253.346 51.3977C253.347 51.3978 253.347 51.3978 253.349 51.398C253.351 51.3983 253.353 51.3988 253.357 51.3998C253.365 51.4017 253.379 51.406 253.401 51.4153C253.494 51.4561 253.693 51.5816 253.978 51.9194L255.125 50.9523ZM252.875 49.9717L252.426 48.5407C251.615 48.7953 250.808 49.1053 250.005 49.4695L250.625 50.8355L251.245 52.2015C251.942 51.8851 252.635 51.6193 253.324 51.4028L252.875 49.9717ZM250.625 50.8355L250.005 49.4695C249.301 49.7891 248.6 50.0646 247.902 50.2968L248.375 51.7201L248.848 53.1435C249.65 52.8768 250.449 52.5625 251.245 52.2015L250.625 50.8355ZM248.375 51.7201L247.902 50.2968C247.538 50.4179 247.186 50.405 246.766 50.2064L246.125 51.5624L245.484 52.9185C246.564 53.4291 247.712 53.5213 248.848 53.1435L248.375 51.7201ZM246.125 51.5624L246.766 50.2064C245.966 49.8282 245.163 49.5021 244.356 49.2291L243.875 50.65L243.394 52.071C244.087 52.3052 244.784 52.5874 245.484 52.9185L246.125 51.5624ZM243.875 50.65L244.356 49.2291C242.908 48.7394 241.594 49.2999 240.587 50.2644L241.625 51.3475L242.663 52.4305C242.922 52.1824 243.101 52.0957 243.194 52.0669C243.265 52.045 243.316 52.0444 243.394 52.071L243.875 50.65ZM241.625 51.3475L240.587 50.2644C240.026 50.8024 239.68 50.8483 239.505 50.8331L239.375 52.3275L239.245 53.8218C240.57 53.9372 241.724 53.3297 242.663 52.4305L241.625 51.3475ZM239.375 52.3275L239.505 50.8331C239.137 50.8011 238.666 50.6262 238.082 50.1424L237.125 51.2974L236.168 52.4524C237.084 53.2116 238.113 53.7234 239.245 53.8218L239.375 52.3275ZM237.125 51.2974L238.082 50.1424C237.181 49.3958 236.186 48.8762 235.101 48.7107L234.875 50.1936L234.649 51.6764C235.064 51.7397 235.569 51.956 236.168 52.4524L237.125 51.2974ZM234.875 50.1936L235.101 48.7107C233.831 48.517 232.67 48.9659 231.686 49.7562L232.625 50.9257L233.564 52.0951C234.08 51.6806 234.419 51.6415 234.649 51.6764L234.875 50.1936ZM232.625 50.9257L231.686 49.7562C231.14 50.1944 230.742 50.2865 230.455 50.2711L230.375 51.769L230.295 53.2668C231.508 53.3319 232.61 52.8619 233.564 52.0951L232.625 50.9257ZM230.375 51.769L230.455 50.2711C229.712 50.2313 228.969 50.1865 228.225 50.1367L228.125 51.6333L228.025 53.13C228.781 53.1806 229.538 53.2262 230.295 53.2668L230.375 51.769ZM228.125 51.6333L228.225 50.1367C227.584 50.0938 226.938 49.9809 226.285 49.7953L225.875 51.238L225.465 52.6808C226.312 52.9219 227.166 53.0725 228.025 53.13L228.125 51.6333ZM225.875 51.238L226.285 49.7953C225.057 49.4458 223.864 49.7044 222.81 50.3866L223.625 51.6459L224.44 52.9053C224.886 52.6169 225.193 52.6036 225.465 52.6808L225.875 51.238ZM223.625 51.6459L222.81 50.3866C222.463 50.6111 222.27 50.5937 222.031 50.4776L221.375 51.8264L220.719 53.1751C221.98 53.7891 223.287 53.6514 224.44 52.9053L223.625 51.6459ZM221.375 51.8264L222.031 50.4776C221.359 50.1504 220.677 49.7465 219.986 49.2622L219.125 50.4907L218.264 51.7193C219.073 52.2857 219.891 52.7723 220.719 53.1751L221.375 51.8264ZM219.125 50.4907L219.986 49.2622C219.418 48.8646 218.754 48.5985 218.015 48.5912C217.274 48.5839 216.605 48.8378 216.031 49.2286L216.875 50.4685L217.719 51.7085C217.895 51.5887 217.976 51.591 217.985 51.5911C217.996 51.5912 218.082 51.5915 218.264 51.7193L219.125 50.4907ZM216.875 50.4685L216.031 49.2286C215.856 49.3475 215.778 49.344 215.77 49.3439C215.762 49.3438 215.676 49.3437 215.492 49.2136L214.625 50.4378L213.758 51.662C214.324 52.063 214.989 52.3335 215.73 52.3437C216.472 52.3538 217.144 52.1002 217.719 51.7085L216.875 50.4685ZM214.625 50.4378L215.492 49.2136C214.916 48.8057 214.234 48.5362 213.473 48.5497C212.715 48.5632 212.044 48.8548 211.48 49.2742L212.375 50.4778L213.27 51.6815C213.365 51.6112 213.432 51.5784 213.471 51.5634C213.508 51.5494 213.524 51.5493 213.527 51.5493C213.529 51.5492 213.542 51.5487 213.573 51.5595C213.607 51.5712 213.669 51.5986 213.758 51.662L214.625 50.4378ZM212.375 50.4778L211.48 49.2742C211.283 49.4204 211.185 49.4282 211.168 49.4291C211.159 49.4296 211.089 49.436 210.929 49.3341L210.125 50.6006L209.321 51.8671C209.911 52.2411 210.591 52.465 211.332 52.4246C212.065 52.3846 212.717 52.0931 213.27 51.6815L212.375 50.4778ZM210.125 50.6006L210.929 49.3341C210.372 48.9806 209.744 48.7496 209.06 48.7223C208.373 48.6949 207.728 48.8771 207.147 49.199L207.875 50.5107L208.603 51.8224C208.772 51.7283 208.877 51.7174 208.94 51.7199C209.006 51.7226 209.128 51.7446 209.321 51.8671L210.125 50.6006ZM207.875 50.5107L207.147 49.199C206.69 49.453 206.327 49.4841 205.987 49.3997L205.625 50.8554L205.263 52.3112C206.423 52.5992 207.56 52.4006 208.603 51.8224L207.875 50.5107ZM205.625 50.8554L205.987 49.3997C204.736 49.0891 203.546 49.4131 202.513 50.1384L203.375 51.366L204.237 52.5936C204.704 52.2656 205.014 52.2493 205.263 52.3112L205.625 50.8554ZM203.375 51.366L202.513 50.1384C202.039 50.4709 201.72 50.493 201.464 50.4337L201.125 51.8949L200.786 53.356C202.03 53.6448 203.211 53.3143 204.237 52.5936L203.375 51.366ZM201.125 51.8949L201.464 50.4337C200.587 50.2301 199.703 50.1445 198.815 50.1798L198.875 51.6786L198.935 53.1774C199.547 53.153 200.163 53.2115 200.786 53.356L201.125 51.8949ZM198.875 51.6786L198.815 50.1798C198.013 50.2118 197.212 50.2854 196.411 50.4006L196.625 51.8853L196.839 53.3701C197.538 53.2694 198.237 53.2053 198.935 53.1774L198.875 51.6786ZM196.625 51.8853L196.411 50.4006C195.913 50.4723 195.408 50.4238 194.875 50.2354L194.375 51.6497L193.875 53.064C194.842 53.4056 195.837 53.5142 196.839 53.3701L196.625 51.8853ZM194.375 51.6497L194.875 50.2354C194.302 50.0329 193.691 49.6962 193.044 49.1947L192.125 50.3803L191.206 51.566C192.059 52.2269 192.948 52.7365 193.875 53.064L194.375 51.6497ZM192.125 50.3803L193.044 49.1947C192.5 48.7731 191.858 48.4642 191.128 48.4016C190.388 48.3379 189.701 48.5403 189.1 48.9024L189.875 50.1869L190.65 51.4714C190.799 51.3812 190.862 51.3897 190.872 51.3905C190.892 51.3923 191 51.4063 191.206 51.566L192.125 50.3803ZM189.875 50.1869L189.1 48.9024C188.686 49.1524 188.396 49.1572 188.113 49.0599L187.625 50.4784L187.137 51.8968C188.354 52.3154 189.564 52.126 190.65 51.4714L189.875 50.1869ZM187.625 50.4784L188.113 49.0599C187.028 48.6868 185.918 48.7079 184.844 49.1137L185.375 50.5168L185.906 51.9198C186.332 51.7585 186.722 51.754 187.137 51.8968L187.625 50.4784ZM185.375 50.5168L184.844 49.1137C184.277 49.3284 183.735 49.4112 183.208 49.3819L183.125 50.8796L183.042 52.3773C184.015 52.4314 184.973 52.2724 185.906 51.9198L185.375 50.5168ZM183.125 50.8796L183.208 49.3819C182.695 49.3534 182.151 49.2055 181.566 48.902L180.875 50.2335L180.184 51.565C181.099 52.0396 182.055 52.3225 183.042 52.3773L183.125 50.8796ZM180.875 50.2335L181.566 48.902C180.893 48.5529 180.138 48.4368 179.369 48.6383C178.64 48.8295 178.036 49.2706 177.542 49.7857L178.625 50.8237L179.708 51.8616C179.964 51.5941 180.11 51.5456 180.131 51.5401C180.137 51.5385 180.13 51.5404 180.122 51.5393C180.115 51.5385 180.135 51.5393 180.184 51.565L180.875 50.2335ZM178.625 50.8237L177.542 49.7857C177.276 50.0629 177.101 50.1489 177.028 50.173C176.996 50.1837 176.98 50.1837 176.975 50.1836C176.969 50.1834 176.949 50.1824 176.909 50.1672L176.375 51.569L175.841 52.9708C176.533 53.2344 177.263 53.2555 177.972 53.0208C178.649 52.7964 179.224 52.367 179.708 51.8616L178.625 50.8237ZM176.375 51.569L176.909 50.1672C175.984 49.8152 175.035 49.6475 174.07 49.6827L174.125 51.1817L174.18 52.6807C174.715 52.6611 175.266 52.7517 175.841 52.9708L176.375 51.569ZM174.125 51.1817L174.07 49.6827C173.57 49.701 173.046 49.6014 172.485 49.3516L171.875 50.7219L171.265 52.0923C172.204 52.5103 173.18 52.7172 174.18 52.6807L174.125 51.1817ZM171.875 50.7219L172.485 49.3516C171.444 48.8883 170.347 48.7761 169.247 49.062L169.625 50.5137L170.003 51.9654C170.403 51.8612 170.806 51.8878 171.265 52.0923L171.875 50.7219ZM169.625 50.5137L169.247 49.062C168.838 49.1685 168.429 49.143 167.968 48.9446L167.375 50.3226L166.782 51.7006C167.821 52.1472 168.912 52.2491 170.003 51.9654L169.625 50.5137ZM167.375 50.3226L167.968 48.9446C166.84 48.4599 165.663 48.4585 164.535 48.9413L165.125 50.3203L165.715 51.6993C166.087 51.5401 166.41 51.5402 166.782 51.7006L167.375 50.3226ZM165.125 50.3203L164.535 48.9413C163.997 49.1715 163.499 49.2458 163.021 49.1991L162.875 50.6921L162.729 52.185C163.751 52.2846 164.753 52.1111 165.715 51.6993L165.125 50.3203ZM162.875 50.6921L163.021 49.1991C161.891 49.089 160.818 49.3951 159.838 49.9995L160.625 51.2762L161.412 52.5529C161.932 52.2321 162.359 52.1488 162.729 52.185L162.875 50.6921ZM160.625 51.2762L159.838 49.9995C159.299 50.3319 158.844 50.438 158.444 50.4195L158.375 51.9179L158.306 53.4163C159.406 53.4674 160.451 53.1457 161.412 52.5529L160.625 51.2762ZM158.375 51.9179L158.444 50.4195C157.711 50.3855 156.977 50.3394 156.244 50.2812L156.125 51.7765L156.006 53.2718C156.773 53.3326 157.539 53.3808 158.306 53.4163L158.375 51.9179ZM156.125 51.7765L156.244 50.2812C155.718 50.2395 155.162 50.0801 154.568 49.7709L153.875 51.1012L153.182 52.4315C154.088 52.9036 155.032 53.1945 156.006 53.2718L156.125 51.7765ZM153.875 51.1012L154.568 49.7709C153.498 49.2135 152.342 49.0714 151.184 49.428L151.625 50.8616L152.066 52.2952C152.408 52.1899 152.752 52.2075 153.182 52.4315L153.875 51.1012ZM151.625 50.8616L151.184 49.428C150.677 49.584 150.191 49.6025 149.701 49.4933L149.375 50.9574L149.049 52.4215C150.059 52.6464 151.073 52.601 152.066 52.2952L151.625 50.8616ZM149.375 50.9574L149.701 49.4933C148.61 49.2502 147.529 49.387 146.505 49.8518L147.125 51.2176L147.745 52.5834C148.221 52.3671 148.64 52.3304 149.049 52.4215L149.375 50.9574ZM147.125 51.2176L146.505 49.8518C146.014 50.0745 145.579 50.1198 145.159 50.0388L144.875 51.5117L144.591 52.9846C145.671 53.1926 146.736 53.0418 147.745 52.5834L147.125 51.2176ZM144.875 51.5117L145.159 50.0388C144.57 49.9254 143.961 49.7088 143.328 49.3732L142.625 50.6984L141.922 52.0236C142.789 52.4833 143.68 52.809 144.591 52.9846L144.875 51.5117ZM142.625 50.6984L143.328 49.3732C142.655 49.0166 141.896 48.8933 141.122 49.095C140.388 49.2861 139.782 49.7319 139.288 50.2504L140.375 51.2843L141.462 52.3182C141.718 52.0484 141.862 52.0024 141.878 51.9982C141.881 51.9973 141.872 51.9992 141.862 51.9978C141.854 51.9967 141.872 51.9971 141.922 52.0236L142.625 50.6984ZM140.375 51.2843L139.288 50.2504C139.028 50.5243 138.871 50.5867 138.832 50.598C138.817 50.6023 138.817 50.6004 138.823 50.6008C138.827 50.6012 138.809 50.6009 138.764 50.5798L138.125 51.9367L137.486 53.2936C138.169 53.6156 138.919 53.6964 139.668 53.4793C140.379 53.2731 140.972 52.8327 141.462 52.3182L140.375 51.2843ZM138.125 51.9367L138.764 50.5798C137.965 50.2031 137.162 49.878 136.355 49.6056L135.875 51.0267L135.395 52.4479C136.088 52.682 136.785 52.9635 137.486 53.2936L138.125 51.9367ZM135.875 51.0267L136.355 49.6056C135.439 49.2963 134.505 49.1561 133.56 49.1974L133.625 50.6959L133.69 52.1945C134.245 52.1703 134.811 52.2506 135.395 52.4479L135.875 51.0267ZM133.625 50.6959L133.56 49.1974C133.027 49.2206 132.479 49.1331 131.907 48.916L131.375 50.3186L130.843 51.7212C131.771 52.0727 132.723 52.2367 133.69 52.1945L133.625 50.6959ZM131.375 50.3186L131.907 48.916C131.186 48.6428 130.43 48.6454 129.711 48.9219C129.032 49.1832 128.466 49.657 127.994 50.1993L129.125 51.1843L130.256 52.1693C130.534 51.8502 130.718 51.749 130.789 51.7218C130.818 51.7105 130.825 51.7128 130.817 51.7128C130.809 51.7128 130.815 51.7105 130.843 51.7212L131.375 50.3186ZM129.125 51.1843L127.994 50.1993C127.868 50.3438 127.77 50.4274 127.705 50.4729C127.641 50.5171 127.621 50.5172 127.642 50.512C127.669 50.5054 127.707 50.5039 127.739 50.5107C127.767 50.5163 127.754 50.5203 127.698 50.4837L126.875 51.7374L126.052 52.9912C126.713 53.4259 127.512 53.6333 128.358 53.4252C129.146 53.2316 129.771 52.7272 130.256 52.1693L129.125 51.1843ZM126.875 51.7374L127.698 50.4837C126.837 49.9177 125.944 49.4965 125.021 49.244L124.625 50.6909L124.229 52.1378C124.806 52.2955 125.413 52.572 126.052 52.9912L126.875 51.7374ZM124.625 50.6909L125.021 49.244C123.755 48.8981 122.548 49.2199 121.506 49.9605L122.375 51.1831L123.244 52.4056C123.702 52.0799 123.995 52.0736 124.229 52.1378L124.625 50.6909ZM122.375 51.1831L121.506 49.9605C120.926 50.3727 120.427 50.547 119.999 50.5832L120.125 52.0779L120.251 53.5726C121.322 53.4821 122.324 53.0598 123.244 52.4056L122.375 51.1831ZM120.125 52.0779L119.999 50.5832C119.735 50.6055 119.357 50.5315 118.819 50.0962L117.875 51.2618L116.931 52.4275C117.893 53.207 119.015 53.677 120.251 53.5726L120.125 52.0779ZM117.875 51.2618L118.819 50.0962C117.84 49.3036 116.686 48.8452 115.419 49.021L115.625 50.5068L115.831 51.9925C116.064 51.9603 116.41 52.0052 116.931 52.4275L117.875 51.2618ZM115.625 50.5068L115.419 49.021C114.457 49.1544 113.527 49.4904 112.635 49.9969L113.375 51.3014L114.115 52.6059C114.723 52.2609 115.293 52.0671 115.831 51.9925L115.625 50.5068ZM113.375 51.3014L112.635 49.9969C112.605 50.0138 112.583 50.0233 112.569 50.0284C112.556 50.0335 112.549 50.0347 112.548 50.0348C112.548 50.0349 112.55 50.0345 112.554 50.0346C112.558 50.0346 112.56 50.0351 112.558 50.0347C112.552 50.0334 112.423 50.0032 112.179 49.7622L111.125 50.8299L110.071 51.8977C110.577 52.3967 111.198 52.815 111.942 52.9709C112.72 53.1339 113.465 52.9748 114.115 52.6059L113.375 51.3014ZM111.125 50.8299L112.179 49.7622C111.219 48.8159 109.988 48.1918 108.577 48.4781L108.875 49.9482L109.173 51.4182C109.262 51.4003 109.531 51.364 110.071 51.8977L111.125 50.8299ZM108.875 49.9482L108.577 48.4781C108.033 48.5885 107.494 48.584 106.948 48.4636L106.625 49.9285L106.302 51.3933C107.256 51.6035 108.217 51.6121 109.173 51.4182L108.875 49.9482ZM106.625 49.9285L106.948 48.4636C105.862 48.2244 104.786 48.3568 103.764 48.8123L104.375 50.1823L104.986 51.5522C105.464 51.3388 105.888 51.302 106.302 51.3933L106.625 49.9285ZM104.375 50.1823L103.764 48.8123C102.992 49.1566 102.221 49.5229 101.45 49.9111L102.125 51.2507L102.8 52.5903C103.529 52.2229 104.258 51.8769 104.986 51.5522L104.375 50.1823ZM102.125 51.2507L101.45 49.9111C100.876 50.2002 100.346 50.3301 99.8454 50.34L99.875 51.8397L99.9046 53.3394C100.904 53.3197 101.874 53.057 102.8 52.5903L102.125 51.2507ZM99.875 51.8397L99.8454 50.34C99.3251 50.3502 98.7847 50.2464 98.2126 50.0028L97.625 51.3829L97.0374 52.763C97.9653 53.1581 98.9249 53.3587 99.9046 53.3394L99.875 51.8397ZM97.625 51.3829L98.2126 50.0028C97.4058 49.6593 96.5947 49.3727 95.7796 49.1444L95.375 50.5888L94.9704 52.0332C95.6553 52.225 96.3442 52.4679 97.0374 52.763L97.625 51.3829ZM95.375 50.5888L95.7796 49.1444C94.684 48.8375 93.5835 48.9273 92.5352 49.3756L93.125 50.7548L93.7148 52.134C94.1665 51.9408 94.566 51.9199 94.9704 52.0332L95.375 50.5888ZM93.125 50.7548L92.5352 49.3756C92.0922 49.565 91.7017 49.5823 91.3024 49.4636L90.875 50.9014L90.4476 52.3393C91.5483 52.6664 92.6578 52.5859 93.7148 52.134L93.125 50.7548ZM90.875 50.9014L91.3024 49.4636C90.2471 49.1499 89.1759 49.1785 88.1341 49.5393L88.625 50.9567L89.1159 52.3741C89.574 52.2154 90.0029 52.2071 90.4476 52.3393L90.875 50.9014ZM88.625 50.9567L88.1341 49.5393C87.7168 49.6838 87.3258 49.6802 86.8995 49.5211L86.375 50.9264L85.8505 52.3318C86.9242 52.7325 88.0332 52.749 89.1159 52.3741L88.625 50.9567ZM86.375 50.9264L86.8995 49.5211C85.9692 49.174 85.0137 49.0171 84.0445 49.0692L84.125 50.5671L84.2055 52.0649C84.7363 52.0364 85.2808 52.1191 85.8505 52.3318L86.375 50.9264ZM84.125 50.5671L84.0445 49.0692C83.1825 49.1156 82.3254 49.2579 81.4748 49.4933L81.875 50.939L82.2752 52.3846C82.9246 52.2048 83.5675 52.0992 84.2055 52.0649L84.125 50.5671ZM81.875 50.939L81.4748 49.4933C81.1529 49.5824 80.8117 49.5596 80.3669 49.3064L79.625 50.6101L78.883 51.9137C79.9383 52.5143 81.0971 52.7107 82.2752 52.3846L81.875 50.939ZM79.625 50.6101L80.3669 49.3064C79.2424 48.6664 78.0062 48.5506 76.7977 49.0544L77.375 50.4389L77.9522 51.8234C78.2438 51.7018 78.5076 51.7001 78.883 51.9137L79.625 50.6101ZM77.375 50.4389L76.7977 49.0544C76.4808 49.1866 76.1985 49.1852 75.8245 48.988L75.125 50.3149L74.4255 51.6418C75.5515 52.2354 76.7692 52.3166 77.9522 51.8234L77.375 50.4389ZM75.125 50.3149L75.8245 48.988C74.7445 48.4187 73.5745 48.2828 72.4075 48.6656L72.875 50.0909L73.3425 51.5162C73.6755 51.4069 74.0055 51.4204 74.4255 51.6418L75.125 50.3149ZM72.875 50.0909L72.4075 48.6656C71.7696 48.8748 71.1418 48.9983 70.5217 49.0411L70.625 50.5376L70.7283 52.034C71.6082 51.9732 72.4804 51.7989 73.3425 51.5162L72.875 50.0909ZM70.625 50.5376L70.5217 49.0411C69.9879 49.078 69.4428 49.0042 68.8746 48.8035L68.375 50.2178L67.8754 51.6322C68.8072 51.9613 69.7621 52.1007 70.7283 52.034L70.625 50.5376ZM68.375 50.2178L68.8746 48.8035C67.879 48.4518 66.8533 48.3704 65.8264 48.579L66.125 50.0489L66.4236 51.5189C66.8966 51.4228 67.371 51.454 67.8754 51.6322L68.375 50.2178ZM66.125 50.0489L65.8264 48.579C64.9238 48.7623 64.0404 49.087 63.1782 49.5392L63.875 50.8676L64.5718 52.1959C65.2096 51.8614 65.8262 51.6403 66.4236 51.5189L66.125 50.0489ZM63.875 50.8676L63.1782 49.5392C62.5354 49.8764 61.9122 50.1046 61.3068 50.236L61.625 51.7019L61.9432 53.1677C62.8378 52.9736 63.7145 52.6456 64.5718 52.1959L63.875 50.8676ZM61.625 51.7019L61.3068 50.236C60.8871 50.3271 60.4587 50.2899 59.9777 50.0789L59.375 51.4525L58.7723 52.8261C59.7912 53.2731 60.8629 53.4022 61.9432 53.1677L61.625 51.7019ZM59.375 51.4525L59.9777 50.0789C59.284 49.7745 58.5857 49.4172 57.8828 49.0058L57.125 50.3003L56.3672 51.5948C57.1643 52.0614 57.966 52.4723 58.7723 52.8261L59.375 51.4525ZM57.125 50.3003L57.8828 49.0058C56.6942 48.31 55.3891 48.2673 54.167 48.9217L54.875 50.2441L55.583 51.5664C55.8609 51.4177 56.0558 51.4125 56.3672 51.5948L57.125 50.3003ZM54.875 50.2441L54.167 48.9217C53.6529 49.1969 53.2105 49.2707 52.8042 49.2218L52.625 50.711L52.4457 52.2003C53.5395 52.3319 54.5971 52.0943 55.583 51.5664L54.875 50.2441ZM52.625 50.711L52.8042 49.2218C51.8012 49.101 50.8096 49.2325 49.8485 49.5927L50.375 50.9973L50.9015 52.4019C51.4404 52.1999 51.9488 52.1404 52.4457 52.2003L52.625 50.711ZM50.375 50.9973L49.8485 49.5927C49.3119 49.7939 48.8062 49.8516 48.3116 49.7896L48.125 51.278L47.9384 52.7663C48.9437 52.8923 49.938 52.763 50.9015 52.4019L50.375 50.9973ZM48.125 51.278L48.3116 49.7896C47.2834 49.6607 46.2711 49.8155 45.2988 50.2201L45.875 51.605L46.4512 52.9899C46.9789 52.7704 47.4666 52.7072 47.9384 52.7663L48.125 51.278ZM45.875 51.605L45.2988 50.2201C44.9698 50.357 44.678 50.3548 44.3034 50.1648L43.625 51.5026L42.9466 52.8405C44.072 53.4112 45.2802 53.4772 46.4512 52.9899L45.875 51.605ZM43.625 51.5026L44.3034 50.1648C43.3938 49.7036 42.4472 49.4256 41.4717 49.3626L41.375 50.8595L41.2783 52.3563C41.8028 52.3902 42.3562 52.5411 42.9466 52.8405L43.625 51.5026ZM41.375 50.8595L41.4717 49.3626C40.3925 49.2928 39.3567 49.568 38.3913 50.1093L39.125 51.4176L39.8587 52.726C40.3933 52.4261 40.8575 52.3291 41.2783 52.3563L41.375 50.8595ZM39.125 51.4176L38.3913 50.1093C37.9894 50.3347 37.6939 50.3401 37.3892 50.2289L36.875 51.638L36.3608 53.0471C37.5561 53.4833 38.7606 53.3417 39.8587 52.726L39.125 51.4176ZM36.875 51.638L37.3892 50.2289C36.2494 49.813 35.0861 49.882 33.9898 50.3944L34.625 51.7533L35.2602 53.1122C35.6639 52.9235 36.0006 52.9157 36.3608 53.0471L36.875 51.638ZM34.625 51.7533L33.9898 50.3944C33.8534 50.4582 33.7716 50.4595 33.7119 50.451C33.6406 50.4408 33.4977 50.3999 33.2772 50.2339L32.375 51.4322L31.4728 52.6306C32.0023 53.0292 32.6094 53.3241 33.2881 53.4209C33.9784 53.5194 34.6466 53.399 35.2602 53.1122L34.625 51.7533ZM32.375 51.4322L33.2772 50.2339C32.4179 49.587 31.5198 49.0967 30.5822 48.7967L30.125 50.2253L29.6678 51.6539C30.2302 51.8339 30.8321 52.1482 31.4728 52.6306L32.375 51.4322ZM30.125 50.2253L30.5822 48.7967C29.3876 48.4144 28.2018 48.594 27.1264 49.2134L27.875 50.5132L28.6236 51.8131C29.0482 51.5685 29.3624 51.5562 29.6678 51.6539L30.125 50.2253ZM27.875 50.5132L27.1264 49.2134C26.8231 49.3881 26.6298 49.3851 26.3455 49.2294L25.625 50.545L24.9045 51.8606C26.1202 52.5264 27.4269 52.5022 28.6236 51.8131L27.875 50.5132ZM25.625 50.545L26.3455 49.2294C25.2886 48.6506 24.1366 48.4729 22.9706 48.7994L23.375 50.2439L23.7794 51.6883C24.1134 51.5948 24.4614 51.6179 24.9045 51.8606L25.625 50.545ZM23.375 50.2439L22.9706 48.7994C22.3624 48.9697 21.7653 49.0422 21.1741 49.0228L21.125 50.522L21.0759 52.0212C21.9847 52.051 22.8876 51.938 23.7794 51.6883L23.375 50.2439ZM21.125 50.522L21.1741 49.0228C20.0346 48.9855 18.9724 49.3732 18.0163 50.0408L18.875 51.2707L19.7337 52.5005C20.2777 52.1208 20.7154 52.0094 21.0759 52.0212L21.125 50.522ZM18.875 51.2707L18.0163 50.0408C17.5862 50.3411 17.3261 50.3325 17.1011 50.2572L16.625 51.6796L16.1489 53.1021C17.424 53.5289 18.6638 53.2476 19.7337 52.5005L18.875 51.2707ZM16.625 51.6796L17.1011 50.2572C16.0534 49.9065 14.9796 49.8943 13.926 50.2248L14.375 51.6561L14.824 53.0873C15.2704 52.9472 15.6967 52.9507 16.1489 53.1021L16.625 51.6796ZM14.375 51.6561L13.926 50.2248C13.6631 50.3073 13.3725 50.3017 12.9399 50.0217L12.125 51.2811L11.3101 52.5405C12.3775 53.2311 13.587 53.4754 14.824 53.0873L14.375 51.6561ZM12.125 51.2811L12.9399 50.0217C11.9239 49.3644 10.785 49.067 9.59102 49.2972L9.87501 50.7701L10.159 52.243C10.465 52.184 10.8261 52.2272 11.3101 52.5405L12.125 51.2811ZM9.87501 50.7701L9.59102 49.2972C9.10521 49.3909 8.61814 49.3594 8.10462 49.1861L7.62501 50.6074L7.14539 52.0286C8.13187 52.3615 9.1448 52.4385 10.159 52.243L9.87501 50.7701ZM7.62501 50.6074L8.10462 49.1861C6.86907 48.7691 5.65036 48.9904 4.57084 49.676L5.37501 50.9422L6.17917 52.2084C6.59966 51.9414 6.88095 51.9394 7.14539 52.0286L7.62501 50.6074ZM5.37501 50.9422L4.57084 49.676C4.43488 49.7623 4.36245 49.7941 4.34438 49.801C4.3126 49.8131 4.43478 49.7571 4.6515 49.7776C4.92549 49.8034 5.24039 49.9443 5.45967 50.2273C5.63983 50.4598 5.65885 50.6652 5.66031 50.68L4.16767 50.8283L2.67503 50.9767C2.70394 51.2676 2.79384 51.6848 3.08834 52.0649C3.42196 52.4954 3.89463 52.7195 4.36984 52.7643C4.78779 52.8037 5.15463 52.7025 5.41096 52.605C5.68101 52.5023 5.94013 52.3602 6.17917 52.2084L5.37501 50.9422ZM4.16767 50.8283L5.66031 50.68C5.57497 49.8214 5.20862 48.9529 4.71015 48.1109L3.41936 48.875L2.12857 49.6391C2.51806 50.2971 2.65059 50.7309 2.67503 50.9767L4.16767 50.8283ZM3.41936 48.875L4.71015 48.1109C4.61955 47.9578 4.62392 47.8869 4.62554 47.8661C4.62785 47.8362 4.64391 47.7259 4.79561 47.5229L3.59401 46.625L2.3924 45.7271C1.98369 46.2741 1.69043 46.9138 1.63453 47.6339C1.57793 48.3631 1.77519 49.0422 2.12857 49.6391L3.41936 48.875ZM3.59401 46.625L4.79561 47.5229C5.2593 46.9023 5.54442 46.1247 5.40264 45.2579C5.26824 44.4362 4.7887 43.7803 4.24798 43.277L3.22599 44.375L2.204 45.473C2.33067 45.5909 2.39595 45.6771 2.42678 45.7269C2.45575 45.7738 2.44774 45.7773 2.44198 45.7421C2.43547 45.7023 2.44009 45.6636 2.4463 45.6423C2.4507 45.6272 2.44588 45.6556 2.3924 45.7271L3.59401 46.625ZM3.22599 44.375L4.24798 43.277C3.9567 43.0059 3.85843 42.822 3.82858 42.7396C3.81527 42.7028 3.81474 42.6847 3.81471 42.679C3.81467 42.6734 3.81498 42.6563 3.82727 42.6212L2.41174 42.125L0.996199 41.6288C0.459775 43.1589 1.16049 44.5017 2.204 45.473L3.22599 44.375ZM2.41174 42.125L3.82727 42.6212C4.17923 41.6173 4.25021 40.5833 4.02174 39.5509L2.55717 39.875L1.0926 40.1991C1.19607 40.6667 1.1701 41.1327 0.996199 41.6288L2.41174 42.125ZM2.55717 39.875L4.02174 39.5509C3.883 38.9239 3.82727 38.3029 3.85195 37.6848L2.35315 37.625L0.854342 37.5651C0.819125 38.4471 0.899417 39.3261 1.0926 40.1991L2.55717 39.875ZM2.35315 37.625L3.85195 37.6848C3.88728 36.8002 3.80434 35.9186 3.60598 35.0434L2.14308 35.375L0.680188 35.7066C0.821812 36.3314 0.878912 36.9498 0.854342 37.5651L2.35315 37.625ZM2.14308 35.375L3.60598 35.0434C3.47655 34.4724 3.4556 33.91 3.53981 33.3468L2.0563 33.125L0.572792 32.9032C0.432727 33.84 0.469632 34.7776 0.680188 35.7066L2.14308 35.375ZM2.0563 33.125L3.53981 33.3468C3.61916 32.8161 3.82142 32.2494 4.1828 31.6417L2.89357 30.875L1.60434 30.1083C1.07364 31.0006 0.717722 31.9339 0.572792 32.9032L2.0563 33.125ZM2.89357 30.875L4.1828 31.6417C4.87466 30.4784 4.95939 29.191 4.35414 27.9622L3.00851 28.625L1.66289 29.2878C1.79647 29.559 1.80457 29.7716 1.60434 30.1083L2.89357 30.875ZM3.00851 28.625L4.35414 27.9622C4.00486 27.2531 3.69705 26.5467 3.4301 25.843L2.02762 26.375L0.625144 26.907C0.927216 27.7033 1.27334 28.4969 1.66289 29.2878L3.00851 28.625ZM2.02762 26.375L3.4301 25.843C3.41466 25.8023 3.41333 25.7811 3.41314 25.7737C3.41296 25.7665 3.41317 25.7498 3.42396 25.7169C3.44808 25.6433 3.53341 25.4681 3.80715 25.2035L2.76459 24.125L1.72202 23.0465C1.21994 23.5319 0.794531 24.1067 0.572995 24.7831C0.341559 25.4897 0.363453 26.2172 0.625144 26.907L2.02762 26.375ZM2.76459 24.125L3.80715 25.2035C4.72142 24.3196 5.40097 23.291 5.58734 22.1085L4.10563 21.875L2.62392 21.6415C2.57387 21.959 2.35939 22.4304 1.72202 23.0465L2.76459 24.125ZM4.10563 21.875L5.58734 22.1085C5.82005 20.632 5.03109 19.4099 3.99876 18.4998L3.00682 19.625L2.01488 20.7502C2.68405 21.3401 2.62762 21.618 2.62392 21.6415L4.10563 21.875ZM3.00682 19.625L3.99876 18.4998C3.70023 18.2366 3.67618 18.108 3.68315 18.1359C3.68853 18.1574 3.6904 18.1906 3.68473 18.2201C3.67995 18.245 3.67651 18.2321 3.71074 18.1781L2.44385 17.375L1.17695 16.5719C0.755065 17.2374 0.564235 18.0303 0.772868 18.8641C0.967501 19.642 1.46265 20.2634 2.01488 20.7502L3.00682 19.625ZM2.44385 17.375L3.71074 18.1781C4.21978 17.3751 4.66225 16.5655 5.03587 15.7493L3.67198 15.125L2.30808 14.5007C1.99507 15.1845 1.61879 15.8749 1.17695 16.5719L2.44385 17.375ZM3.67198 15.125L5.03587 15.7493C5.3391 15.0869 5.42607 14.364 5.24376 13.6357C5.06841 12.9353 4.67184 12.3381 4.19167 11.8371L3.10873 12.875L2.0258 13.9129C2.26444 14.1619 2.32115 14.3147 2.33356 14.3643C2.33915 14.3866 2.33885 14.3985 2.3379 14.4078C2.33681 14.4183 2.33229 14.4478 2.30808 14.5007L3.67198 15.125ZM3.10873 12.875L4.19167 11.8371C3.97627 11.6124 3.99355 11.5299 3.99988 11.5883C4.00113 11.5998 4.00117 11.6123 3.99995 11.624C3.99876 11.6355 3.99686 11.6413 3.99722 11.6402C3.99806 11.6375 4.01153 11.5968 4.06962 11.5185L2.86474 10.625L1.65987 9.73154C1.21293 10.3342 0.926906 11.0775 1.01737 11.9117C1.10503 12.7201 1.52238 13.3877 2.0258 13.9129L3.10873 12.875ZM2.86474 10.625L4.06962 11.5185C4.70159 10.6662 5.18847 9.78111 5.50415 8.86249L4.08557 8.375L2.667 7.88752C2.46721 8.46889 2.14021 9.08378 1.65987 9.73154L2.86474 10.625ZM4.08557 8.375L5.50415 8.86249C6.01706 7.36994 5.38085 6.04047 4.37185 5.05298L3.32268 6.125L2.2735 7.19702C2.54497 7.4627 2.63807 7.6446 2.66759 7.73167C2.68798 7.79182 2.68815 7.82597 2.667 7.88752L4.08557 8.375ZM3.32268 6.125L4.37185 5.05298C4.07742 4.76482 3.94741 4.55666 3.89549 4.43645C3.87143 4.38075 3.8671 4.35097 3.86628 4.34348C3.86566 4.33784 3.86608 4.33861 3.86611 4.33847L2.4048 4L0.943483 3.66153C0.614246 5.083 1.35723 6.30028 2.2735 7.19702L3.32268 6.125ZM2.4048 4L3.86611 4.33847C3.9381 4.02768 3.98922 3.87375 4.01017 3.82307C4.02405 3.7895 3.99683 3.86937 3.90868 3.98283C3.8622 4.04265 3.764 4.15735 3.60244 4.26476C3.43179 4.37821 3.16295 4.5 2.81821 4.5V3V1.5C2.07192 1.5 1.65284 1.99658 1.53972 2.14217C1.38681 2.33896 1.29277 2.54383 1.23775 2.67693C1.12089 2.95958 1.02591 3.30566 0.943483 3.66153L2.4048 4ZM2.81821 3V4.5C2.65624 4.5 2.54071 4.47098 2.51737 4.46519C2.47869 4.4556 2.45868 4.44804 2.46507 4.45031C2.47789 4.45488 2.52394 4.47271 2.61463 4.51397C2.79256 4.59492 3.05869 4.72759 3.42414 4.92073L4.125 3.59453L4.82586 2.26833C4.44131 2.06511 4.11464 1.90052 3.85697 1.78329C3.72986 1.72547 3.59742 1.66898 3.47103 1.624C3.40648 1.60103 3.13556 1.5 2.81821 1.5V3Z" fill="#5497FF"/>
</svg>
