<svg width="319" height="283" viewBox="0 0 319 283" fill="none" xmlns="http://www.w3.org/2000/svg">
<path d="M148.23 0.09375C149.202 0.16453 150.148 0.453128 151.055 0.914062C151.377 1.07747 151.624 1.076 151.945 0.914062C153.201 0.27794 154.518 0.393266 155.684 1.13672C156.044 1.36568 156.261 1.35079 156.504 1.24219C157.674 0.714449 158.9 0.751529 160.043 1.32422C160.766 1.68703 161.491 2.02505 162.211 2.33203C162.689 2.53582 163.124 2.56871 163.547 2.47266C164.042 2.35977 164.597 2.09965 165.211 1.62891C165.811 1.16876 166.565 0.857634 167.414 0.949219C168.234 1.03848 168.908 1.4792 169.43 1.99219C169.601 2.15966 169.71 2.20079 169.746 2.21484C169.762 2.20775 169.786 2.19903 169.816 2.17969C170.864 1.51007 172.044 1.25553 173.262 1.58203C173.711 1.70243 174.15 1.67799 174.621 1.51172C175.501 1.20027 176.399 1.02602 177.305 0.984375C178.32 0.937896 179.311 1.15442 180.258 1.59375C180.793 1.842 181.283 1.92635 181.746 1.88672C182.523 1.82001 183.301 1.77093 184.078 1.74609C185.108 1.71335 186.108 1.95848 187.055 2.4375C187.521 2.67301 187.911 2.71227 188.285 2.625C189.149 2.42359 190.025 2.32174 190.898 2.33203C191.132 2.33307 191.524 2.23735 192.094 1.69922C193.013 0.829746 194.106 0.220857 195.352 0.199219C196.223 0.184305 197.091 0.273165 197.953 0.46875C198.514 0.596353 199.074 0.620876 199.629 0.527344C200.814 0.328165 201.941 0.632667 202.945 1.28906C203.099 1.38937 203.174 1.39484 203.191 1.39453C203.205 1.39405 203.305 1.39297 203.496 1.25391C204.582 0.464285 205.86 0.179989 207.164 0.679688C207.828 0.933949 208.484 1.11671 209.133 1.23047C209.517 1.29774 209.932 1.24318 210.422 0.984375C211.054 0.650027 211.769 0.506197 212.508 0.632812C213.222 0.756361 213.841 1.10757 214.359 1.55859C214.452 1.63948 214.511 1.69372 214.547 1.71094C214.568 1.70206 214.62 1.66808 214.699 1.60547C215.268 1.15898 215.973 0.845593 216.773 0.855469C217.571 0.866638 218.264 1.19829 218.824 1.65234C218.891 1.70628 218.938 1.73278 218.965 1.74609C218.999 1.72819 219.058 1.68914 219.141 1.61719C219.711 1.12043 220.454 0.748661 221.332 0.796875C222.193 0.844246 222.898 1.28294 223.43 1.80469C223.535 1.90757 223.61 1.95612 223.652 1.98047C223.67 1.96986 223.694 1.95506 223.723 1.93359C224.79 1.13374 226.056 0.8176 227.367 1.27734C227.893 1.46209 228.399 1.49683 228.891 1.41797C229.727 1.2841 230.571 1.22563 231.41 1.24219C232.129 1.25627 232.848 1.25595 233.566 1.23047C234.373 1.20175 235.186 1.21303 235.992 1.27734C236.465 1.31513 236.963 1.22988 237.504 0.984375C238.512 0.526844 239.578 0.379163 240.656 0.585938C241.413 0.731471 242.173 0.884393 242.93 1.04297C243.662 1.19639 244.401 1.33898 245.133 1.46484C245.782 1.57622 246.433 1.61579 247.078 1.59375C248.146 1.55816 249.172 1.85477 250.125 2.40234C250.286 2.49433 250.379 2.50936 250.43 2.50781C250.483 2.50546 250.601 2.48178 250.793 2.35547C251.902 1.62049 253.173 1.4179 254.438 1.93359C255.091 2.2006 255.738 2.38813 256.371 2.49609C256.87 2.5809 257.38 2.54123 257.906 2.36719C258.553 2.15339 259.216 1.85929 259.887 1.47656C260.458 1.1509 261.093 0.950777 261.773 0.960938C262.454 0.971286 263.085 1.18528 263.648 1.52344C264.172 1.83751 264.61 1.9309 264.996 1.89844C265.658 1.84203 266.33 1.72197 267 1.54688C267.631 1.38167 268.276 1.12775 268.934 0.785156C269.552 0.46372 270.241 0.318909 270.961 0.421875C271.666 0.523363 272.285 0.851126 272.812 1.27734C273.453 1.79548 274.058 2.12483 274.605 2.30859C274.957 2.42561 275.303 2.40778 275.719 2.20312C276.486 1.82592 277.259 1.47296 278.027 1.13672C279.336 0.565413 280.642 0.811813 281.754 1.61719C281.846 1.68425 281.914 1.71976 281.953 1.73438C281.985 1.74614 282.004 1.74577 282.012 1.74609C282.016 1.74614 282.036 1.74622 282.07 1.73438C282.107 1.72149 282.169 1.69162 282.258 1.62891C282.841 1.21733 283.536 0.954432 284.309 0.984375C285.074 1.0142 285.745 1.32267 286.301 1.75781C286.789 2.14056 287.09 2.156 287.297 2.10938C287.907 1.97156 288.538 1.7325 289.184 1.39453C289.78 1.08318 290.445 0.920991 291.141 0.984375C291.828 1.04786 292.45 1.3282 292.992 1.71094C293.499 2.06763 293.877 2.13514 294.176 2.09766C295.001 1.99004 295.833 1.94679 296.66 1.96875C297.228 1.984 297.812 1.89559 298.406 1.69922C299.37 1.38091 300.356 1.29083 301.348 1.44141C302.12 1.55895 302.896 1.68616 303.668 1.83984C304.458 1.99715 305.247 2.19022 306.035 2.41406C306.256 2.47672 306.54 2.47661 306.996 2.14453C308.014 1.40495 309.199 1.04607 310.453 1.32422C311.12 1.47199 311.784 1.56041 312.445 1.59375C313.039 1.62343 313.643 1.57192 314.25 1.41797C314.922 1.24697 315.651 1.26946 316.324 1.61719C316.969 1.95055 317.418 2.49948 317.73 3.07031C318.402 4.29808 318.437 5.63136 317.73 6.86719C317.456 7.34798 317.416 7.73569 317.484 8.08594C317.678 9.07315 317.621 10.0663 317.344 11.0391C317.203 11.5342 317.207 12.0146 317.332 12.5039C317.587 13.5034 317.576 14.5184 317.309 15.5156C317.238 15.7804 317.253 16.0936 317.555 16.5469C318.188 17.4983 318.55 18.5407 318.527 19.6523C318.507 20.6249 318.276 21.5831 317.859 22.5C317.663 22.936 317.641 23.3141 317.754 23.6953C318.043 24.6652 318.11 25.6601 317.93 26.6484C317.84 27.1428 317.865 27.6401 318.035 28.1602C318.347 29.1125 318.455 30.0857 318.328 31.0664C318.252 31.6587 318.264 32.2512 318.375 32.8477C318.609 34.0988 318.22 35.2655 317.473 36.2695C317.42 36.34 317.399 36.3882 317.391 36.4102C317.403 36.4425 317.449 36.5229 317.555 36.6445C318.074 37.243 318.455 38.0493 318.305 38.9883C318.164 39.8669 317.608 40.5399 317.027 41.0273C316.756 41.2551 316.648 41.4003 316.617 41.4609C316.991 42.2077 317.368 42.9525 317.742 43.6992C318.086 44.3856 318.189 45.1591 317.965 45.9258C317.753 46.6471 317.296 47.2449 316.77 47.7305C316.689 47.8048 316.629 47.8614 316.594 47.9062L316.605 47.9297C317.303 48.785 317.845 49.6801 318.176 50.625C318.718 52.1799 317.963 53.5347 316.898 54.4922C316.248 55.0778 316.235 55.3999 316.242 55.4883C316.27 55.7957 316.44 56.2526 317.004 56.8477C317.484 57.3546 317.88 57.9673 318.035 58.6875C318.195 59.4349 318.065 60.1597 317.73 60.8086C317.445 61.3608 317.333 61.8664 317.344 62.332C317.357 62.8695 317.484 63.4319 317.742 64.0195C318.246 65.1651 318.229 66.3639 317.707 67.5C317.511 67.9273 317.493 68.297 317.613 68.6719C318.007 69.9021 317.778 71.1062 317.098 72.1758C317.065 72.2263 317.045 72.2637 317.039 72.2812C317.039 72.2813 317.063 72.3951 317.262 72.6094C318.103 73.5181 318.693 74.5729 318.785 75.7617C318.863 76.7723 318.678 77.7625 318.27 78.7148C317.939 79.4867 317.589 80.2647 317.215 81.0352C316.99 81.5014 316.949 81.9033 317.039 82.2891C317.172 82.8559 317.422 83.4536 317.812 84.082C318.232 84.757 318.413 85.5575 318.188 86.3906C317.978 87.1641 317.471 87.7838 316.91 88.2656C316.201 88.876 316.179 89.2168 316.184 89.2969C316.226 90.0848 316.238 90.876 316.219 91.6641C316.215 91.8715 316.303 92.2502 316.863 92.8242C317.717 93.6981 318.359 94.6729 318.633 95.7539C318.888 96.7617 318.871 97.7874 318.586 98.7891C318.301 99.7881 317.75 100.719 317.016 101.59C316.592 102.092 316.592 102.387 316.629 102.562C316.818 103.459 316.871 104.365 316.781 105.27C316.762 105.464 316.81 105.811 317.309 106.359C317.841 106.944 318.247 107.751 318.117 108.703C317.995 109.596 317.442 110.275 316.863 110.766C316.519 111.056 316.357 111.286 316.289 111.422C316.235 111.532 316.238 111.575 316.242 111.598C316.315 111.984 316.558 112.486 317.133 113.098C317.668 113.668 318.097 114.458 318 115.406C317.906 116.31 317.364 117.004 316.793 117.504C316.114 118.098 316.156 118.389 316.16 118.418C316.242 119 316.435 119.599 316.734 120.223C317.157 121.101 317.432 122.008 317.555 122.93C317.701 124.027 317.473 125.092 316.945 126.082C316.86 126.243 316.848 126.345 316.852 126.41C316.856 126.48 316.887 126.61 317.016 126.809C317.58 127.68 317.979 128.596 318.199 129.539C318.458 130.651 318.313 131.754 317.812 132.785C317.621 133.181 317.612 133.505 317.742 133.852C318.249 135.209 317.866 136.505 317.004 137.566C316.515 138.168 316.294 138.69 316.219 139.125C316.211 139.172 316.161 139.454 316.781 140.027C317.342 140.546 317.857 141.273 317.883 142.207C317.907 143.157 317.417 143.92 316.863 144.457C316.822 144.497 316.794 144.534 316.77 144.562C316.78 144.575 316.792 144.596 316.805 144.609C317.292 145.135 317.684 145.795 317.777 146.578C317.872 147.385 317.623 148.114 317.203 148.723C316.832 149.259 316.738 149.696 316.758 150.047C316.808 150.961 316.698 151.868 316.453 152.766C316.328 153.224 316.344 153.676 316.5 154.148C316.698 154.745 317.013 155.373 317.461 156.023C317.879 156.631 318.124 157.365 318.035 158.168C317.948 158.948 317.567 159.608 317.086 160.137C316.596 160.676 316.57 160.997 316.594 161.168C316.644 161.525 316.846 162.008 317.402 162.609C317.92 163.168 318.343 163.911 318.305 164.812C318.266 165.7 317.798 166.416 317.262 166.945C316.669 167.531 316.552 167.925 316.547 168.141C316.536 168.932 316.496 169.729 316.418 170.52C316.344 171.265 316.274 172.013 316.207 172.758C316.156 173.323 316.211 173.898 316.371 174.48C316.629 175.419 316.691 176.373 316.559 177.328C316.498 177.763 316.565 178.222 316.805 178.734C317.25 179.683 317.466 180.679 317.414 181.699C317.384 182.284 317.449 182.879 317.613 183.48C317.808 184.194 318.028 184.909 318.281 185.625C318.603 186.534 318.768 187.462 318.75 188.402C318.724 189.696 318.035 190.803 317.098 191.707C316.977 191.824 316.916 191.905 316.887 191.953C316.894 191.966 316.909 191.982 316.922 192C317.587 192.925 318.012 193.947 318.082 195.035C318.154 196.193 317.764 197.271 317.086 198.234C317.061 198.27 317.037 198.297 317.027 198.316C317.041 198.349 317.086 198.439 317.227 198.586C318.134 199.536 318.732 200.725 318.551 202.078C318.417 203.074 318.04 204.026 317.473 204.926C317.376 205.079 317.39 205.147 317.391 205.148C317.394 205.175 317.415 205.272 317.555 205.453C318.311 206.43 318.743 207.571 318.598 208.805C318.507 209.575 318.396 210.344 318.27 211.113C318.115 212.057 317.77 212.973 317.273 213.855C316.95 214.429 316.813 214.957 316.793 215.438C316.764 216.125 316.771 216.812 316.828 217.5C316.896 218.308 316.914 219.117 316.887 219.926C316.867 220.506 316.944 221.095 317.121 221.695C317.314 222.346 317.592 223.016 317.941 223.688C318.265 224.313 318.409 225.012 318.293 225.738C318.179 226.449 317.831 227.066 317.391 227.59C316.919 228.152 316.803 228.57 316.805 228.867C316.809 229.613 316.821 230.359 316.828 231.105C316.832 231.505 316.957 231.979 317.332 232.535C318.086 233.651 318.295 234.939 317.754 236.215C317.445 236.944 317.16 237.678 316.887 238.406C316.715 238.866 316.696 239.286 316.816 239.719C317.041 240.524 317.209 241.335 317.332 242.145C317.411 242.664 317.625 243.227 318 243.832C318.392 244.465 318.592 245.209 318.457 246C318.326 246.762 317.909 247.408 317.414 247.922C317.321 248.019 317.262 248.08 317.238 248.121C317.249 248.142 317.266 248.174 317.297 248.215C318.059 249.209 318.481 250.369 318.27 251.625C318.163 252.259 318.131 252.894 318.176 253.523C318.222 254.158 318.337 254.798 318.527 255.445C318.887 256.667 318.646 257.866 317.977 258.926C317.651 259.442 317.575 259.858 317.613 260.215C317.692 260.949 317.782 261.684 317.883 262.418C317.993 263.217 318.055 264.02 318.082 264.82C318.124 266.056 317.596 267.16 316.781 268.102L316.758 268.113C316.79 268.154 316.838 268.21 316.91 268.277C317.477 268.808 317.999 269.574 317.965 270.551C317.929 271.512 317.361 272.247 316.781 272.754C316.094 273.355 316.085 273.691 316.09 273.773C316.127 274.328 316.263 274.906 316.535 275.508C317.042 276.629 317.076 277.815 316.605 278.953C316.317 279.652 316.095 280.278 315.949 280.84C315.791 281.448 315.343 282.286 314.309 282.48C313.494 282.632 312.769 282.266 312.328 281.988C311.686 281.584 311.067 281.307 310.477 281.145C309.846 280.971 309.218 280.883 308.602 280.875C308.307 280.872 307.893 280.996 307.336 281.461C306.338 282.293 305.128 282.752 303.809 282.469C303.317 282.364 302.829 282.383 302.32 282.539C300.713 283.034 299.377 282.146 298.465 281.039C297.87 280.318 297.549 280.299 297.492 280.301C296.679 280.361 295.857 280.368 295.043 280.324C294.336 280.287 293.629 280.281 292.922 280.301C292.382 280.316 291.812 280.441 291.223 280.699C290.378 281.069 289.524 281.345 288.656 281.508C288 281.631 287.333 281.816 286.664 282.07C285.636 282.462 284.561 282.541 283.5 282.27C282.765 282.082 282.032 281.896 281.297 281.73C280.436 281.536 279.582 281.241 278.742 280.852C278.168 280.585 277.628 280.472 277.113 280.465C276.412 280.457 275.705 280.477 275.004 280.535C274.666 280.563 274.206 280.736 273.621 281.25C272.57 282.176 271.232 282.626 269.824 282.07C269.379 281.895 268.974 281.874 268.559 282C267.789 282.234 267.02 282.449 266.25 282.645C265.116 282.933 263.989 282.777 262.945 282.246C262.115 281.824 261.293 281.307 260.484 280.711C260.471 280.701 260.459 280.694 260.449 280.688C260.4 280.721 260.332 280.797 260.227 280.91C259.336 281.865 258.252 282.579 256.98 282.668C255.784 282.752 254.686 282.321 253.723 281.59C253.306 281.273 253.088 281.302 252.914 281.367C252.01 281.712 251.076 281.907 250.137 281.918C249.006 281.93 247.955 281.523 247.008 280.852C246.541 280.52 246.232 280.509 245.988 280.57C245.518 280.689 244.967 280.964 244.348 281.496C243.803 281.963 243.133 282.325 242.344 282.375C241.542 282.426 240.823 282.15 240.234 281.719C239.675 281.31 239.223 281.174 238.852 281.168C237.86 281.152 236.893 280.901 235.969 280.453C235.858 280.4 235.809 280.401 235.781 280.406C235.73 280.417 235.588 280.465 235.359 280.664C234.364 281.533 233.138 282.034 231.785 281.719C231.439 281.638 231.066 281.673 230.602 281.93C229.667 282.446 228.677 282.734 227.648 282.75C226.597 282.766 225.583 282.483 224.637 281.953C224.091 281.648 223.611 281.53 223.172 281.543C222.578 281.561 221.973 281.675 221.355 281.883C219.923 282.366 218.618 281.821 217.617 280.875C217.59 280.903 217.558 280.94 217.523 280.98C216.651 282.013 215.547 282.826 214.207 282.902C212.717 282.986 211.549 282.041 210.691 280.934C210.048 280.101 209.699 280.089 209.672 280.09C209.045 280.11 208.413 280.209 207.773 280.383C207.171 280.547 206.544 280.817 205.898 281.203C204.868 281.819 203.723 282.063 202.547 281.801C201.828 281.641 201.108 281.503 200.391 281.391C199.857 281.308 199.323 281.345 198.773 281.496C197.778 281.769 196.762 281.779 195.762 281.531C194.919 281.323 194.08 281.026 193.254 280.652C192.832 280.463 192.469 280.45 192.094 280.57C191.475 280.772 190.829 281.073 190.172 281.484C189.264 282.054 188.3 282.431 187.289 282.539C186.292 282.645 185.302 282.501 184.348 282.141C183.511 281.824 182.68 281.419 181.863 280.934C181.451 280.688 181.155 280.682 180.867 280.781C180.164 281.025 179.454 281.302 178.746 281.625C177.448 282.218 176.134 281.998 175.008 281.203C174.594 280.912 174.352 280.928 174.141 281.004C173.38 281.28 172.616 281.555 171.855 281.812C171.088 282.073 170.315 282.312 169.547 282.539C168.428 282.869 167.301 282.759 166.242 282.27C165.836 282.083 165.492 282.081 165.129 282.211C163.84 282.67 162.584 282.38 161.508 281.613C161.431 281.558 161.377 281.539 161.355 281.531C161.338 281.535 161.252 281.554 161.098 281.684C160.573 282.129 159.942 282.475 159.223 282.586C158.486 282.698 157.784 282.549 157.16 282.211C156.425 281.813 155.691 281.427 154.957 281.062C154.906 281.037 154.878 281.039 154.875 281.039H154.863C154.831 281.047 154.68 281.096 154.43 281.344C153.883 281.885 153.124 282.35 152.191 282.316C151.276 282.282 150.557 281.779 150.035 281.227C149.438 280.593 149.053 280.512 148.875 280.512C148.636 280.512 148.234 280.617 147.656 281.168C146.739 282.042 145.648 282.648 144.398 282.668C143.427 282.683 142.473 282.491 141.551 282.105C140.757 281.773 139.96 281.389 139.172 280.969C138.685 280.71 138.272 280.664 137.895 280.734C137.003 280.899 136.107 280.928 135.211 280.828C134.699 280.771 134.177 280.833 133.629 281.027C132.468 281.44 131.289 281.336 130.195 280.781C129.585 280.472 129.005 280.297 128.449 280.23C128.26 280.208 127.925 280.246 127.383 280.734C126.464 281.561 125.394 282.121 124.195 282.176C123.527 282.206 122.853 282.294 122.18 282.434C120.661 282.748 119.401 281.928 118.488 280.875C118.391 280.763 118.31 280.695 118.254 280.652C117.682 281.074 116.991 281.361 116.215 281.344C115.437 281.326 114.758 281.01 114.199 280.57C113.753 280.218 113.52 280.245 113.355 280.301C112.761 280.503 112.142 280.829 111.492 281.285C110.527 281.963 109.439 282.339 108.281 282.27C107.243 282.207 106.251 281.859 105.328 281.285C104.84 280.983 104.462 280.924 104.133 280.98C103.462 281.097 102.785 281.269 102.105 281.496C101.063 281.844 99.9914 281.862 98.9414 281.543C98.75 281.485 98.4895 281.471 98.0391 281.812C97.501 282.222 96.8698 282.532 96.1641 282.609C95.4467 282.688 94.7671 282.517 94.1602 282.188C93.7649 281.973 93.4653 281.965 93.1523 282.082C91.9072 282.548 90.6633 282.348 89.5664 281.648C89.0033 281.289 88.5095 281.145 88.0781 281.133C87.1373 281.106 86.2129 280.903 85.3125 280.535C84.9991 280.407 84.7065 280.403 84.3281 280.605C83.6077 280.991 82.8836 281.412 82.1602 281.859C81.5994 282.206 80.9695 282.43 80.2852 282.445C79.5963 282.46 78.9499 282.262 78.375 281.93C77.8348 281.618 77.3666 281.512 76.9453 281.531C75.8008 281.584 74.7303 281.201 73.7695 280.535C73.7224 280.503 73.6919 280.483 73.6758 280.477C73.6337 280.496 73.5508 280.56 73.418 280.688C72.5556 281.519 71.6164 282.159 70.5938 282.492C69.6841 282.788 68.7522 282.926 67.8164 282.891C66.7994 282.851 65.8245 282.539 64.8984 282.023C64.2282 281.651 63.5644 281.373 62.918 281.168C62.205 280.941 61.4957 280.736 60.7852 280.57C60.3361 280.466 59.8862 280.494 59.4023 280.676C58.7717 280.912 58.1235 281.252 57.457 281.695C56.3598 282.426 55.1001 282.648 53.8359 282.164C53.3063 281.962 52.8095 281.9 52.3242 281.965C51.4581 282.081 50.59 282.102 49.7227 282.012C48.6575 281.9 47.6606 281.456 46.7461 280.793C46.3136 280.479 46.0615 280.5 45.8555 280.57C44.7989 280.929 43.7154 280.932 42.6562 280.582C42.6015 280.564 42.566 280.56 42.5039 280.582C42.4135 280.614 42.2221 280.711 41.9531 280.992C41.4262 281.542 40.7041 282.037 39.7852 282.059C38.8575 282.08 38.1135 281.615 37.5703 281.074C36.9756 280.482 36.5455 280.349 36.293 280.336C36.1923 280.333 35.8462 280.369 35.25 281.051C34.7475 281.625 34.0431 282.174 33.1172 282.246C32.1553 282.321 31.3758 281.857 30.8203 281.309C30.241 280.736 29.862 280.648 29.6602 280.652C28.8795 280.67 28.097 280.671 27.3164 280.641C27.065 280.631 26.6801 280.722 26.1211 281.215C25.5467 281.721 24.7804 282.102 23.8828 282.035C23.013 281.968 22.3171 281.494 21.7969 280.957C21.5346 280.687 21.3535 280.599 21.2695 280.57C21.2156 280.552 21.1863 280.55 21.1289 280.57C20.5599 280.771 19.9471 281.106 19.3008 281.613C18.7659 282.033 18.136 282.348 17.4258 282.434C16.7042 282.52 16.0204 282.355 15.4102 282.023C14.8682 281.729 14.3844 281.627 13.9453 281.648C12.9197 281.698 11.9184 281.474 10.9688 281.016C10.3465 280.716 9.74382 280.533 9.16406 280.453C9.10032 280.445 8.80892 280.432 8.23828 281.062C7.75604 281.595 7.16294 282.06 6.44531 282.281C5.6823 282.516 4.91097 282.432 4.21875 282.094C3.29082 281.639 2.49384 281.025 1.92188 280.219C1.50409 279.63 1.33388 278.924 1.45312 278.191C1.56464 277.511 1.90574 276.913 2.30859 276.422C2.47051 276.224 2.46237 276.154 2.46094 276.188C2.45293 276.164 2.41912 276.098 2.35547 276.012C1.64147 275.039 1.24757 273.926 1.35938 272.73C1.3973 272.313 1.31032 271.857 1.03125 271.336C0.710336 270.738 0.5453 270.071 0.609375 269.367C0.673937 268.671 0.944006 268.035 1.33594 267.492C1.61907 267.1 1.59389 266.901 1.51172 266.707C1.01175 265.526 1.08389 264.308 1.67578 263.18C1.91885 262.717 1.96144 262.333 1.875 261.973C1.72092 261.33 1.48368 260.679 1.17188 260.016C0.846832 259.324 0.776818 258.565 1.00781 257.812C1.21952 257.126 1.65322 256.553 2.15625 256.078C2.14218 256.066 2.12534 256.056 2.10938 256.043C1.5316 255.578 1.01125 255.001 0.738281 254.285C0.443675 253.51 0.492263 252.706 0.84375 251.977L0.996094 251.414C1.00559 251.24 0.977945 251.072 0.914062 250.898C0.598788 250.046 0.387447 249.18 0.28125 248.309C0.139728 247.145 0.466812 246.039 1.11328 245.051C1.48078 244.488 1.62752 243.998 1.64062 243.574C1.65197 243.176 1.53495 242.72 1.19531 242.18C0.772817 241.51 0.579545 240.706 0.796875 239.871C0.998791 239.095 1.50624 238.48 2.0625 237.996C2.07938 237.981 2.09509 237.962 2.10938 237.949C1.58986 237.466 1.12538 236.891 0.914062 236.18C0.689356 235.419 0.776743 234.652 1.11328 233.965C1.46464 233.248 1.7874 232.534 2.07422 231.82C2.08909 231.783 2.097 231.758 2.09766 231.75C2.09786 231.745 2.09392 231.73 2.08594 231.703C2.06532 231.638 1.98152 231.462 1.71094 231.199C0.738752 230.255 0.0627169 229.022 0.339844 227.59C0.489661 226.817 0.668888 226.041 0.855469 225.27C1.03085 224.544 1.18479 223.815 1.32422 223.09C1.49166 222.22 1.76751 221.358 2.14453 220.512C2.21685 220.349 2.26481 220.174 1.96875 219.785C1.55625 219.245 1.25319 218.612 1.18359 217.898C1.11413 217.172 1.29601 216.486 1.64062 215.883C1.90907 215.414 1.95057 215.038 1.875 214.699C1.65704 213.721 1.66749 212.732 1.91016 211.758C2.00796 211.361 1.97973 210.954 1.76953 210.492C1.41111 209.705 1.08919 208.916 0.808594 208.125C0.463386 207.151 0.35607 206.146 0.515625 205.137C0.666952 204.183 1.01258 203.257 1.52344 202.371C1.73044 202.011 1.73166 201.764 1.60547 201.48C1.21944 200.612 0.953235 199.722 0.832031 198.82C0.713462 197.935 0.716543 197.045 0.84375 196.16C0.93602 195.518 0.960343 194.878 0.914062 194.238C0.863147 193.539 0.778463 192.83 0.65625 192.129C0.513145 191.307 0.438912 190.482 0.421875 189.656C0.394562 188.331 1.08134 187.203 2.02734 186.293C2.30792 186.023 2.42048 185.826 2.46094 185.719C2.49175 185.637 2.48847 185.587 2.47266 185.531C2.23705 184.7 2.07436 183.864 1.99219 183.023C1.9369 182.457 1.77163 181.866 1.48828 181.254C0.932967 180.053 1.00568 178.794 1.64062 177.645C1.78808 177.376 1.79795 177.196 1.61719 176.895C0.908261 175.711 0.848921 174.399 1.5 173.168C1.82542 172.551 2.02135 171.963 2.10938 171.398C2.17218 170.994 2.10707 170.552 1.85156 170.051C1.44151 169.246 1.09238 168.429 0.808594 167.613C0.384317 166.388 0.584265 165.17 1.25391 164.086C1.65552 163.436 1.93912 162.807 2.12109 162.199C2.14857 162.107 2.211 161.885 1.75781 161.391C1.25672 160.844 0.861129 160.133 0.84375 159.281C0.826669 158.423 1.2065 157.698 1.69922 157.137C1.75788 157.07 1.78633 157.016 1.80469 156.984C1.78744 156.955 1.75881 156.912 1.71094 156.855C1.21909 156.282 0.853337 155.536 0.902344 154.664C0.950976 153.81 1.38158 153.111 1.89844 152.578C2.12727 152.342 2.17312 152.207 2.17969 152.18V152.168C2.17908 152.164 2.17471 152.131 2.14453 152.074C1.64025 151.121 1.3835 150.111 1.42969 149.062C1.45713 148.451 1.39452 147.832 1.25391 147.211C1.02532 146.203 1.07215 145.181 1.37109 144.188C1.60908 143.397 1.87804 142.607 2.19141 141.82C2.4402 141.196 2.5843 140.587 2.63672 139.992C2.68417 139.453 2.63073 138.906 2.44922 138.34C2.13133 137.353 2.06762 136.338 2.27344 135.328C2.37514 134.831 2.3492 134.332 2.19141 133.816C1.91629 132.919 1.78985 132.005 1.81641 131.086C1.84348 130.169 2.02458 129.257 2.34375 128.367C2.39235 128.231 2.4371 128.024 2.07422 127.582C1.59425 127 1.24801 126.253 1.3125 125.391C1.37703 124.548 1.81542 123.857 2.33203 123.328C2.39605 123.262 2.4238 123.201 2.44922 123.164C2.43592 123.146 2.42346 123.118 2.40234 123.094C1.62546 122.184 1.08154 121.166 0.960938 120.035C0.85898 119.078 0.959454 118.122 1.24219 117.188C1.43792 116.54 1.55811 115.9 1.60547 115.266C1.64046 114.795 1.55206 114.296 1.30078 113.754C0.851089 112.783 0.661197 111.763 0.773438 110.719C0.835437 110.147 0.798542 109.568 0.65625 108.984C0.430422 108.061 0.375436 107.119 0.492188 106.184C0.619107 105.176 0.997883 104.215 1.58203 103.312C1.89285 102.833 1.9364 102.476 1.875 102.176C1.74466 101.539 1.53395 100.889 1.24219 100.23C0.66459 98.9241 0.906721 97.6077 1.71094 96.4922C2.0337 96.0433 2.04297 95.7656 1.98047 95.543C1.77538 94.8276 1.53897 94.1044 1.27734 93.3867C0.959385 92.5141 0.766848 91.6236 0.703125 90.7266C0.625126 89.6141 0.938955 88.5547 1.53516 87.5859C1.75131 87.2328 1.73646 87.0121 1.61719 86.7539C1.19898 85.8485 0.953 84.9114 0.902344 83.9531C0.859647 83.1446 0.861197 82.3357 0.914062 81.5273C0.953953 80.9176 0.915415 80.3053 0.785156 79.6875C0.475264 78.2206 1.1892 76.9701 2.19141 76.0312C2.48685 75.7543 2.61045 75.5423 2.66016 75.4219C2.69864 75.3268 2.69558 75.2722 2.68359 75.2227C2.53471 74.6085 2.29027 73.9722 1.94531 73.3242C1.5361 72.5553 1.14852 71.7861 0.785156 71.0156C0.464436 70.3355 0.385825 69.583 0.597656 68.8359C0.799862 68.1276 1.2372 67.5329 1.74609 67.043C2.31221 66.4967 2.2361 66.2523 2.22656 66.2109C2.10189 65.6706 1.85182 65.0877 1.42969 64.4648C0.998914 63.8292 0.759633 63.0608 0.914062 62.2266C1.0606 61.4355 1.52361 60.7963 2.05078 60.293C2.08029 60.2648 2.10089 60.2331 2.12109 60.2109C2.11234 60.2016 2.0962 60.1979 2.08594 60.1875C1.57506 59.6741 1.14254 59.0203 1.01953 58.2305C0.891281 57.4063 1.13171 56.6515 1.55859 56.0273C1.8918 55.5397 1.92887 55.1871 1.875 54.9023C1.66326 53.7805 1.87572 52.6824 2.41406 51.668C2.56719 51.3775 2.56456 51.1698 2.39062 50.8594C1.87133 49.9324 1.56994 48.9503 1.53516 47.9297C1.5108 47.197 1.4784 46.4593 1.42969 45.7266C1.37222 44.8626 1.40722 43.997 1.54688 43.1367C1.66865 42.3878 1.78917 41.6357 1.91016 40.8867C1.93985 40.7029 1.92119 40.3805 1.46484 39.8555C0.581458 38.8376 0.116516 37.5733 0.527344 36.1992C0.74939 35.4592 0.954926 34.7125 1.16016 33.9727C1.38957 33.1457 1.6949 32.3267 2.0625 31.5117C2.36087 30.8505 2.57638 30.1958 2.71875 29.5547C2.8125 29.1315 2.78141 28.6973 2.57812 28.2188C2.25336 27.4582 1.93176 26.6945 1.62891 25.9336C1.21452 24.8924 1.14466 23.8 1.44141 22.7227C1.64922 21.9682 1.86759 21.2153 2.08594 20.4609C2.10936 20.38 2.17155 20.1555 1.69922 19.6523C1.19726 19.1177 0.784115 18.4294 0.726562 17.6016C0.668626 16.7568 0.997899 16.0175 1.46484 15.4336C1.64036 15.2135 1.68804 15.0755 1.69922 15.0117C1.70694 14.9645 1.71146 14.8912 1.65234 14.7656C1.21326 13.8363 0.971733 12.8658 0.972656 11.8711C0.974359 10.7232 1.41197 9.66142 2.12109 8.71875C2.27331 8.51586 2.30366 8.39957 2.30859 8.35547C2.31168 8.32431 2.3078 8.24418 2.22656 8.09766C1.90487 7.51518 1.73406 6.86579 1.76953 6.17578C1.80571 5.48961 2.05154 4.86437 2.41406 4.3125C2.30453 4.18388 2.17956 4.04518 2.09766 3.86719C1.88571 3.40443 1.88181 2.892 2.05078 2.4375C2.20146 2.03557 2.46194 1.7478 2.67188 1.55859C2.8914 1.36076 3.14146 1.19336 3.38672 1.05469C4.32734 0.52314 5.33032 0.232136 6.375 0.234375C7.68478 0.238239 8.79822 0.930253 9.70312 1.875C9.72145 1.89414 9.73417 1.91852 9.75 1.93359C9.76462 1.91996 9.77993 1.90402 9.79688 1.88672C10.3242 1.345 11.0435 0.867328 11.9414 0.832031C12.8539 0.796245 13.6013 1.23141 14.1562 1.75781C14.3815 1.97094 14.5106 1.99916 14.5312 2.00391C14.5367 2.00288 14.5758 2.003 14.6367 1.96875C15.7003 1.36793 16.8668 1.18575 18.0469 1.53516C18.6712 1.72072 19.2912 1.81881 19.8984 1.82812C20.3674 1.83523 20.8765 1.70971 21.4336 1.41797C22.3072 0.961115 23.2066 0.644067 24.1289 0.492188C25.1472 0.324774 26.1612 0.436653 27.1406 0.796875C28.0347 1.12619 28.9109 1.59906 29.7539 2.20312C30.1625 2.49552 30.3839 2.47876 30.5859 2.40234C31.3495 2.11072 32.1188 1.83644 32.8828 1.57031C34.0065 1.17889 35.149 1.23883 36.2344 1.72266C36.8983 2.01875 37.5585 2.23659 38.2031 2.37891C38.926 2.5384 39.649 2.68087 40.3711 2.80078C40.8964 2.88787 41.4235 2.8589 41.9648 2.70703C42.404 2.58333 42.952 2.26834 43.582 1.65234C44.1105 1.13724 44.7995 0.702992 45.6445 0.644531C46.5126 0.585733 47.2579 0.943872 47.8359 1.42969C48.0537 1.61311 48.176 1.62749 48.1875 1.62891H48.2109C48.2308 1.6242 48.2813 1.61162 48.3516 1.57031C49.3619 0.96695 50.477 0.700016 51.6328 0.902344C52.3501 1.02805 53.0727 1.13045 53.7891 1.20703C54.7057 1.30557 55.6064 1.55313 56.4844 1.94531C56.7434 2.06117 56.9761 2.07604 57.3398 1.85156C58.2468 1.29218 59.2066 0.931517 60.2109 0.820312C61.5847 0.668502 62.7603 1.32895 63.6914 2.27344C63.7229 2.30537 63.7495 2.33475 63.7734 2.35547C63.79 2.34139 63.8116 2.32818 63.832 2.30859C64.8065 1.36964 66.0627 0.776911 67.4766 1.11328C68.4506 1.34587 69.3772 1.80325 70.2539 2.4375C70.3087 2.47701 70.3482 2.49765 70.3711 2.50781C70.399 2.49824 70.4877 2.46983 70.6289 2.34375C71.1777 1.85327 71.8801 1.46401 72.7148 1.44141C73.5539 1.42028 74.2691 1.77441 74.8359 2.25C75.0228 2.40689 75.1288 2.43314 75.1523 2.4375C75.155 2.43778 75.1701 2.44205 75.1875 2.4375C75.2088 2.43164 75.2554 2.41273 75.3281 2.36719C75.9037 2.00588 76.5593 1.78142 77.2734 1.79297C77.9864 1.80482 78.6416 2.05198 79.207 2.42578C79.625 2.70049 79.8987 2.69744 80.1445 2.61328C80.7043 2.421 81.3074 2.08791 81.9492 1.58203C82.4883 1.15735 83.1235 0.835965 83.8477 0.761719C84.5826 0.68661 85.2702 0.878985 85.875 1.23047C86.4861 1.58682 87.0694 1.79119 87.6094 1.875C88.4512 2.00591 89.2872 2.21901 90.1172 2.50781C90.6933 2.70833 91.249 2.78259 91.793 2.75391C91.9606 2.74498 92.3652 2.63472 92.9883 1.91016C93.4883 1.32891 94.204 0.771562 95.1445 0.703125C96.1184 0.633367 96.8935 1.11854 97.4414 1.67578C98.0506 2.29556 98.5134 2.48244 98.8125 2.51953C99.1635 2.56243 99.5694 2.48618 100.078 2.16797C100.906 1.65012 101.752 1.23794 102.609 0.925781C103.779 0.500208 104.969 0.602246 106.066 1.17188C106.495 1.39434 106.838 1.41762 107.18 1.3125C107.963 1.07001 108.75 0.85058 109.535 0.667969C111.022 0.322712 112.287 1.05831 113.227 2.07422C113.397 2.25819 113.517 2.31806 113.566 2.34375L114.41 1.92188C115.25 1.59984 116.149 1.5412 117.059 1.81641C117.783 2.03613 118.515 2.23616 119.238 2.41406C119.343 2.43906 119.597 2.47873 120.105 2.00391C121.015 1.1549 122.07 0.552336 123.27 0.46875C124.264 0.399726 125.243 0.578596 126.188 0.960938C126.895 1.24711 127.606 1.48941 128.309 1.69922C128.559 1.77322 128.853 1.7722 129.293 1.47656C130.276 0.81679 131.371 0.469189 132.539 0.597656C133.129 0.662508 133.723 0.6294 134.32 0.503906C135.735 0.208393 136.97 0.83327 137.93 1.78125C138.5 2.34549 138.853 2.40266 139.02 2.39062C139.424 2.36092 139.909 2.18414 140.484 1.75781C141.067 1.32683 141.774 1.04061 142.57 1.07812C143.356 1.11524 144.025 1.46514 144.574 1.92188C144.619 1.88566 144.688 1.83938 144.762 1.75781C145.663 0.755934 146.828 -0.00693832 148.23 0.09375ZM3.97266 11.8711C3.97219 12.3764 4.08971 12.9176 4.35938 13.4883C4.65299 14.1109 4.77864 14.7908 4.66406 15.4922C4.55168 16.1791 4.22686 16.785 3.80859 17.3086C3.77742 17.3476 3.75206 17.3794 3.73828 17.4023C3.75937 17.44 3.80405 17.5093 3.89062 17.6016C4.82416 18.5976 5.37885 19.8757 4.96875 21.293C4.75383 22.0354 4.54043 22.7771 4.33594 23.5195C4.21959 23.9419 4.23561 24.3618 4.41797 24.8203C4.71166 25.5583 5.01679 26.2969 5.33203 27.0352C5.76729 28.0545 5.88665 29.1239 5.64844 30.1992C5.45849 31.0566 5.1708 31.9049 4.79297 32.7422C4.48454 33.4258 4.24099 34.1096 4.05469 34.7812C3.84442 35.5391 3.62576 36.297 3.39844 37.0547C3.36161 37.1774 3.31325 37.4093 3.72656 37.8867C4.57403 38.8617 5.08761 40.051 4.875 41.3672C4.75393 42.1167 4.63358 42.8677 4.51172 43.6172C4.40803 44.2555 4.37576 44.8927 4.41797 45.5273C4.46887 46.293 4.50969 47.0585 4.53516 47.8242C4.55103 48.3016 4.69545 48.8231 5.01562 49.3945C5.67857 50.5804 5.70051 51.8693 5.0625 53.0742C4.80515 53.5592 4.75672 53.9741 4.82812 54.3516C5.05591 55.5645 4.72216 56.7164 4.03125 57.7266C4.01495 57.7507 4.00393 57.7703 3.99609 57.7852C4.01684 57.8279 4.06598 57.9245 4.20703 58.0664C4.74856 58.6106 5.21605 59.363 5.19141 60.293C5.16602 61.2096 4.67486 61.9358 4.125 62.4609C3.98307 62.5963 3.91917 62.6922 3.89062 62.7422C3.89693 62.7531 3.9039 62.7741 3.91406 62.7891C4.50626 63.6641 4.93571 64.5856 5.15625 65.543C5.48938 66.9992 4.80742 68.2606 3.82031 69.2109C3.56001 69.4623 3.49348 69.6131 3.48047 69.6562V69.6914L4.59375 71.918C5.04588 72.7673 5.38781 73.6362 5.60156 74.5195C5.95982 76.002 5.25164 77.277 4.24219 78.2227C3.64345 78.7836 3.70785 79.0333 3.71484 79.0664C3.90093 79.9475 3.97224 80.8374 3.91406 81.7266C3.86906 82.4165 3.86588 83.111 3.90234 83.8008C3.93158 84.3407 4.07395 84.9075 4.34766 85.5C4.91699 86.737 4.78991 88.0151 4.08984 89.1562C3.76461 89.6847 3.66472 90.1305 3.69141 90.5156C3.73405 91.116 3.86278 91.7308 4.08984 92.3555C4.37502 93.1378 4.63836 93.9263 4.86328 94.7109C5.22866 95.9858 4.90098 97.2049 4.14844 98.25C3.87475 98.6296 3.90102 98.8212 3.98438 99.0117C4.35727 99.8533 4.63991 100.715 4.81641 101.578C5.06042 102.777 4.76249 103.922 4.10156 104.941C3.71767 105.534 3.52998 106.072 3.46875 106.559C3.39823 107.123 3.42159 107.693 3.5625 108.27C3.78627 109.185 3.85047 110.108 3.75 111.035C3.70105 111.486 3.77744 111.964 4.01953 112.488C4.46414 113.447 4.67038 114.459 4.59375 115.488C4.52944 116.35 4.36974 117.206 4.11328 118.055C3.94215 118.62 3.89141 119.176 3.94922 119.719C3.98902 120.086 4.17462 120.561 4.67578 121.148C5.16679 121.723 5.53725 122.468 5.48438 123.34C5.43186 124.194 4.99543 124.895 4.47656 125.426C4.40826 125.496 4.35062 125.54 4.32422 125.578C4.33783 125.6 4.35186 125.634 4.38281 125.672C5.2511 126.725 5.65727 128.023 5.16797 129.387C4.94969 129.996 4.83371 130.587 4.81641 131.168C4.79932 131.747 4.87846 132.337 5.0625 132.938C5.36321 133.92 5.41938 134.925 5.21484 135.926C5.1149 136.415 5.13266 136.903 5.29688 137.414C5.59692 138.346 5.70955 139.303 5.625 140.262C5.54477 141.165 5.32882 142.06 4.98047 142.934C4.69817 143.642 4.45442 144.35 4.24219 145.055C4.08972 145.561 4.07187 146.051 4.18359 146.543C4.3826 147.42 4.45771 148.304 4.41797 149.191C4.39785 149.64 4.50635 150.125 4.79297 150.668C5.13907 151.322 5.27688 152.065 5.10938 152.824C4.94872 153.552 4.53299 154.159 4.04297 154.664C3.98368 154.725 3.95108 154.781 3.92578 154.816C3.94061 154.838 3.95744 154.867 3.98438 154.898C4.46605 155.46 4.82453 156.179 4.81641 157.02C4.80683 157.855 4.43488 158.564 3.94922 159.117C3.91106 159.161 3.88483 159.196 3.86719 159.223C3.88839 159.255 3.91894 159.305 3.97266 159.363C4.89461 160.369 5.42415 161.647 5.00391 163.055C4.73778 163.946 4.33257 164.82 3.80859 165.668C3.55611 166.078 3.5511 166.358 3.64453 166.629C3.88157 167.311 4.18207 167.999 4.53516 168.691C5.04421 169.69 5.24423 170.76 5.07422 171.855C4.92947 172.788 4.61347 173.695 4.14844 174.574C4.00606 174.843 3.9939 175.043 4.18359 175.359C4.89939 176.555 4.94369 177.869 4.26562 179.098C4.07249 179.447 4.08079 179.702 4.21875 180C4.62859 180.886 4.88962 181.799 4.98047 182.73C5.04453 183.386 5.16735 184.046 5.35547 184.711C5.77593 186.194 5.10445 187.496 4.10156 188.461C3.49029 189.05 3.40657 189.424 3.41016 189.598C3.42414 190.268 3.49226 190.94 3.60938 191.613C3.74851 192.412 3.85581 193.215 3.91406 194.016C3.97653 194.874 3.94331 195.738 3.82031 196.594C3.73304 197.204 3.72694 197.812 3.80859 198.422C3.88876 199.018 4.06769 199.632 4.34766 200.262C4.88803 201.477 4.78053 202.733 4.125 203.871C3.77231 204.483 3.56702 205.062 3.48047 205.605C3.40281 206.096 3.44632 206.603 3.63281 207.129C3.88322 207.835 4.17667 208.54 4.5 209.25C4.9717 210.286 5.09 211.384 4.81641 212.484C4.68604 213.008 4.67819 213.524 4.79297 214.043C5.05185 215.204 4.83225 216.34 4.24219 217.371C4.16141 217.513 4.15799 217.581 4.16016 217.605C4.16336 217.639 4.18872 217.761 4.34766 217.969C5.19072 219.074 5.47832 220.397 4.88672 221.73C4.59581 222.383 4.38661 223.035 4.26562 223.664C4.11745 224.434 3.94763 225.203 3.76172 225.973C3.58575 226.701 3.43402 227.437 3.29297 228.164C3.27961 228.235 3.24546 228.496 3.80859 229.043C4.31086 229.53 4.73022 230.116 4.94531 230.801C5.16995 231.516 5.13842 232.247 4.86328 232.934C4.54766 233.719 4.192 234.507 3.80859 235.289C3.79329 235.321 3.78517 235.335 3.78516 235.336C3.80057 235.38 3.88309 235.524 4.14844 235.77C4.72006 236.298 5.24948 237.07 5.21484 238.055C5.18016 239.02 4.6133 239.752 4.03125 240.258C3.84643 240.418 3.76175 240.529 3.72656 240.586C4.32635 241.539 4.67372 242.572 4.64062 243.668C4.60743 244.742 4.23188 245.757 3.62109 246.691C3.28637 247.203 3.21697 247.609 3.25781 247.945C3.33417 248.572 3.48747 249.209 3.72656 249.855C4.14628 250.991 4.064 252.143 3.55078 253.23C3.5785 253.287 3.67112 253.459 3.98438 253.711C4.58634 254.195 5.20756 254.906 5.28516 255.879C5.36457 256.898 4.82264 257.7 4.24219 258.234C3.95466 258.499 3.87885 258.654 3.86719 258.691C3.86645 258.683 3.87138 258.697 3.89062 258.738C4.28293 259.573 4.5762 260.426 4.78125 261.281C5.05283 262.419 4.88065 263.538 4.33594 264.574C4.14189 264.943 4.14368 265.219 4.27734 265.535C4.83117 266.841 4.57143 268.143 3.77344 269.25C3.626 269.454 3.60313 269.582 3.59766 269.637C3.59351 269.681 3.58733 269.768 3.66797 269.918C4.19045 270.892 4.43637 271.932 4.33594 273.012C4.30759 273.315 4.39422 273.716 4.78125 274.242C5.2071 274.823 5.49452 275.527 5.46094 276.316C5.42699 277.099 5.08164 277.78 4.62891 278.332C4.5478 278.431 4.48713 278.507 4.45312 278.566C4.68258 278.854 5.01706 279.146 5.53125 279.398H5.55469C5.58443 279.389 5.74607 279.34 6.01172 279.047C6.92635 278.036 8.13922 277.276 9.58594 277.477C10.5037 277.604 11.406 277.886 12.2812 278.309C12.8296 278.573 13.3322 278.672 13.8047 278.648C14.8638 278.597 15.8833 278.867 16.8398 279.387C16.9782 279.462 17.0477 279.46 17.0742 279.457C17.1174 279.451 17.2413 279.421 17.4492 279.258C18.3022 278.588 19.1909 278.063 20.1211 277.734C21.623 277.204 22.9661 277.853 23.9531 278.871C24.0075 278.927 24.0584 278.96 24.0938 278.988C24.1037 278.98 24.1174 278.975 24.1289 278.965C25.0694 278.136 26.1849 277.593 27.4336 277.641C28.1524 277.668 28.8711 277.669 29.5898 277.652C30.8805 277.623 31.9896 278.264 32.9062 279.164C32.9317 279.139 32.9691 279.117 33 279.082C33.8923 278.061 35.0502 277.264 36.457 277.336C37.7018 277.401 38.7759 278.053 39.6797 278.953C39.6899 278.963 39.7056 278.968 39.7148 278.977C39.7348 278.958 39.7724 278.944 39.7969 278.918C40.7722 277.902 42.0933 277.238 43.5938 277.734C44.0327 277.88 44.453 277.873 44.8945 277.723C46.1866 277.285 47.4377 277.594 48.5039 278.367C49.0874 278.791 49.5935 278.977 50.0273 279.023C50.6583 279.09 51.2936 279.085 51.9258 279C52.9398 278.864 53.9446 278.992 54.9141 279.363C55.1488 279.453 55.3926 279.465 55.793 279.199C56.6259 278.645 57.479 278.201 58.3477 277.875C59.3628 277.494 60.4148 277.408 61.4648 277.652C62.2539 277.836 63.0454 278.059 63.832 278.309C64.6841 278.58 65.5233 278.949 66.3516 279.41C66.9252 279.729 67.451 279.872 67.9336 279.891C68.4966 279.912 69.0672 279.824 69.6562 279.633C70.1323 279.478 70.6953 279.145 71.332 278.531C71.8518 278.03 72.5105 277.619 73.3008 277.512C74.1195 277.401 74.8647 277.648 75.4805 278.074C76.0189 278.447 76.4496 278.548 76.8047 278.531C77.8827 278.481 78.9159 278.775 79.875 279.328C80.0464 279.427 80.1531 279.446 80.2148 279.445C80.2777 279.444 80.4025 279.421 80.5898 279.305C81.3642 278.826 82.1445 278.384 82.9219 277.969C84.042 277.37 85.2524 277.274 86.4375 277.758C87.0338 278.002 87.6163 278.117 88.1719 278.133C89.2382 278.164 90.249 278.521 91.1836 279.117C91.5854 279.374 91.8436 279.376 92.0977 279.281C93.2833 278.837 94.4866 278.953 95.5898 279.551C95.7321 279.628 95.803 279.625 95.8359 279.621C95.8797 279.616 96.002 279.592 96.2109 279.434C97.2556 278.638 98.5024 278.275 99.8086 278.672C100.256 278.808 100.69 278.811 101.145 278.66C101.963 278.387 102.79 278.171 103.617 278.027C104.787 277.825 105.913 278.115 106.922 278.742C107.495 279.097 108.01 279.254 108.469 279.281C108.809 279.301 109.226 279.197 109.758 278.824C110.607 278.228 111.49 277.772 112.395 277.465C113.73 277.012 114.997 277.383 116.051 278.215C116.234 278.36 116.309 278.345 116.285 278.344C116.309 278.338 116.37 278.314 116.473 278.238C117.108 277.765 117.92 277.483 118.805 277.664C119.627 277.833 120.274 278.355 120.762 278.918C121.047 279.247 121.265 279.396 121.395 279.457C121.498 279.506 121.542 279.498 121.57 279.492C122.396 279.321 123.224 279.213 124.055 279.176C124.354 279.162 124.787 279.018 125.367 278.496C126.324 277.635 127.491 277.087 128.801 277.242C129.744 277.355 130.666 277.658 131.555 278.109C131.959 278.314 132.284 278.322 132.621 278.203C133.573 277.865 134.552 277.742 135.539 277.852C136.141 277.919 136.749 277.894 137.355 277.781C138.476 277.574 139.566 277.782 140.578 278.32C141.287 278.698 141.996 279.033 142.699 279.328C143.274 279.569 143.826 279.676 144.352 279.668C144.601 279.664 145.012 279.554 145.594 279C146.515 278.122 147.613 277.513 148.875 277.512C150.195 277.511 151.313 278.209 152.215 279.164C152.237 279.188 152.266 279.205 152.285 279.223L152.32 279.211C152.819 278.717 153.421 278.298 154.137 278.121C154.886 277.936 155.629 278.049 156.293 278.379C157.059 278.759 157.825 279.16 158.59 279.574C158.713 279.641 158.766 279.623 158.777 279.621C158.817 279.614 158.94 279.579 159.152 279.398C159.696 278.937 160.365 278.585 161.145 278.531C161.938 278.477 162.651 278.754 163.242 279.176C163.664 279.477 163.911 279.461 164.121 279.387C165.256 278.982 166.416 279.046 167.508 279.551C167.947 279.753 168.324 279.78 168.703 279.668C169.434 279.452 170.163 279.212 170.895 278.965C171.632 278.715 172.371 278.459 173.109 278.191C174.396 277.724 175.661 277.991 176.742 278.754C177.116 279.018 177.303 278.986 177.504 278.895C178.294 278.534 179.088 278.22 179.883 277.945C181.094 277.526 182.3 277.71 183.387 278.355C184.066 278.76 184.743 279.078 185.402 279.328C185.945 279.534 186.461 279.603 186.961 279.551C187.447 279.499 187.989 279.322 188.578 278.953C189.418 278.427 190.278 278.009 191.156 277.723C192.278 277.358 193.422 277.437 194.496 277.922C195.168 278.225 195.833 278.463 196.488 278.625C196.985 278.747 197.474 278.739 197.977 278.602C198.926 278.341 199.894 278.275 200.859 278.426C201.641 278.548 202.423 278.697 203.203 278.871C203.526 278.943 203.883 278.905 204.352 278.625C205.203 278.115 206.081 277.733 206.977 277.488C207.835 277.254 208.707 277.118 209.578 277.09C211.049 277.043 212.203 277.987 213.059 279.094C213.7 279.924 214.036 279.903 214.043 279.902C214.205 279.892 214.603 279.774 215.227 279.035C215.719 278.452 216.419 277.896 217.336 277.793C218.303 277.686 219.1 278.126 219.668 278.672C219.924 278.918 220.101 279.005 220.195 279.035C220.266 279.057 220.318 279.061 220.395 279.035C221.276 278.738 222.173 278.57 223.078 278.543C224.138 278.511 225.161 278.795 226.113 279.328C226.666 279.637 227.153 279.757 227.602 279.75C228.072 279.743 228.583 279.617 229.148 279.305C230.184 278.732 231.311 278.531 232.465 278.801C232.611 278.835 232.887 278.842 233.391 278.402C233.905 277.954 234.519 277.601 235.219 277.465C235.94 277.326 236.644 277.437 237.281 277.746C237.857 278.025 238.39 278.16 238.898 278.168C240.026 278.186 241.076 278.605 242.016 279.293C242.088 279.345 242.134 279.367 242.156 279.375C242.185 279.365 242.27 279.336 242.402 279.223C243.28 278.47 244.234 277.911 245.262 277.652C246.516 277.338 247.71 277.671 248.742 278.402C249.293 278.793 249.746 278.922 250.113 278.918C250.672 278.911 251.243 278.792 251.836 278.566C253.159 278.062 254.449 278.382 255.527 279.199C256.063 279.606 256.467 279.701 256.77 279.68C256.998 279.664 257.414 279.513 258.023 278.859C258.526 278.32 259.187 277.848 260.004 277.711C260.865 277.567 261.643 277.839 262.266 278.297C262.957 278.805 263.635 279.233 264.305 279.574C264.759 279.805 265.136 279.83 265.5 279.738C266.227 279.553 266.963 279.35 267.691 279.129C268.775 278.801 269.872 278.865 270.926 279.281C271.017 279.318 271.185 279.39 271.629 279C272.541 278.197 273.586 277.645 274.746 277.547C275.541 277.48 276.341 277.456 277.137 277.465C278.12 277.476 279.085 277.704 280.008 278.133C280.668 278.439 281.315 278.668 281.953 278.812C282.717 278.985 283.486 279.168 284.25 279.363C284.686 279.474 285.117 279.447 285.586 279.27C286.414 278.954 287.253 278.713 288.094 278.555C288.724 278.436 289.374 278.244 290.027 277.957C290.936 277.559 291.87 277.328 292.828 277.301C293.619 277.279 294.417 277.294 295.207 277.336C295.89 277.372 296.574 277.363 297.258 277.312C298.721 277.203 299.907 278.063 300.785 279.129C301.073 279.478 301.275 279.613 301.371 279.656C301.398 279.668 301.412 279.678 301.418 279.68L301.43 279.668C302.419 279.364 303.435 279.323 304.441 279.539C304.621 279.577 304.915 279.569 305.414 279.152C306.354 278.368 307.444 277.859 308.648 277.875C309.53 277.887 310.406 278.023 311.273 278.262C311.988 278.458 312.677 278.763 313.359 279.141C313.502 278.711 313.64 278.259 313.828 277.805C313.977 277.443 313.976 277.117 313.805 276.738C313.4 275.842 313.153 274.916 313.09 273.973C312.996 272.555 313.79 271.386 314.812 270.492C314.826 270.481 314.836 270.468 314.848 270.457C314.306 269.947 313.824 269.267 313.734 268.406C313.642 267.501 314.014 266.729 314.52 266.145C315.002 265.587 315.091 265.19 315.082 264.926C315.058 264.228 315.003 263.527 314.906 262.828C314.801 262.064 314.707 261.296 314.625 260.531C314.504 259.389 314.825 258.303 315.445 257.32C315.72 256.883 315.726 256.578 315.645 256.301C315.395 255.452 315.238 254.595 315.176 253.734C315.114 252.864 315.159 251.987 315.305 251.121C315.344 250.877 315.302 250.533 314.918 250.031C314.463 249.435 314.155 248.693 314.238 247.852C314.319 247.033 314.75 246.362 315.258 245.836C315.447 245.64 315.473 245.521 315.48 245.496C315.474 245.48 315.467 245.449 315.445 245.414C314.891 244.52 314.516 243.581 314.367 242.602C314.263 241.913 314.115 241.22 313.922 240.527C313.625 239.463 313.686 238.389 314.074 237.352C314.363 236.582 314.674 235.812 315 235.043C315.095 234.819 315.107 234.595 314.848 234.211C314.213 233.269 313.839 232.239 313.828 231.141C313.821 230.389 313.809 229.631 313.805 228.879C313.799 227.678 314.307 226.593 315.094 225.656C315.283 225.43 315.322 225.297 315.328 225.258C315.332 225.234 315.329 225.185 315.27 225.07C314.839 224.242 314.501 223.4 314.25 222.551C313.984 221.653 313.867 220.738 313.898 219.82C313.922 219.131 313.898 218.436 313.84 217.746C313.772 216.935 313.759 216.12 313.793 215.309C313.836 214.292 314.14 213.315 314.66 212.391C315.007 211.774 315.213 211.188 315.305 210.633C315.424 209.906 315.524 209.179 315.609 208.453C315.641 208.187 315.58 207.816 315.176 207.293C314.753 206.746 314.444 206.096 314.391 205.359C314.337 204.611 314.566 203.916 314.941 203.32C315.315 202.726 315.506 202.18 315.574 201.68C315.594 201.533 315.584 201.21 315.059 200.66C314.561 200.139 314.151 199.483 314.051 198.691C313.948 197.87 314.206 197.123 314.637 196.512C315.011 195.979 315.103 195.56 315.082 195.223C315.056 194.812 314.897 194.32 314.484 193.746C314.039 193.126 313.766 192.364 313.898 191.52C314.026 190.714 314.487 190.058 315.012 189.551C315.63 188.955 315.746 188.55 315.75 188.344C315.761 187.785 315.666 187.211 315.457 186.621C315.18 185.839 314.934 185.05 314.719 184.266C314.474 183.369 314.367 182.46 314.414 181.547C314.438 181.068 314.344 180.562 314.086 180.012C313.623 179.025 313.434 177.982 313.582 176.918C313.657 176.377 313.629 175.834 313.477 175.277C313.224 174.36 313.134 173.423 313.219 172.488C313.287 171.735 313.355 170.98 313.43 170.227C313.5 169.519 313.537 168.812 313.547 168.105C313.565 166.822 314.233 165.72 315.152 164.812C315.194 164.771 315.222 164.725 315.246 164.695C315.235 164.682 315.226 164.664 315.211 164.648C314.38 163.751 313.777 162.721 313.617 161.578C313.434 160.254 313.989 159.08 314.859 158.121C314.997 157.969 315.036 157.871 315.047 157.84C315.039 157.82 315.027 157.778 314.988 157.723C314.404 156.874 313.951 156 313.652 155.098C313.313 154.073 313.275 153.02 313.559 151.98C313.722 151.382 313.79 150.793 313.758 150.211C313.694 149.062 314.076 147.987 314.742 147.023C314.781 146.967 314.783 146.923 314.789 146.906C314.77 146.864 314.723 146.779 314.602 146.648C314.08 146.088 313.664 145.332 313.711 144.422C313.757 143.532 314.236 142.825 314.777 142.301L314.789 142.277C314.775 142.263 314.76 142.247 314.742 142.23C313.74 141.304 313.006 140.074 313.254 138.621C313.436 137.557 313.954 136.577 314.684 135.68C315.034 135.248 314.982 135.046 314.93 134.906C314.498 133.756 314.572 132.574 315.105 131.473C315.332 131.006 315.371 130.605 315.281 130.219C315.151 129.662 314.903 129.065 314.496 128.438C314.139 127.886 313.891 127.266 313.852 126.586C313.812 125.902 313.985 125.249 314.297 124.664C314.565 124.159 314.631 123.727 314.578 123.328C314.501 122.749 314.326 122.145 314.027 121.523C313.607 120.648 313.324 119.745 313.195 118.828C312.991 117.36 313.791 116.146 314.824 115.242C314.868 115.203 314.889 115.155 314.918 115.125C314.097 114.244 313.507 113.251 313.301 112.148C313.016 110.626 313.853 109.381 314.918 108.48C314.979 108.429 315.011 108.365 315.047 108.328C314.208 107.388 313.665 106.258 313.793 104.977C313.852 104.383 313.826 103.785 313.699 103.184C313.42 101.859 313.891 100.652 314.73 99.6562C315.258 99.0304 315.561 98.4671 315.703 97.9688C315.845 97.4706 315.851 96.9841 315.727 96.4922C315.621 96.0742 315.33 95.5473 314.719 94.9219C313.819 94.0013 313.189 92.8843 313.219 91.5938C313.236 90.8843 313.222 90.1705 313.184 89.4609C313.107 88.0429 313.921 86.8801 314.953 85.9922C315.147 85.8259 315.222 85.6984 315.258 85.6406C314.726 84.7799 314.336 83.8902 314.121 82.9688C313.861 81.8556 314.019 80.7547 314.52 79.7227C314.873 78.9932 315.203 78.2594 315.516 77.5312C315.748 76.9879 315.834 76.4817 315.797 75.9961C315.773 75.687 315.604 75.2376 315.059 74.6484C314.575 74.1268 314.185 73.4794 314.074 72.7148C313.96 71.9248 314.17 71.1924 314.566 70.5703C314.838 70.1439 314.85 69.8519 314.766 69.5859C314.405 68.4608 314.484 67.3188 314.977 66.2461C315.143 65.8826 315.144 65.5806 314.988 65.2266C314.589 64.316 314.368 63.3746 314.344 62.4141C314.318 61.3812 314.581 60.3832 315.07 59.4375C315.096 59.3877 315.103 59.3561 315.105 59.3438V59.3203C315.099 59.2921 315.053 59.1517 314.824 58.9102C313.967 58.0052 313.36 56.9504 313.254 55.7578C313.128 54.3412 313.888 53.1589 314.895 52.2539C315.199 51.9799 315.309 51.7967 315.34 51.7148C315.349 51.6903 315.351 51.6748 315.352 51.668C315.352 51.6671 315.35 51.6506 315.34 51.6211C315.147 51.0688 314.808 50.4699 314.285 49.8281C313.795 49.2279 313.452 48.4461 313.57 47.5547C313.685 46.7059 314.183 46.0324 314.73 45.5273C315.007 45.2728 315.071 45.1156 315.082 45.082C315.079 45.0742 315.078 45.0615 315.07 45.0469C314.695 44.2968 314.309 43.547 313.934 42.7969C313.577 42.084 313.512 41.2913 313.781 40.5117C314.032 39.7878 314.531 39.2028 315.094 38.7305C315.167 38.669 315.206 38.5973 315.246 38.5547C314.795 38.0212 314.44 37.3677 314.391 36.5977C314.339 35.7877 314.632 35.0648 315.07 34.4766C315.438 33.9814 315.468 33.6471 315.422 33.3984C315.254 32.4965 315.234 31.5858 315.352 30.6797C315.418 30.1618 315.366 29.6321 315.188 29.0859C314.869 28.1102 314.795 27.1108 314.977 26.1094C315.07 25.5977 315.041 25.0809 314.883 24.5508C314.552 23.4369 314.649 22.3163 315.129 21.2578C315.394 20.6748 315.516 20.1211 315.527 19.5938C315.535 19.2082 315.421 18.7566 315.059 18.2109C314.364 17.1669 314.085 15.9754 314.414 14.7422C314.548 14.2401 314.554 13.742 314.426 13.2422C314.169 12.2356 314.176 11.2195 314.461 10.2188C314.611 9.69162 314.632 9.17285 314.531 8.66016C314.307 7.51174 314.547 6.397 315.129 5.37891C315.279 5.11615 315.303 4.89499 315.094 4.51172C315.041 4.41465 314.994 4.35854 314.965 4.32422C314.085 4.54519 313.198 4.63792 312.305 4.59375C311.469 4.55197 310.627 4.43798 309.797 4.25391C309.554 4.20094 309.232 4.2222 308.754 4.57031C307.71 5.32937 306.494 5.66044 305.215 5.29688C304.504 5.09479 303.791 4.93418 303.082 4.79297C302.355 4.64825 301.629 4.51682 300.902 4.40625C300.396 4.32913 299.879 4.36994 299.344 4.54688C298.44 4.84532 297.52 4.98142 296.59 4.95703C295.921 4.93905 295.245 4.9753 294.574 5.0625C293.375 5.21892 292.246 4.8578 291.258 4.16016C291.051 4.01439 290.92 3.9782 290.859 3.97266C290.806 3.96851 290.714 3.97744 290.566 4.05469C289.713 4.501 288.841 4.82694 287.953 5.02734C286.66 5.31874 285.461 4.91733 284.449 4.125C284.352 4.04846 284.279 4.01271 284.238 3.99609C284.221 3.98927 284.21 3.98609 284.203 3.98438L284.191 3.97266L284.168 3.98438C284.14 3.99367 284.078 4.01804 283.992 4.07812C283.419 4.48273 282.742 4.75266 281.988 4.74609C281.235 4.73891 280.563 4.4543 279.996 4.04297C279.609 3.76267 279.413 3.79577 279.223 3.87891C278.494 4.19771 277.761 4.5395 277.031 4.89844C275.95 5.42916 274.791 5.54073 273.645 5.15625C272.694 4.8373 271.795 4.30265 270.938 3.60938C270.719 3.43296 270.585 3.39373 270.539 3.38672C270.511 3.38264 270.446 3.3778 270.316 3.44531C269.476 3.8832 268.618 4.22622 267.75 4.45312C266.922 4.66933 266.089 4.81548 265.254 4.88672C264.141 4.98151 263.077 4.67515 262.102 4.08984C261.917 3.97986 261.796 3.96197 261.727 3.96094C261.658 3.96009 261.54 3.97726 261.363 4.07812C260.536 4.54991 259.696 4.93336 258.844 5.21484C257.873 5.53539 256.877 5.61802 255.879 5.44922C255.016 5.30253 254.156 5.05521 253.312 4.71094C253.079 4.61562 252.844 4.59618 252.457 4.85156C251.902 5.21961 251.265 5.46453 250.57 5.49609C249.87 5.52699 249.208 5.339 248.625 5.00391C248.081 4.69182 247.601 4.57908 247.172 4.59375C246.32 4.62257 245.465 4.56377 244.617 4.41797C243.852 4.2863 243.085 4.14461 242.32 3.98438C241.579 3.82917 240.835 3.68147 240.094 3.53906C239.674 3.45834 239.236 3.49338 238.746 3.71484C237.788 4.14982 236.784 4.34726 235.758 4.26562C235.067 4.21045 234.374 4.19438 233.684 4.21875C232.906 4.24643 232.118 4.25753 231.34 4.24219C230.682 4.22955 230.02 4.27682 229.359 4.38281C228.354 4.54356 227.355 4.44232 226.383 4.10156C226.195 4.03567 225.959 4.01288 225.527 4.33594C224.923 4.7889 224.167 5.07808 223.324 4.98047C222.512 4.88542 221.841 4.46009 221.32 3.94922C221.258 3.88832 221.204 3.85739 221.168 3.83203C221.151 3.84483 221.131 3.85997 221.109 3.87891C220.559 4.35836 219.866 4.73268 219.047 4.75781C218.219 4.78269 217.498 4.44847 216.926 3.98438L216.727 3.85547C216.701 3.86565 216.642 3.90127 216.551 3.97266C215.974 4.42531 215.259 4.74428 214.441 4.71094C213.63 4.67632 212.938 4.29785 212.391 3.82031C212.162 3.62123 212.024 3.59145 211.992 3.58594C211.98 3.58416 211.97 3.5841 211.957 3.58594C211.939 3.58922 211.893 3.59895 211.828 3.63281C210.82 4.16623 209.732 4.37876 208.617 4.18359C207.767 4.03467 206.921 3.80058 206.086 3.48047C205.891 3.40589 205.666 3.37941 205.254 3.67969C204.696 4.0847 204.043 4.36668 203.309 4.39453C202.568 4.42184 201.887 4.18908 201.305 3.80859C200.811 3.48552 200.434 3.42773 200.121 3.48047C199.178 3.63913 198.233 3.61087 197.297 3.39844C196.662 3.25395 196.025 3.18834 195.398 3.19922C195.144 3.2044 194.735 3.33078 194.156 3.87891C193.232 4.75271 192.117 5.34694 190.852 5.33203C190.227 5.32515 189.599 5.39521 188.965 5.54297C187.84 5.80529 186.729 5.64404 185.695 5.12109C185.142 4.84126 184.641 4.73108 184.172 4.74609C183.449 4.76921 182.727 4.81292 182.004 4.875C180.968 4.96397 179.956 4.75972 178.992 4.3125C178.439 4.05599 177.93 3.96242 177.445 3.98438C176.852 4.01156 176.247 4.12898 175.629 4.34766C174.601 4.71138 173.538 4.75776 172.488 4.47656C172.207 4.40101 171.886 4.42198 171.434 4.71094C170.801 5.1152 170.047 5.31794 169.242 5.17969C168.473 5.04624 167.831 4.62731 167.32 4.125C167.22 4.02664 167.151 3.97355 167.109 3.94922C167.09 3.96059 167.069 3.98457 167.039 4.00781C166.156 4.68511 165.206 5.16286 164.203 5.39062C163.127 5.63423 162.06 5.52082 161.039 5.08594C160.261 4.75442 159.482 4.39696 158.707 4.00781C158.353 3.83014 158.073 3.82646 157.746 3.97266C156.492 4.53839 155.202 4.38063 154.066 3.65625C153.735 3.44582 153.547 3.46355 153.305 3.58594C152.128 4.18216 150.871 4.18349 149.695 3.58594C149.103 3.28503 148.547 3.13275 148.02 3.09375C147.924 3.08682 147.585 3.09865 146.988 3.76172C146.488 4.31765 145.818 4.82488 144.961 4.94531C144.053 5.07059 143.263 4.71946 142.664 4.21875C142.536 4.11174 142.457 4.0863 142.43 4.07812C142.409 4.08541 142.352 4.10805 142.266 4.17188C141.343 4.85543 140.325 5.29977 139.23 5.37891C137.898 5.47421 136.749 4.83212 135.82 3.91406C135.282 3.38205 135.013 3.42778 134.93 3.44531C134.028 3.6343 133.12 3.6742 132.211 3.57422C131.879 3.53785 131.473 3.61408 130.957 3.96094C129.9 4.6706 128.689 4.94276 127.441 4.57031C126.647 4.33287 125.853 4.0581 125.062 3.73828C124.508 3.51384 123.986 3.43391 123.48 3.46875C123.181 3.48955 122.734 3.64444 122.145 4.19531C121.16 5.1138 119.909 5.67552 118.512 5.33203C117.737 5.14153 116.965 4.92197 116.191 4.6875C115.907 4.60139 115.595 4.61802 115.16 4.88672C114.502 5.2926 113.726 5.47441 112.91 5.28516C112.141 5.10637 111.517 4.63572 111.023 4.10156C110.745 3.80149 110.537 3.67321 110.414 3.62109C110.313 3.57831 110.262 3.58672 110.215 3.59766C109.502 3.76347 108.786 3.95059 108.07 4.17188C106.913 4.5301 105.754 4.38808 104.684 3.83203C104.284 3.62516 103.969 3.61977 103.641 3.73828C103 3.9712 102.341 4.29267 101.672 4.71094C100.682 5.33015 99.5858 5.63851 98.4375 5.49609C97.2432 5.34709 96.2077 4.68448 95.3203 3.78516C95.2998 3.80663 95.2855 3.83959 95.2617 3.86719C94.3854 4.886 93.2881 5.6822 91.957 5.75391C91.0021 5.80473 90.0555 5.6647 89.1328 5.34375C88.4644 5.11111 87.7971 4.94174 87.1406 4.83984C86.1831 4.69061 85.2618 4.33705 84.375 3.82031C84.2313 3.73649 84.165 3.7487 84.1523 3.75C84.1258 3.75284 84.0097 3.77282 83.8008 3.9375C82.9449 4.61184 82.0438 5.12796 81.1055 5.44922C79.854 5.87606 78.6204 5.6341 77.543 4.92188C77.3636 4.80412 77.2645 4.79384 77.2266 4.79297C77.1913 4.79238 77.096 4.80087 76.9219 4.91016C76.316 5.28982 75.6094 5.5049 74.8477 5.42578C74.0999 5.34662 73.4497 4.99584 72.9141 4.54688C72.8582 4.49997 72.8132 4.46929 72.7852 4.45312C72.7513 4.47264 72.6938 4.50544 72.6211 4.57031C72.0849 5.04947 71.4208 5.44008 70.6289 5.50781C69.8187 5.57676 69.0928 5.29495 68.4961 4.86328C67.8745 4.4136 67.2973 4.15589 66.7734 4.03125C66.6845 4.01044 66.4367 3.96529 65.918 4.46484C65.369 4.99376 64.6248 5.43625 63.7148 5.41406C62.8146 5.39101 62.0899 4.92107 61.5586 4.38281C60.99 3.80585 60.6645 3.78299 60.5391 3.79688C60.0442 3.85177 59.5024 4.04081 58.9102 4.40625C57.7753 5.10556 56.5049 5.2409 55.2656 4.6875C54.6465 4.41061 54.0412 4.24562 53.4609 4.18359C52.6793 4.09993 51.8979 3.99226 51.1172 3.85547C50.7744 3.7954 50.3855 3.84703 49.8984 4.13672C49.2841 4.50363 48.5683 4.69806 47.8125 4.60547C47.0782 4.51421 46.4441 4.17202 45.9141 3.72656C45.8799 3.69775 45.8419 3.68232 45.8203 3.66797C45.7831 3.69439 45.7309 3.73534 45.668 3.79688C44.799 4.6464 43.8446 5.29063 42.7852 5.58984C41.8284 5.85935 40.8519 5.91548 39.8789 5.75391C39.1029 5.62503 38.3221 5.47974 37.5469 5.30859C36.6938 5.11996 35.8495 4.83655 35.0156 4.46484C34.6013 4.28005 34.2432 4.26355 33.8672 4.39453C33.1326 4.65042 32.3991 4.92242 31.6641 5.20312C30.3672 5.69845 29.0841 5.42033 27.9961 4.64062C27.3416 4.17228 26.7132 3.83191 26.1094 3.60938C25.5907 3.41832 25.1009 3.37859 24.6211 3.45703C24.0459 3.5516 23.4406 3.75126 22.8164 4.07812C21.8746 4.57079 20.8814 4.84392 19.8516 4.82812C18.9604 4.81442 18.0772 4.66563 17.2031 4.40625C16.8848 4.31163 16.5484 4.33623 16.1133 4.58203C15.4717 4.94415 14.7366 5.1039 13.9688 4.95703C13.229 4.81512 12.6053 4.41106 12.0938 3.92578C12.0759 3.90885 12.0616 3.89151 12.0469 3.87891C12.0199 3.90182 11.9903 3.9346 11.9531 3.97266C11.4182 4.52212 10.6723 5.01153 9.73828 5.00391C8.80951 4.9959 8.07582 4.50039 7.54688 3.94922C6.95661 3.33271 6.56624 3.23639 6.375 3.23438C6.07557 3.23349 5.75645 3.29414 5.41406 3.42188C5.49426 3.66263 5.5497 3.92003 5.54297 4.19531C5.52566 4.87555 5.22087 5.48226 4.91016 5.95312C4.7833 6.1464 4.76112 6.26778 4.75781 6.32812C4.75489 6.38356 4.7625 6.48244 4.85156 6.64453C5.18614 7.24801 5.36798 7.9296 5.29688 8.64844C5.22689 9.35505 4.92904 9.98322 4.52344 10.5234C4.10681 11.0773 3.97425 11.5209 3.97266 11.8711Z" fill="#5497FF"/>
</svg>
