<svg width="18" height="32" viewBox="0 0 18 32" fill="none" xmlns="http://www.w3.org/2000/svg">
<path d="M4.11165 16.0002L16.945 28.8335C17.2875 29.176 17.4564 29.5927 17.4517 30.0835C17.4472 30.5744 17.2736 31.0003 16.9308 31.3615C16.5697 31.7226 16.1439 31.9031 15.6533 31.9031C15.1625 31.9031 14.7365 31.7226 14.3754 31.3615L0.958737 17.9585C0.680959 17.6808 0.477209 17.3706 0.347487 17.0281C0.218043 16.6853 0.15332 16.3427 0.15332 16.0002C0.15332 15.6577 0.218043 15.3151 0.347487 14.9723C0.477209 14.6298 0.680959 14.3196 0.958737 14.0419L14.4033 0.597289C14.7644 0.236177 15.188 0.0625663 15.6742 0.0764552C16.1603 0.0903441 16.5839 0.277844 16.945 0.638955C17.2875 1.00007 17.4633 1.42145 17.4725 1.90312C17.4819 2.38451 17.3061 2.80576 16.945 3.16687L4.11165 16.0002Z" fill="#2F2A1E"/>
</svg>
