<svg width="17" height="18" viewBox="0 0 17 18" fill="none" xmlns="http://www.w3.org/2000/svg">
<path d="M13.5316 14.4656H3.46914C3.20227 14.4656 2.94632 14.352 2.75761 14.1498C2.56891 13.9476 2.46289 13.6734 2.46289 13.3875V5.84058C2.46289 5.55464 2.56891 5.28041 2.75761 5.07823C2.94632 4.87604 3.20227 4.76245 3.46914 4.76245H5.48127L6.48752 3.14526H10.5125L11.5188 4.76245H13.5316C13.7985 4.76245 14.0545 4.87604 14.2432 5.07823C14.4319 5.28041 14.5379 5.55464 14.5379 5.84058V13.3875C14.5379 13.6734 14.4319 13.9476 14.2432 14.1498C14.0545 14.352 13.7985 14.4656 13.5316 14.4656Z" stroke="#3C3C3C" stroke-linecap="round" stroke-linejoin="round"/>
<path d="M8.50039 11.7703C9.7508 11.7703 10.7645 10.6842 10.7645 9.34448C10.7645 8.00476 9.7508 6.9187 8.50039 6.9187C7.24998 6.9187 6.23633 8.00476 6.23633 9.34448C6.23633 10.6842 7.24998 11.7703 8.50039 11.7703Z" stroke="#3C3C3C" stroke-linecap="round" stroke-linejoin="round"/>
</svg>
