<svg width="32" height="26" viewBox="0 0 32 26" fill="none" xmlns="http://www.w3.org/2000/svg">
<path d="M6.51816 0C4.79002 0.00187659 3.13319 0.687174 1.9112 1.90553C0.689219 3.12389 0.00188217 4.7758 0 6.49882V19.4964C0 23.0791 2.92369 25.9953 6.51816 25.9953C10.1126 25.9953 13.0363 23.0791 13.0363 19.4964V13.475L20.2122 23.3201C20.8174 24.1514 21.6117 24.8278 22.5299 25.2936C23.4481 25.7595 24.4641 26.0016 25.4943 26C26.8681 26.0004 28.2067 25.5664 29.3175 24.7605V24.7581C30.714 23.7435 31.6499 22.2181 31.9199 20.5164C32.1898 18.8148 31.7718 17.0758 30.7574 15.6811L23.0956 5.16479C22.0784 3.77223 20.5486 2.83894 18.842 2.56979C17.1354 2.30063 15.3913 2.71758 13.9927 3.72914C13.5544 4.04942 13.1582 4.42337 12.8135 4.84221C12.0764 2.06071 9.53904 0 6.51816 0ZM6.51816 2.36321C8.80545 2.36321 10.6661 4.21832 10.6661 6.49882V11.816H2.37024V6.49882C2.37024 4.21832 4.23088 2.36321 6.51816 2.36321ZM17.8183 4.85048C18.4737 4.84955 19.12 5.00348 19.7042 5.29965C20.2884 5.59582 20.7939 6.0258 21.1793 6.55435L24.3139 10.8542L17.6038 15.7189L14.4668 11.4178C13.821 10.5299 13.5551 9.42269 13.7273 8.33939C13.8995 7.25609 14.4958 6.28518 15.3852 5.63979C16.12 5.10807 16.9733 4.85048 17.8183 4.85048ZM25.7065 12.7649L28.8435 17.0683C29.4882 17.9567 29.7534 19.0637 29.581 20.1467C29.4086 21.2297 28.8127 22.2005 27.9238 22.8463C27.0336 23.4898 25.9237 23.7549 24.8377 23.5835C23.7516 23.412 22.7782 22.818 22.1309 21.9317L18.9963 17.6295L25.7065 12.7649ZM2.37024 14.1792H10.6661V19.4964C10.6661 21.7769 8.80545 23.6321 6.51816 23.6321C4.23088 23.6321 2.37024 21.7769 2.37024 19.4964V14.1792Z" fill="#5497FF"/>
</svg>
