<svg width="34" height="34" viewBox="0 0 34 34" fill="none" xmlns="http://www.w3.org/2000/svg">
<path d="M17 23.9062C19.934 23.9062 22.3125 21.5278 22.3125 18.5938C22.3125 15.6597 19.934 13.2812 17 13.2812C14.066 13.2812 11.6875 15.6597 11.6875 18.5938C11.6875 21.5278 14.066 23.9062 17 23.9062Z" stroke="#3C3C3C" stroke-width="2" stroke-linecap="round" stroke-linejoin="round"/>
<path d="M26.0312 15.4063C27.2685 15.4052 28.4889 15.6927 29.5956 16.246C30.7023 16.7992 31.6647 17.6029 32.4064 18.5932" stroke="#3C3C3C" stroke-width="2" stroke-linecap="round" stroke-linejoin="round"/>
<path d="M1.59375 18.5935C2.33543 17.6031 3.29787 16.7993 4.40459 16.2461C5.51131 15.6928 6.73181 15.4052 7.96913 15.4063" stroke="#3C3C3C" stroke-width="2" stroke-linecap="round" stroke-linejoin="round"/>
<path d="M9.35449 28.6874C10.0524 27.2538 11.1394 26.0454 12.4913 25.1999C13.8431 24.3545 15.4055 23.9063 16.9999 23.9063C18.5944 23.9062 20.1567 24.3545 21.5086 25.1999C22.8604 26.0453 23.9474 27.2538 24.6454 28.6873" stroke="#3C3C3C" stroke-width="2" stroke-linecap="round" stroke-linejoin="round"/>
<path d="M7.96894 15.4062C7.16255 15.4061 6.37285 15.1765 5.69204 14.7444C5.01124 14.3122 4.46743 13.6953 4.12412 12.9656C3.78082 12.236 3.65218 11.4237 3.75323 10.6237C3.85428 9.82363 4.18085 9.06886 4.69481 8.44748C5.20877 7.82611 5.8889 7.36377 6.65578 7.11446C7.42266 6.86516 8.24464 6.83917 9.02574 7.03953C9.80684 7.2399 10.5148 7.65835 11.067 8.24602C11.6192 8.83369 11.9928 9.56632 12.1442 10.3584" stroke="#3C3C3C" stroke-width="2" stroke-linecap="round" stroke-linejoin="round"/>
<path d="M21.8564 10.3587C22.0078 9.5665 22.3813 8.83373 22.9335 8.24593C23.4857 7.65813 24.1938 7.23957 24.975 7.03913C25.7562 6.83868 26.5782 6.86463 27.3452 7.11395C28.1122 7.36326 28.7925 7.82564 29.3065 8.4471C29.8205 9.06855 30.1471 9.82343 30.2482 10.6236C30.3492 11.4237 30.2206 12.2361 29.8772 12.9658C29.5338 13.6956 28.9899 14.3125 28.3089 14.7447C27.628 15.1769 26.8382 15.4064 26.0317 15.4065" stroke="#3C3C3C" stroke-width="2" stroke-linecap="round" stroke-linejoin="round"/>
</svg>
