<svg width="34" height="34" viewBox="0 0 34 34" fill="none" xmlns="http://www.w3.org/2000/svg">
<path d="M17 23.9062C19.934 23.9062 22.3125 21.5278 22.3125 18.5938C22.3125 15.6597 19.934 13.2812 17 13.2812C14.066 13.2812 11.6875 15.6597 11.6875 18.5938C11.6875 21.5278 14.066 23.9062 17 23.9062Z" stroke="#5497FF" stroke-width="2" stroke-linecap="round" stroke-linejoin="round"/>
<path d="M26.0312 15.4063C27.2685 15.4052 28.4889 15.6927 29.5956 16.246C30.7023 16.7992 31.6647 17.6029 32.4064 18.5932" stroke="#5497FF" stroke-width="2" stroke-linecap="round" stroke-linejoin="round"/>
<path d="M1.59326 18.5935C2.33494 17.6031 3.29738 16.7993 4.4041 16.2461C5.51082 15.6928 6.73132 15.4052 7.96864 15.4063" stroke="#5497FF" stroke-width="2" stroke-linecap="round" stroke-linejoin="round"/>
<path d="M9.35449 28.6874C10.0524 27.2538 11.1394 26.0454 12.4913 25.1999C13.8431 24.3545 15.4055 23.9063 16.9999 23.9063C18.5944 23.9062 20.1567 24.3545 21.5086 25.1999C22.8604 26.0453 23.9474 27.2538 24.6454 28.6873" stroke="#5497FF" stroke-width="2" stroke-linecap="round" stroke-linejoin="round"/>
<path d="M7.96869 15.4062C7.1623 15.4061 6.3726 15.1765 5.6918 14.7444C5.01099 14.3122 4.46719 13.6953 4.12388 12.9656C3.78057 12.236 3.65194 11.4237 3.75299 10.6237C3.85404 9.82363 4.18061 9.06886 4.69457 8.44748C5.20852 7.82611 5.88865 7.36377 6.65553 7.11446C7.42241 6.86516 8.2444 6.83917 9.02549 7.03953C9.80659 7.2399 10.5146 7.65835 11.0667 8.24602C11.6189 8.83369 11.9925 9.56632 12.1439 10.3584" stroke="#5497FF" stroke-width="2" stroke-linecap="round" stroke-linejoin="round"/>
<path d="M21.856 10.3587C22.0073 9.5665 22.3808 8.83373 22.933 8.24593C23.4852 7.65813 24.1933 7.23957 24.9745 7.03913C25.7557 6.83868 26.5778 6.86463 27.3448 7.11395C28.1117 7.36326 28.792 7.82564 29.306 8.4471C29.82 9.06855 30.1467 9.82343 30.2477 10.6236C30.3488 11.4237 30.2201 12.2361 29.8767 12.9658C29.5333 13.6956 28.9894 14.3125 28.3084 14.7447C27.6275 15.1769 26.8377 15.4064 26.0312 15.4065" stroke="#5497FF" stroke-width="2" stroke-linecap="round" stroke-linejoin="round"/>
</svg>
