<svg width="25" height="25" viewBox="0 0 25 25" fill="none" xmlns="http://www.w3.org/2000/svg">
<path d="M15.4055 22.1869V16.3743C15.4055 16.1174 15.3035 15.871 15.1218 15.6893C14.9401 15.5076 14.6937 15.4056 14.4368 15.4056H10.5618C10.3049 15.4056 10.0585 15.5076 9.87678 15.6893C9.69511 15.871 9.59304 16.1174 9.59304 16.3743V22.1869C9.59304 22.4438 9.49099 22.6902 9.30934 22.8719C9.12769 23.0536 8.88132 23.1557 8.62441 23.1557L2.81262 23.1564C2.68539 23.1565 2.55941 23.1314 2.44186 23.0827C2.32431 23.0341 2.2175 22.9627 2.12753 22.8728C2.03756 22.7828 1.96619 22.676 1.9175 22.5585C1.86881 22.4409 1.84375 22.3149 1.84375 22.1877V10.9913C1.84375 10.8564 1.87195 10.7229 1.92655 10.5994C1.98114 10.476 2.06093 10.3654 2.16079 10.2746L11.8476 1.46683C12.0259 1.3047 12.2583 1.21485 12.4993 1.21484C12.7403 1.21484 12.9727 1.30467 13.151 1.46679L22.8392 10.2746C22.939 10.3654 23.0188 10.476 23.0734 10.5995C23.128 10.7229 23.1563 10.8564 23.1562 10.9914V22.1877C23.1563 22.3149 23.1312 22.4409 23.0825 22.5585C23.0338 22.676 22.9624 22.7828 22.8725 22.8728C22.7825 22.9627 22.6757 23.0341 22.5581 23.0827C22.4406 23.1314 22.3146 23.1565 22.1874 23.1565L16.3742 23.1557C16.1173 23.1557 15.8709 23.0536 15.6892 22.8719C15.5076 22.6902 15.4055 22.4438 15.4055 22.1869V22.1869Z" stroke="#3C3C3C" stroke-width="2" stroke-linecap="round" stroke-linejoin="round"/>
</svg>
