<svg width="31" height="31" viewBox="0 0 31 31" fill="none" xmlns="http://www.w3.org/2000/svg">
<path d="M18.4055 25.1869V19.3743C18.4055 19.1174 18.3035 18.871 18.1218 18.6893C17.9401 18.5076 17.6937 18.4056 17.4368 18.4056H13.5618C13.3049 18.4056 13.0585 18.5076 12.8768 18.6893C12.6951 18.871 12.593 19.1174 12.593 19.3743V25.1869C12.593 25.4438 12.491 25.6902 12.3093 25.8719C12.1277 26.0536 11.8813 26.1557 11.6244 26.1557L5.81262 26.1564C5.68539 26.1565 5.55941 26.1314 5.44186 26.0827C5.32431 26.0341 5.2175 25.9627 5.12753 25.8728C5.03756 25.7828 4.96619 25.676 4.9175 25.5585C4.86881 25.4409 4.84375 25.3149 4.84375 25.1877V13.9913C4.84375 13.8564 4.87195 13.7229 4.92655 13.5994C4.98114 13.476 5.06093 13.3654 5.16079 13.2746L14.8476 4.46683C15.0259 4.3047 15.2583 4.21485 15.4993 4.21484C15.7403 4.21484 15.9727 4.30467 16.151 4.46679L25.8392 13.2746C25.939 13.3654 26.0188 13.476 26.0734 13.5995C26.128 13.7229 26.1563 13.8564 26.1562 13.9914V25.1877C26.1563 25.3149 26.1312 25.4409 26.0825 25.5585C26.0338 25.676 25.9624 25.7828 25.8725 25.8728C25.7825 25.9627 25.6757 26.0341 25.5581 26.0827C25.4406 26.1314 25.3146 26.1565 25.1874 26.1565L19.3742 26.1557C19.1173 26.1557 18.8709 26.0536 18.6892 25.8719C18.5076 25.6902 18.4055 25.4438 18.4055 25.1869V25.1869Z" stroke="#5497FF" stroke-width="2" stroke-linecap="round" stroke-linejoin="round"/>
</svg>
