<svg width="30" height="30" viewBox="0 0 30 30" fill="none" xmlns="http://www.w3.org/2000/svg">
<path d="M15 20.625C18.1066 20.625 20.625 18.1066 20.625 15C20.625 11.8934 18.1066 9.375 15 9.375C11.8934 9.375 9.375 11.8934 9.375 15C9.375 18.1066 11.8934 20.625 15 20.625Z" stroke="#2F2A1E" stroke-width="1.5" stroke-linecap="round" stroke-linejoin="round"/>
<path d="M21.5224 7.62721C21.8226 7.89304 22.1064 8.17684 22.3723 8.47707L25.5741 8.93428C26.0933 9.83844 26.4937 10.8058 26.7652 11.8125L24.8252 14.399C24.8252 14.399 24.8496 15.2005 24.8253 15.6008L26.766 18.1881C26.4938 19.1946 26.0928 20.1617 25.573 21.0655L22.3723 21.5227C22.3723 21.5227 21.8228 22.1067 21.5226 22.3725L21.0654 25.5744C20.1612 26.0936 19.1938 26.4939 18.1871 26.7654L15.6008 24.8255C15.2005 24.8498 14.7991 24.8498 14.3989 24.8255L11.8115 26.7663C10.8051 26.4941 9.83793 26.0931 8.93413 25.5732L8.47701 22.3727C8.17678 22.1069 7.89296 21.8231 7.62714 21.5228L4.4253 21.0656C3.90607 20.1615 3.50574 19.1941 3.23424 18.1874L5.17422 15.6009C5.17422 15.6009 5.14981 14.7994 5.17414 14.3991L3.2334 11.8118C3.50558 10.8053 3.90656 9.83817 4.42641 8.93437L7.62697 8.47725C7.89279 8.17702 8.1766 7.89321 8.47683 7.62738L8.93404 4.42554C9.83819 3.90631 10.8056 3.50598 11.8123 3.23449L14.3986 5.17439C14.7989 5.15006 15.2003 5.15006 15.6005 5.17438L18.1879 3.23364C19.1943 3.50582 20.1615 3.90681 21.0653 4.42665L21.5224 7.62721Z" stroke="#2F2A1E" stroke-width="1.5" stroke-linecap="round" stroke-linejoin="round"/>
</svg>
