<svg width="364" height="101" viewBox="0 0 364 101" fill="none" xmlns="http://www.w3.org/2000/svg">
<path d="M148.23 0.09375C149.202 0.16453 150.148 0.453127 151.055 0.914062C151.377 1.07747 151.624 1.076 151.945 0.914062C153.201 0.277941 154.518 0.393267 155.684 1.13672C156.044 1.36568 156.261 1.35079 156.504 1.24219C157.674 0.714449 158.9 0.751532 160.043 1.32422C160.766 1.68703 161.491 2.02505 162.211 2.33203C162.689 2.53582 163.124 2.56871 163.547 2.47266C164.042 2.35977 164.597 2.09965 165.211 1.62891C165.811 1.16876 166.565 0.857634 167.414 0.949219C168.234 1.03848 168.908 1.4792 169.43 1.99219C169.601 2.15965 169.71 2.20078 169.746 2.21484C169.762 2.20775 169.786 2.19903 169.816 2.17969C170.864 1.51007 172.044 1.25553 173.262 1.58203C173.711 1.70243 174.15 1.67799 174.621 1.51172C175.501 1.20027 176.399 1.02602 177.305 0.984375C178.32 0.937896 179.311 1.15442 180.258 1.59375C180.793 1.84201 181.283 1.92635 181.746 1.88672C182.523 1.82001 183.301 1.77093 184.078 1.74609C185.108 1.71335 186.108 1.95848 187.055 2.4375C187.521 2.67302 187.911 2.71227 188.285 2.625C189.149 2.42359 190.025 2.32174 190.898 2.33203C191.132 2.33308 191.524 2.23735 192.094 1.69922C193.013 0.82975 194.106 0.220857 195.352 0.199219C196.223 0.184304 197.091 0.273166 197.953 0.46875C198.514 0.596354 199.074 0.620875 199.629 0.527344C200.814 0.328161 201.941 0.632666 202.945 1.28906C203.099 1.38937 203.174 1.39484 203.191 1.39453C203.205 1.39405 203.305 1.39297 203.496 1.25391C204.582 0.464287 205.86 0.179986 207.164 0.679688C207.828 0.93395 208.484 1.11671 209.133 1.23047C209.517 1.29774 209.932 1.24318 210.422 0.984375C211.054 0.650029 211.769 0.506197 212.508 0.632812C213.222 0.756361 213.841 1.10757 214.359 1.55859C214.452 1.63948 214.511 1.69372 214.547 1.71094C214.568 1.70206 214.62 1.66808 214.699 1.60547C215.268 1.15898 215.973 0.845593 216.773 0.855469C217.571 0.866637 218.264 1.19829 218.824 1.65234C218.891 1.70628 218.938 1.73278 218.965 1.74609C218.999 1.72819 219.058 1.68913 219.141 1.61719C219.711 1.12043 220.454 0.748659 221.332 0.796875C222.193 0.844246 222.898 1.28294 223.43 1.80469C223.535 1.90757 223.61 1.95612 223.652 1.98047C223.67 1.96986 223.694 1.95506 223.723 1.93359C224.79 1.13374 226.056 0.817602 227.367 1.27734C227.893 1.46209 228.399 1.49683 228.891 1.41797C229.727 1.2841 230.571 1.22563 231.41 1.24219C232.129 1.25627 232.848 1.25595 233.566 1.23047C234.373 1.20175 235.186 1.21303 235.992 1.27734C236.465 1.31513 236.963 1.22988 237.504 0.984375C238.512 0.526845 239.578 0.379164 240.656 0.585938C241.413 0.731471 242.173 0.884392 242.93 1.04297C243.662 1.19638 244.401 1.33898 245.133 1.46484C245.782 1.57622 246.433 1.61579 247.078 1.59375C248.146 1.55816 249.172 1.85477 250.125 2.40234C250.286 2.49432 250.379 2.50935 250.43 2.50781C250.483 2.50546 250.601 2.48178 250.793 2.35547C251.902 1.62049 253.173 1.4179 254.438 1.93359C255.091 2.2006 255.738 2.38813 256.371 2.49609C256.87 2.5809 257.38 2.54123 257.906 2.36719C258.553 2.15339 259.216 1.85929 259.887 1.47656C260.458 1.1509 261.093 0.950777 261.773 0.960938C262.454 0.971285 263.085 1.18528 263.648 1.52344C264.172 1.83751 264.61 1.9309 264.996 1.89844C265.658 1.84203 266.33 1.72197 267 1.54688C267.631 1.38167 268.276 1.12775 268.934 0.785156C269.552 0.46372 270.241 0.318908 270.961 0.421875C271.666 0.523363 272.285 0.851126 272.812 1.27734C273.453 1.79549 274.058 2.12483 274.605 2.30859C274.957 2.42561 275.303 2.40778 275.719 2.20312C276.486 1.82592 277.259 1.47296 278.027 1.13672C279.336 0.565417 280.642 0.81181 281.754 1.61719C281.846 1.68425 281.914 1.71976 281.953 1.73438C281.985 1.74614 282.004 1.74577 282.012 1.74609C282.016 1.74614 282.036 1.74622 282.07 1.73438C282.107 1.72149 282.169 1.69162 282.258 1.62891C282.841 1.21734 283.536 0.954432 284.309 0.984375C285.074 1.0142 285.745 1.32267 286.301 1.75781C286.789 2.14056 287.09 2.15599 287.297 2.10938C287.907 1.97156 288.538 1.7325 289.184 1.39453C289.78 1.08318 290.445 0.920991 291.141 0.984375C291.828 1.04786 292.45 1.3282 292.992 1.71094C293.499 2.06762 293.877 2.13514 294.176 2.09766C295.001 1.99004 295.833 1.94679 296.66 1.96875C297.228 1.984 297.812 1.89559 298.406 1.69922C299.37 1.38091 300.356 1.29083 301.348 1.44141C302.12 1.55895 302.896 1.68616 303.668 1.83984C304.458 1.99715 305.247 2.19022 306.035 2.41406C306.256 2.47672 306.54 2.47661 306.996 2.14453C308.014 1.40495 309.199 1.04607 310.453 1.32422C311.12 1.47199 311.784 1.56041 312.445 1.59375C313.039 1.62343 313.643 1.57193 314.25 1.41797C314.983 1.23144 315.72 1.0218 316.453 0.808594C317.637 0.464422 318.813 0.658642 319.875 1.26562C320.352 1.53759 320.734 1.59048 321.082 1.52344C322.069 1.33012 323.063 1.37496 324.035 1.65234C324.53 1.79369 325.011 1.80039 325.5 1.67578C326.5 1.41999 327.514 1.42089 328.512 1.6875C328.777 1.75854 329.088 1.74408 329.543 1.44141C330.496 0.807443 331.547 0.445403 332.66 0.46875C333.631 0.489653 334.58 0.72076 335.496 1.13672C335.933 1.33508 336.31 1.35451 336.691 1.24219C337.661 0.953527 338.656 0.898013 339.645 1.07812C340.139 1.16798 340.636 1.13065 341.156 0.960938C342.108 0.649711 343.083 0.553672 344.062 0.679688C344.655 0.756349 345.258 0.732598 345.855 0.621094C347.103 0.390033 348.264 0.778615 349.266 1.52344C349.332 1.57313 349.383 1.59541 349.406 1.60547C349.437 1.5939 349.516 1.56147 349.641 1.45312C350.239 0.931225 351.043 0.553273 351.984 0.703125C352.864 0.843919 353.536 1.39917 354.023 1.98047C354.257 2.25824 354.412 2.35078 354.469 2.37891C355.215 2.00561 355.961 1.62738 356.707 1.25391C357.393 0.911236 358.156 0.807618 358.922 1.03125C359.646 1.24277 360.24 1.71013 360.727 2.23828L362.039 3.59766L362.449 4.07812C362.562 4.24207 362.661 4.39807 362.73 4.53516C362.887 4.84604 363.034 5.21868 363.176 5.625C363.718 7.17994 362.963 8.53473 361.898 9.49219C361.248 10.0778 361.235 10.3999 361.242 10.4883C361.27 10.7957 361.44 11.2526 362.004 11.8477C362.484 12.3546 362.88 12.9673 363.035 13.6875C363.195 14.4349 363.065 15.1597 362.73 15.8086C362.445 16.3608 362.333 16.8664 362.344 17.332C362.357 17.8695 362.484 18.4319 362.742 19.0195C363.246 20.1651 363.229 21.3639 362.707 22.5C362.511 22.9273 362.493 23.297 362.613 23.6719C363.007 24.9021 362.778 26.1062 362.098 27.1758C362.065 27.2263 362.045 27.2637 362.039 27.2812C362.039 27.2813 362.063 27.3951 362.262 27.6094C363.103 28.5181 363.693 29.5729 363.785 30.7617C363.863 31.7723 363.678 32.7625 363.27 33.7148C362.939 34.4867 362.589 35.2647 362.215 36.0352C361.99 36.5014 361.949 36.9033 362.039 37.2891C362.172 37.8559 362.422 38.4536 362.812 39.082C363.232 39.757 363.413 40.5575 363.188 41.3906C362.978 42.1641 362.471 42.7838 361.91 43.2656C361.201 43.876 361.179 44.2168 361.184 44.2969C361.226 45.0848 361.238 45.876 361.219 46.6641C361.215 46.8715 361.303 47.2502 361.863 47.8242C362.717 48.6981 363.359 49.6729 363.633 50.7539C363.888 51.7617 363.871 52.7874 363.586 53.7891C363.301 54.7881 362.75 55.7188 362.016 56.5898C361.592 57.0919 361.592 57.387 361.629 57.5625C361.818 58.4591 361.871 59.3651 361.781 60.2695C361.762 60.4637 361.81 60.8114 362.309 61.3594C362.841 61.9443 363.247 62.7505 363.117 63.7031C362.995 64.5962 362.442 65.2752 361.863 65.7656C361.519 66.0564 361.357 66.286 361.289 66.4219C361.235 66.5319 361.238 66.5752 361.242 66.5977C361.315 66.9842 361.558 67.4857 362.133 68.0977C362.668 68.6682 363.097 69.458 363 70.4062C362.906 71.3105 362.364 72.0042 361.793 72.5039C361.114 73.0981 361.156 73.3887 361.16 73.418C361.242 74.0001 361.435 74.5989 361.734 75.2227C362.157 76.1009 362.432 77.0084 362.555 77.9297C362.701 79.0272 362.473 80.0916 361.945 81.082C361.86 81.2431 361.848 81.3447 361.852 81.4102C361.856 81.4801 361.887 81.6104 362.016 81.8086C362.58 82.6804 362.979 83.5964 363.199 84.5391C363.458 85.6513 363.313 86.7542 362.812 87.7852C362.621 88.1813 362.612 88.5045 362.742 88.8516C363.249 90.2087 362.866 91.5049 362.004 92.5664C361.515 93.1678 361.294 93.6902 361.219 94.125C361.211 94.1721 361.161 94.4538 361.781 95.0273C362.006 95.2353 362.22 95.4545 362.391 95.6719C362.476 95.781 362.587 95.9239 362.672 96.0938C362.748 96.2453 362.869 96.552 362.859 96.9375C362.846 97.4064 362.629 97.8717 362.215 98.1797C361.877 98.4304 361.528 98.4907 361.348 98.5078C360.985 98.5419 360.624 98.4708 360.387 98.4141C360.154 98.359 359.858 98.3664 359.391 98.8008C358.865 99.2888 358.206 99.6917 357.422 99.7852C356.615 99.8797 355.886 99.6197 355.277 99.1992C354.741 98.8286 354.304 98.7345 353.953 98.7539C353.04 98.804 352.131 98.7056 351.234 98.4609C350.776 98.3356 350.324 98.3408 349.852 98.4961C349.255 98.6936 348.627 99.0096 347.977 99.457C347.369 99.8751 346.635 100.132 345.832 100.043C345.052 99.9561 344.393 99.5631 343.863 99.082C343.326 98.5941 343.003 98.5659 342.832 98.5898C342.475 98.6399 341.993 98.8526 341.391 99.4102C340.832 99.9266 340.087 100.339 339.188 100.301C338.3 100.262 337.584 99.7938 337.055 99.2578C336.47 98.6667 336.075 98.5595 335.859 98.5547C335.068 98.5435 334.271 98.4922 333.48 98.4141C332.735 98.3404 331.987 98.2704 331.242 98.2031C330.677 98.1521 330.102 98.2071 329.52 98.3672C328.58 98.6249 327.627 98.6874 326.672 98.5547C326.238 98.4942 325.777 98.5612 325.266 98.8008C324.317 99.2463 323.321 99.462 322.301 99.4102C321.716 99.3802 321.121 99.4447 320.52 99.6094C319.806 99.8047 319.091 100.036 318.375 100.289C317.467 100.61 316.537 100.765 315.598 100.746C314.304 100.72 313.197 100.031 312.293 99.0938C312.168 98.965 312.081 98.9088 312.035 98.8828C312.024 98.8899 312.015 98.9073 312 98.918C311.074 99.5837 310.054 100.009 308.965 100.078C307.806 100.151 306.73 99.7607 305.766 99.082C305.715 99.0461 305.678 99.0307 305.66 99.0234C305.618 99.0438 305.539 99.1039 305.414 99.2227C304.464 100.13 303.275 100.728 301.922 100.547C300.926 100.413 299.974 100.036 299.074 99.4688C298.922 99.3734 298.853 99.3866 298.852 99.3867C298.826 99.3898 298.728 99.4114 298.547 99.5508C297.57 100.307 296.429 100.739 295.195 100.594C294.425 100.503 293.656 100.392 292.887 100.266C291.944 100.111 291.026 99.7766 290.145 99.2812C289.57 98.958 289.044 98.8093 288.562 98.7891C287.875 98.7602 287.188 98.7783 286.5 98.8359C285.692 98.9036 284.883 98.9219 284.074 98.8945C283.493 98.8749 282.906 98.9514 282.305 99.1289C281.654 99.3215 280.984 99.5882 280.312 99.9375C279.687 100.262 278.989 100.406 278.262 100.289C277.553 100.175 276.933 99.8374 276.41 99.3984C275.848 98.9258 275.43 98.7991 275.133 98.8008C274.387 98.8051 273.641 98.8172 272.895 98.8242C272.495 98.828 272.022 98.9637 271.465 99.3398C270.349 100.093 269.061 100.302 267.785 99.7617C267.055 99.4521 266.323 99.1561 265.594 98.8828C265.135 98.7116 264.713 98.6926 264.281 98.8125C263.476 99.0372 262.665 99.2168 261.855 99.3398C261.337 99.4185 260.773 99.6215 260.168 99.9961C259.535 100.388 258.792 100.588 258 100.453C257.238 100.322 256.592 99.9055 256.078 99.4102C255.978 99.3143 255.907 99.2686 255.867 99.2461C255.847 99.2578 255.819 99.2788 255.785 99.3047C254.791 100.065 253.63 100.476 252.375 100.266C251.741 100.159 251.106 100.127 250.477 100.172C249.842 100.218 249.202 100.333 248.555 100.523C247.333 100.883 246.134 100.642 245.074 99.9727C244.559 99.6477 244.142 99.5716 243.785 99.6094C243.051 99.6876 242.316 99.7776 241.582 99.8789C240.783 99.9892 239.98 100.063 239.18 100.09C237.946 100.132 236.839 99.6015 235.898 98.7891C235.888 98.7805 235.872 98.7727 235.863 98.7656C235.825 98.7969 235.78 98.8447 235.723 98.9062C235.192 99.474 234.427 99.9953 233.449 99.9609C232.489 99.9255 231.753 99.3686 231.246 98.7891C230.644 98.0999 230.31 98.0807 230.227 98.0859C229.672 98.1231 229.094 98.2709 228.492 98.543C227.652 98.9219 226.778 99.0261 225.914 98.8594L225.047 98.6016C224.989 98.6241 224.8 98.7244 224.52 99.0586C224.042 99.6256 223.43 100.142 222.656 100.359C221.815 100.595 221.003 100.412 220.324 99.9844C219.683 99.5814 219.062 99.3142 218.473 99.1523C217.844 98.9799 217.224 98.8911 216.609 98.8828C216.314 98.879 215.892 98.9897 215.332 99.457C214.336 100.288 213.134 100.745 211.816 100.465C211.323 100.359 210.827 100.378 210.316 100.535C208.712 101.029 207.384 100.151 206.473 99.0469C205.862 98.3057 205.534 98.2941 205.488 98.2969C204.677 98.3574 203.863 98.3751 203.051 98.332C202.342 98.2942 201.627 98.2773 200.918 98.2969C200.38 98.3117 199.818 98.4379 199.23 98.6953C198.384 99.0669 197.522 99.3405 196.652 99.5039C195.994 99.6275 195.331 99.8226 194.66 100.078C193.634 100.469 192.568 100.536 191.508 100.266C190.771 100.078 190.029 99.9044 189.293 99.7383C188.432 99.544 187.577 99.2488 186.738 98.8594C186.163 98.5926 185.625 98.4671 185.109 98.4609C184.407 98.4528 183.703 98.4725 183 98.5312C182.662 98.5595 182.203 98.7317 181.617 99.2461C180.565 100.172 179.229 100.623 177.82 100.066C177.378 99.8922 176.98 99.883 176.566 100.008C175.795 100.242 175.018 100.456 174.246 100.652C173.112 100.941 171.985 100.773 170.941 100.242C170.113 99.82 169.288 99.3133 168.48 98.7188C168.471 98.7116 168.465 98.7007 168.457 98.6953C168.408 98.7282 168.33 98.7918 168.223 98.9062C167.332 99.8611 166.248 100.575 164.977 100.664C163.78 100.747 162.682 100.318 161.719 99.5859C161.298 99.267 161.085 99.3083 160.91 99.375C160.007 99.7193 159.083 99.9029 158.145 99.9141C157.012 99.9272 155.953 99.521 155.004 98.8477C154.542 98.521 154.238 98.5066 153.996 98.5664C153.525 98.685 152.977 98.9707 152.355 99.5039C151.811 99.9712 151.129 100.321 150.34 100.371C149.54 100.42 148.83 100.144 148.242 99.7148C147.682 99.3051 147.22 99.1699 146.848 99.1641C145.859 99.148 144.899 98.8953 143.977 98.4492C143.868 98.3968 143.817 98.4088 143.789 98.4141C143.741 98.4234 143.59 98.4672 143.355 98.6719C142.36 99.5384 141.133 100.031 139.781 99.7148C139.436 99.6344 139.061 99.6695 138.598 99.9258C137.664 100.442 136.673 100.742 135.645 100.758C134.595 100.773 133.59 100.478 132.645 99.9492C132.097 99.6423 131.608 99.5258 131.168 99.5391C130.574 99.5571 129.969 99.671 129.352 99.8789C127.918 100.361 126.626 99.8067 125.625 98.8594C125.595 98.89 125.559 98.9302 125.52 98.9766C124.648 100.008 123.552 100.821 122.215 100.898C120.722 100.983 119.546 100.04 118.688 98.9297C118.045 98.0982 117.695 98.0968 117.668 98.0977C117.041 98.1184 116.408 98.2051 115.77 98.3789C115.167 98.543 114.541 98.8128 113.895 99.1992C112.865 99.8148 111.73 100.057 110.555 99.7969C109.837 99.6371 109.115 99.5106 108.398 99.3984C107.864 99.3147 107.32 99.3411 106.77 99.4922C105.776 99.7646 104.768 99.7737 103.77 99.5273C102.927 99.3192 102.088 99.033 101.262 98.6602C100.836 98.4679 100.468 98.4551 100.09 98.5781C99.47 98.7799 98.8262 99.0797 98.168 99.4922C97.2597 100.061 96.296 100.428 95.2852 100.535C94.2869 100.641 93.2992 100.498 92.3438 100.137C91.5057 99.8194 90.6775 99.4162 89.8594 98.9297C89.4464 98.6841 89.151 98.6778 88.8633 98.7773C88.1604 99.0205 87.4501 99.3096 86.7422 99.6328C85.4456 100.222 84.1283 100.005 83.0039 99.2109C82.5871 98.9175 82.3496 98.9344 82.1367 99.0117C81.3771 99.2877 80.6115 99.5512 79.8516 99.8086C79.0864 100.068 78.3205 100.309 77.5547 100.535C76.4363 100.865 75.3087 100.765 74.25 100.277C73.8414 100.089 73.49 100.077 73.125 100.207C71.8363 100.665 70.58 100.377 69.5039 99.6094L69.3516 99.5273C69.3286 99.5333 69.2427 99.565 69.0938 99.6914C68.5699 100.136 67.9477 100.483 67.2305 100.594C66.4923 100.707 65.7816 100.546 65.1562 100.207C64.4231 99.8102 63.6855 99.4341 62.9531 99.0703C62.902 99.0452 62.8742 99.0355 62.8711 99.0352H62.8594C62.8267 99.0432 62.676 99.0923 62.4258 99.3398C61.8794 99.8804 61.1312 100.345 60.1992 100.312C59.2807 100.28 58.5536 99.7766 58.0312 99.2227C57.4359 98.5925 57.0487 98.5076 56.8711 98.5078C56.6325 98.5097 56.2372 98.6183 55.6641 99.1641C54.746 100.04 53.6454 100.656 52.3945 100.676C51.4227 100.69 50.4696 100.488 49.5469 100.102C48.7523 99.7684 47.957 99.3853 47.168 98.9648C46.6844 98.7079 46.2783 98.6615 45.9023 98.7305C45.0091 98.8961 44.1051 98.9241 43.207 98.8242C42.6959 98.7678 42.1721 98.829 41.625 99.0234C40.4641 99.4356 39.2844 99.3319 38.1914 98.7773C37.5822 98.4689 37.0007 98.2929 36.4453 98.2266C36.256 98.2044 35.9197 98.2438 35.3789 98.7305C34.4596 99.5576 33.3917 100.118 32.1914 100.172C31.523 100.202 30.8489 100.29 30.1758 100.43C28.6611 100.742 27.4078 99.9329 26.4961 98.8828C26.3898 98.7601 26.295 98.6907 26.2383 98.6484C25.6694 99.0661 24.9935 99.3552 24.2227 99.3398C23.4419 99.323 22.7556 99.0085 22.1953 98.5664C21.7557 98.2195 21.5272 98.2425 21.3633 98.2969C20.768 98.4991 20.139 98.8244 19.4883 99.2812C18.5246 99.958 17.4457 100.346 16.2891 100.277C15.2499 100.215 14.2604 99.8558 13.3359 99.2812C12.8452 98.9762 12.459 98.931 12.1289 98.9883C11.4571 99.1049 10.7817 99.2766 10.1016 99.5039C9.05918 99.8523 7.98787 99.8706 6.9375 99.5508C6.74529 99.4922 6.48925 99.4745 6.03516 99.8203C5.49436 100.232 4.65836 100.648 3.70312 100.371C2.78856 100.105 2.28165 99.3439 2.00391 98.7422C1.57273 97.8079 1.21028 96.9432 0.914062 96.1523C0.447762 94.9072 0.647784 93.6633 1.34766 92.5664C1.70744 92.0025 1.85116 91.5099 1.86328 91.0781C1.89033 90.1363 2.1044 89.2138 2.47266 88.3125C2.60082 87.9991 2.59297 87.7065 2.39062 87.3281C2.00559 86.6082 1.58418 85.883 1.13672 85.1602C0.790907 84.5999 0.577551 83.9687 0.5625 83.2852C0.548164 82.597 0.735083 81.9495 1.06641 81.375C1.37833 80.8347 1.48435 80.3666 1.46484 79.9453C1.4116 78.8008 1.79555 77.7303 2.46094 76.7695C2.49328 76.7227 2.51248 76.6925 2.51953 76.6758C2.499 76.633 2.43613 76.5504 2.30859 76.418C1.47745 75.5563 0.849501 74.6155 0.515625 73.5938C0.219437 72.6841 0.08133 71.7522 0.117188 70.8164C0.156359 69.8 0.458013 68.824 0.972656 67.8984C1.34559 67.2281 1.63432 66.5645 1.83984 65.918C2.06606 65.206 2.26018 64.4947 2.42578 63.7852C2.53068 63.3357 2.50207 62.8867 2.32031 62.4023C2.08369 61.7717 1.74448 61.1235 1.30078 60.457C0.571251 59.3602 0.347966 58.0994 0.832031 56.8359C1.03504 56.3057 1.09645 55.81 1.03125 55.3242C0.914969 54.4579 0.905245 53.5902 0.996094 52.7227C1.10794 51.6582 1.54036 50.6601 2.20312 49.7461C2.5169 49.3136 2.50754 49.0615 2.4375 48.8555C2.07824 47.7985 2.06392 46.7158 2.41406 45.6562C2.43232 45.6011 2.43645 45.5667 2.41406 45.5039C2.38181 45.4135 2.28469 45.2221 2.00391 44.9531C1.45461 44.4263 0.959342 43.703 0.9375 42.7852C0.915657 41.8586 1.38193 41.1133 1.92188 40.5703C2.51453 39.9756 2.65901 39.5455 2.67188 39.293C2.675 39.192 2.62701 38.8457 1.94531 38.25C1.37155 37.7476 0.822291 37.042 0.75 36.1172C0.674998 35.1564 1.13957 34.3757 1.6875 33.8203C2.26014 33.2409 2.34809 32.862 2.34375 32.6602C2.32593 31.8795 2.33713 31.097 2.36719 30.3164C2.37657 30.0656 2.28264 29.6778 1.79297 29.1211C1.28649 28.5467 0.893648 27.7804 0.960938 26.8828C1.02766 26.0129 1.50235 25.3171 2.03906 24.7969C2.31321 24.5311 2.40926 24.3527 2.4375 24.2695C2.45555 24.2163 2.45655 24.1847 2.4375 24.1289C2.23646 23.5599 1.89006 22.9471 1.38281 22.3008C0.963764 21.7663 0.648184 21.1352 0.5625 20.4258C0.476488 19.705 0.641971 19.0199 0.972656 18.4102C1.2671 17.8682 1.36931 17.3844 1.34766 16.9453C1.29776 15.9198 1.53394 14.9183 1.99219 13.9688C2.29132 13.3476 2.47447 12.7429 2.55469 12.1641C2.56263 12.0985 2.57086 11.8049 1.94531 11.2383C1.41167 10.7554 0.936652 10.1645 0.714844 9.44531C0.479803 8.68116 0.574877 7.91177 0.914062 7.21875C1.16842 6.69966 1.23247 6.23476 1.18359 5.80078C1.06764 4.78871 1.36355 3.88414 1.96875 3.15234C1.96081 3.1022 1.93678 3.05314 1.93359 3C1.90414 2.50704 2.11632 2.15062 2.21484 2.00391C2.41126 1.7126 2.67126 1.51036 2.80078 1.41797C2.97185 1.29603 3.17623 1.1737 3.38672 1.05469C4.32734 0.52314 5.33032 0.232136 6.375 0.234375C7.68478 0.238239 8.79822 0.930253 9.70312 1.875C9.72145 1.89414 9.73417 1.91852 9.75 1.93359C9.76462 1.91996 9.77993 1.90402 9.79688 1.88672C10.3242 1.345 11.0435 0.867328 11.9414 0.832031C12.8539 0.796245 13.6013 1.23141 14.1562 1.75781C14.3815 1.97094 14.5106 1.99916 14.5312 2.00391C14.5367 2.00288 14.5758 2.003 14.6367 1.96875C15.7003 1.36793 16.8668 1.18575 18.0469 1.53516C18.6712 1.72072 19.2912 1.81881 19.8984 1.82812C20.3674 1.83523 20.8765 1.70971 21.4336 1.41797C22.3072 0.961115 23.2066 0.644067 24.1289 0.492188C25.1472 0.324774 26.1612 0.436653 27.1406 0.796875C28.0347 1.12619 28.9109 1.59906 29.7539 2.20312C30.1625 2.49552 30.3839 2.47876 30.5859 2.40234C31.3495 2.11072 32.1188 1.83644 32.8828 1.57031C34.0065 1.17889 35.149 1.23883 36.2344 1.72266C36.8983 2.01875 37.5585 2.23659 38.2031 2.37891C38.926 2.5384 39.649 2.68087 40.3711 2.80078C40.8964 2.88787 41.4235 2.8589 41.9648 2.70703C42.404 2.58333 42.952 2.26834 43.582 1.65234C44.1105 1.13724 44.7995 0.702993 45.6445 0.644531C46.5126 0.585733 47.2579 0.943872 47.8359 1.42969C48.0537 1.61311 48.176 1.62749 48.1875 1.62891H48.2109C48.2308 1.6242 48.2813 1.61162 48.3516 1.57031C49.3619 0.966949 50.477 0.700016 51.6328 0.902344C52.3501 1.02805 53.0727 1.13045 53.7891 1.20703C54.7057 1.30557 55.6064 1.55313 56.4844 1.94531C56.7434 2.06117 56.9761 2.07604 57.3398 1.85156C58.2468 1.29218 59.2066 0.931517 60.2109 0.820312C61.5847 0.668502 62.7603 1.32895 63.6914 2.27344C63.7229 2.30537 63.7495 2.33475 63.7734 2.35547C63.79 2.34139 63.8116 2.32818 63.832 2.30859C64.8065 1.36964 66.0627 0.776911 67.4766 1.11328C68.4506 1.34587 69.3772 1.80325 70.2539 2.4375C70.3087 2.47701 70.3482 2.49765 70.3711 2.50781C70.399 2.49824 70.4877 2.46983 70.6289 2.34375C71.1777 1.85327 71.8801 1.46401 72.7148 1.44141C73.5539 1.42028 74.2691 1.77441 74.8359 2.25C75.0228 2.40689 75.1288 2.43314 75.1523 2.4375C75.155 2.43778 75.1701 2.44205 75.1875 2.4375C75.2088 2.43164 75.2554 2.41273 75.3281 2.36719C75.9037 2.00587 76.5593 1.78142 77.2734 1.79297C77.9864 1.80482 78.6416 2.05198 79.207 2.42578C79.625 2.70049 79.8987 2.69744 80.1445 2.61328C80.7043 2.421 81.3074 2.08791 81.9492 1.58203C82.4883 1.15735 83.1235 0.835965 83.8477 0.761719C84.5826 0.686609 85.2702 0.878985 85.875 1.23047C86.4861 1.58682 87.0694 1.79119 87.6094 1.875C88.4512 2.00591 89.2872 2.21901 90.1172 2.50781C90.6933 2.70833 91.249 2.78259 91.793 2.75391C91.9606 2.74498 92.3652 2.63472 92.9883 1.91016C93.4883 1.32891 94.204 0.771563 95.1445 0.703125C96.1184 0.633365 96.8935 1.11854 97.4414 1.67578C98.0506 2.29556 98.5134 2.48244 98.8125 2.51953C99.1635 2.56243 99.5694 2.48618 100.078 2.16797C100.906 1.65012 101.752 1.23794 102.609 0.925781C103.779 0.500209 104.969 0.602245 106.066 1.17188C106.495 1.39434 106.838 1.41762 107.18 1.3125C107.963 1.07001 108.75 0.85058 109.535 0.667969C111.022 0.322713 112.287 1.05831 113.227 2.07422C113.397 2.25819 113.517 2.31806 113.566 2.34375L114.41 1.92188C115.25 1.59984 116.149 1.5412 117.059 1.81641C117.783 2.03613 118.515 2.23616 119.238 2.41406C119.343 2.43906 119.597 2.47872 120.105 2.00391C121.015 1.1549 122.07 0.552336 123.27 0.46875C124.264 0.399726 125.243 0.578596 126.188 0.960938C126.895 1.24711 127.606 1.48941 128.309 1.69922C128.559 1.77322 128.853 1.7722 129.293 1.47656C130.276 0.816791 131.371 0.469189 132.539 0.597656C133.129 0.662507 133.723 0.6294 134.32 0.503906C135.735 0.208393 136.97 0.833271 137.93 1.78125C138.5 2.34549 138.853 2.40266 139.02 2.39062C139.424 2.36091 139.909 2.18414 140.484 1.75781C141.067 1.32683 141.774 1.04061 142.57 1.07812C143.356 1.11524 144.025 1.46514 144.574 1.92188C144.619 1.88566 144.688 1.83938 144.762 1.75781C145.663 0.755934 146.828 -0.00693771 148.23 0.09375ZM148.02 3.09375C147.924 3.08682 147.585 3.09865 146.988 3.76172C146.488 4.31765 145.818 4.82488 144.961 4.94531C144.053 5.07059 143.263 4.71946 142.664 4.21875C142.536 4.11174 142.457 4.08631 142.43 4.07812C142.409 4.08541 142.352 4.10805 142.266 4.17188C141.343 4.85543 140.325 5.29977 139.23 5.37891C137.898 5.47421 136.749 4.83212 135.82 3.91406C135.282 3.38205 135.013 3.42778 134.93 3.44531C134.028 3.6343 133.12 3.6742 132.211 3.57422C131.879 3.53785 131.473 3.61408 130.957 3.96094C129.9 4.6706 128.689 4.94276 127.441 4.57031C126.647 4.33287 125.853 4.0581 125.062 3.73828C124.508 3.51384 123.986 3.43391 123.48 3.46875C123.181 3.48955 122.734 3.64444 122.145 4.19531C121.16 5.1138 119.909 5.67552 118.512 5.33203C117.737 5.14153 116.965 4.92197 116.191 4.6875C115.907 4.60139 115.595 4.61801 115.16 4.88672C114.502 5.2926 113.726 5.47441 112.91 5.28516C112.141 5.10637 111.517 4.63572 111.023 4.10156C110.745 3.80149 110.537 3.67321 110.414 3.62109C110.313 3.57831 110.262 3.58672 110.215 3.59766C109.502 3.76347 108.786 3.95059 108.07 4.17188C106.913 4.5301 105.754 4.38808 104.684 3.83203C104.284 3.62516 103.969 3.61976 103.641 3.73828C103 3.97121 102.341 4.29267 101.672 4.71094C100.682 5.33015 99.5858 5.63851 98.4375 5.49609C97.2432 5.34709 96.2077 4.68448 95.3203 3.78516C95.2998 3.80662 95.2855 3.83959 95.2617 3.86719C94.3854 4.886 93.2881 5.6822 91.957 5.75391C91.0021 5.80473 90.0555 5.6647 89.1328 5.34375C88.4644 5.11111 87.7971 4.94174 87.1406 4.83984C86.1831 4.69061 85.2618 4.33705 84.375 3.82031C84.2313 3.73649 84.165 3.7487 84.1523 3.75C84.1258 3.75284 84.0097 3.77282 83.8008 3.9375C82.9449 4.61184 82.0438 5.12796 81.1055 5.44922C79.854 5.87606 78.6204 5.6341 77.543 4.92188C77.3636 4.80412 77.2645 4.79384 77.2266 4.79297C77.1913 4.79238 77.096 4.80087 76.9219 4.91016C76.316 5.28982 75.6094 5.5049 74.8477 5.42578C74.0999 5.34662 73.4497 4.99584 72.9141 4.54688C72.8582 4.49997 72.8132 4.46929 72.7852 4.45312C72.7513 4.47264 72.6938 4.50544 72.6211 4.57031C72.0849 5.04947 71.4208 5.44008 70.6289 5.50781C69.8187 5.57676 69.0928 5.29495 68.4961 4.86328C67.8745 4.4136 67.2973 4.15589 66.7734 4.03125C66.6845 4.01044 66.4367 3.96529 65.918 4.46484C65.369 4.99376 64.6248 5.43625 63.7148 5.41406C62.8146 5.39101 62.0899 4.92107 61.5586 4.38281C60.99 3.80584 60.6645 3.78299 60.5391 3.79688C60.0442 3.85177 59.5024 4.04081 58.9102 4.40625C57.7753 5.10556 56.5049 5.2409 55.2656 4.6875C54.6465 4.41061 54.0412 4.24562 53.4609 4.18359C52.6793 4.09993 51.8979 3.99226 51.1172 3.85547C50.7744 3.7954 50.3855 3.84703 49.8984 4.13672C49.2841 4.50363 48.5683 4.69806 47.8125 4.60547C47.0782 4.51421 46.4441 4.17202 45.9141 3.72656C45.8799 3.69775 45.8419 3.68232 45.8203 3.66797C45.7831 3.69439 45.7309 3.73534 45.668 3.79688C44.799 4.6464 43.8446 5.29063 42.7852 5.58984C41.8284 5.85935 40.8519 5.91548 39.8789 5.75391C39.1029 5.62503 38.3221 5.47974 37.5469 5.30859C36.6938 5.11996 35.8495 4.83655 35.0156 4.46484C34.6013 4.28005 34.2432 4.26355 33.8672 4.39453C33.1326 4.65042 32.3991 4.92242 31.6641 5.20312C30.3672 5.69845 29.0841 5.42033 27.9961 4.64062C27.3416 4.17228 26.7132 3.83191 26.1094 3.60938C25.5907 3.41832 25.1009 3.37859 24.6211 3.45703C24.0459 3.5516 23.4406 3.75126 22.8164 4.07812C21.8746 4.57079 20.8814 4.84392 19.8516 4.82812C18.9604 4.81442 18.0772 4.66563 17.2031 4.40625C16.8848 4.31163 16.5484 4.33623 16.1133 4.58203C15.4717 4.94415 14.7366 5.1039 13.9688 4.95703C13.229 4.81512 12.6053 4.41106 12.0938 3.92578C12.0759 3.90885 12.0616 3.89151 12.0469 3.87891C12.0199 3.90182 11.9903 3.9346 11.9531 3.97266C11.4182 4.52212 10.6723 5.01153 9.73828 5.00391C8.80951 4.9959 8.07582 4.50039 7.54688 3.94922C6.95661 3.33271 6.56624 3.23639 6.375 3.23438C6.08577 3.23352 5.77837 3.29159 5.44922 3.41016C5.43647 3.48546 5.44376 3.5611 5.42578 3.62109C5.30483 4.0218 5.0539 4.31065 4.93359 4.44141C4.78045 4.60731 4.59893 4.76301 4.41797 4.91016C4.17794 5.10526 4.14867 5.24051 4.17188 5.44922C4.29365 6.51209 4.08736 7.55361 3.60938 8.53125L3.58594 8.55469C3.5951 8.58449 3.66628 8.7451 3.96094 9.01172C4.97049 9.92607 5.71987 11.1404 5.51953 12.5859C5.39175 13.5035 5.10982 14.4061 4.6875 15.2812C4.42383 15.829 4.32438 16.3327 4.34766 16.8047C4.3992 17.8643 4.12927 18.8829 3.60938 19.8398C3.53442 19.9779 3.54758 20.0477 3.55078 20.0742C3.5571 20.1185 3.5873 20.2419 3.75 20.4492C4.41839 21.3012 4.93297 22.1921 5.26172 23.1211C5.79243 24.6231 5.1433 25.966 4.125 26.9531C4.07257 27.0041 4.03533 27.0479 4.00781 27.082C4.01847 27.0955 4.02836 27.1123 4.04297 27.1289C4.87218 28.0694 5.41526 29.1849 5.36719 30.4336C5.33953 31.1524 5.32737 31.8711 5.34375 32.5898C5.37329 33.8842 4.7365 34.9999 3.83203 35.918C3.85659 35.9424 3.89215 35.9706 3.92578 36C4.94488 36.8918 5.73175 38.0521 5.66016 39.457C5.59497 40.7 4.95294 41.7768 4.05469 42.6797C4.04167 42.6928 4.01851 42.7033 4.00781 42.7148C4.02771 42.7367 4.04914 42.7691 4.07812 42.7969C5.09569 43.7726 5.75869 45.0919 5.26172 46.5938C5.11626 47.0327 5.12331 47.453 5.27344 47.8945C5.71217 49.1876 5.40298 50.4371 4.62891 51.5039C4.20561 52.0874 4.01906 52.5935 3.97266 53.0273C3.90635 53.6584 3.92294 54.2935 4.00781 54.9258C4.14373 55.9395 4.00414 56.9448 3.63281 57.9141C3.54375 58.1487 3.54187 58.3924 3.80859 58.793C4.36297 59.6259 4.80685 60.4789 5.13281 61.3477C5.51368 62.363 5.58874 63.4147 5.34375 64.4648C5.1596 65.2539 4.94927 66.0454 4.69922 66.832C4.4284 67.6837 4.0579 68.5236 3.59766 69.3516C3.27851 69.9253 3.13568 70.451 3.11719 70.9336C3.09574 71.4964 3.17202 72.0675 3.36328 72.6562C3.51814 73.1318 3.85194 73.6961 4.46484 74.332C4.96622 74.8518 5.38863 75.5105 5.49609 76.3008C5.60643 77.119 5.34818 77.8649 4.92188 78.4805C4.55043 79.0179 4.44849 79.45 4.46484 79.8047C4.51502 80.8833 4.22193 81.9155 3.66797 82.875C3.5692 83.0462 3.55015 83.1531 3.55078 83.2148C3.55209 83.2777 3.57544 83.4025 3.69141 83.5898C4.171 84.3648 4.62311 85.144 5.03906 85.9219C5.63572 87.0403 5.73164 88.2544 5.25 89.4375C5.00615 90.0338 4.87888 90.6163 4.86328 91.1719C4.83236 92.2383 4.4753 93.2489 3.87891 94.1836C3.62256 94.586 3.63121 94.843 3.72656 95.0977C3.96152 95.725 4.25833 96.4177 4.60547 97.1836C5.56708 96.5767 6.66321 96.3282 7.81641 96.6797C8.26379 96.8151 8.69689 96.8085 9.15234 96.6562C9.96899 96.3834 10.7883 96.1667 11.6133 96.0234C12.7832 95.8206 13.9086 96.1109 14.918 96.7383C15.4927 97.0953 16.0046 97.2497 16.4648 97.2773C16.8066 97.2978 17.2306 97.2077 17.7656 96.832C18.6141 96.2362 19.4868 95.7681 20.3906 95.4609C21.7261 95.0073 23.0044 95.379 24.0586 96.2109C24.1854 96.3105 24.2572 96.334 24.2812 96.3398C24.3038 96.3347 24.37 96.3168 24.4805 96.2344C25.1153 95.7614 25.9164 95.4797 26.8008 95.6602C27.6253 95.8285 28.2689 96.3498 28.7578 96.9141C29.0438 97.2441 29.2607 97.3912 29.3906 97.4531C29.4931 97.5016 29.5378 97.494 29.5664 97.4883C30.3931 97.3168 31.231 97.2207 32.0625 97.1836C32.3619 97.1691 32.7972 97.0236 33.375 96.5039C34.3326 95.6423 35.4976 95.0934 36.8086 95.25C37.7491 95.3631 38.6641 95.6558 39.5508 96.1055C39.9554 96.3108 40.2803 96.3177 40.6172 96.1992C41.5673 95.8616 42.5491 95.7388 43.5352 95.8477C44.1371 95.9146 44.7449 95.8899 45.3516 95.7773C46.4736 95.5694 47.5726 95.7764 48.5859 96.3164C49.2962 96.6948 50.0023 97.0405 50.707 97.3359C51.2799 97.5757 51.8237 97.6835 52.3477 97.6758C52.5966 97.6719 53.0083 97.5504 53.5898 96.9961C54.5102 96.1184 55.6104 95.5099 56.8711 95.5078C58.1928 95.5064 59.3083 96.2151 60.2109 97.1719C60.234 97.1963 60.2621 97.2123 60.2812 97.2305C60.2907 97.2216 60.306 97.2174 60.3164 97.207C60.8162 96.7126 61.4274 96.3056 62.1445 96.1289C62.8916 95.9455 63.6269 96.0472 64.2891 96.375C65.0541 96.755 65.8218 97.1567 66.5859 97.5703C66.7106 97.6378 66.7616 97.6307 66.7734 97.6289C66.8055 97.6238 66.9292 97.591 67.1484 97.4062C67.6927 96.9442 68.371 96.5803 69.1523 96.5273C69.9449 96.4747 70.6593 96.7505 71.25 97.1719C71.6684 97.4696 71.9085 97.4563 72.1172 97.3828C73.2515 96.9786 74.4131 97.0434 75.5039 97.5469C75.9433 97.7499 76.3196 97.7758 76.6992 97.6641C77.4285 97.4487 78.1606 97.2198 78.8906 96.9727C79.6302 96.7222 80.3774 96.4563 81.1172 96.1875C82.4024 95.7221 83.658 95.9988 84.7383 96.7617C85.1103 97.0244 85.2996 96.9934 85.5 96.9023C86.2903 96.5415 87.0836 96.2167 87.8789 95.9414C89.0912 95.5221 90.3076 95.7051 91.3945 96.3516C92.0754 96.7563 92.7492 97.0857 93.4102 97.3359C93.9532 97.5408 94.4683 97.6 94.9688 97.5469C95.4541 97.495 95.9866 97.3169 96.5742 96.9492C97.4158 96.4218 98.2841 96.0051 99.1641 95.7188C100.284 95.3552 101.42 95.434 102.492 95.918C103.164 96.2217 103.828 96.459 104.484 96.6211C104.982 96.7441 105.47 96.7349 105.973 96.5977C106.922 96.337 107.891 96.2828 108.855 96.4336C109.637 96.5559 110.419 96.7051 111.199 96.8789C111.523 96.9509 111.89 96.9136 112.359 96.6328C113.212 96.123 114.088 95.7286 114.984 95.4844C115.841 95.2515 116.706 95.1259 117.574 95.0977C119.047 95.0501 120.21 95.9935 121.066 97.1016C121.691 97.9077 122.018 97.9109 122.039 97.9102C122.199 97.9011 122.607 97.7865 123.234 97.043C123.727 96.4598 124.415 95.8921 125.332 95.7891C126.3 95.6808 127.096 96.1333 127.664 96.6797C127.918 96.9235 128.097 97.0127 128.191 97.043C128.261 97.0647 128.315 97.0563 128.391 97.0312C129.271 96.7347 130.171 96.5786 131.074 96.5508C132.134 96.5189 133.157 96.8025 134.109 97.3359C134.66 97.6442 135.151 97.7641 135.598 97.7578C136.068 97.7504 136.58 97.6125 137.145 97.3008C138.18 96.7279 139.319 96.5268 140.473 96.7969C140.62 96.8301 140.891 96.8417 141.387 96.4102C141.902 95.9604 142.513 95.5972 143.215 95.4609C143.937 95.3211 144.639 95.4447 145.277 95.7539C145.851 96.0318 146.387 96.1555 146.895 96.1641C148.022 96.1817 149.072 96.6019 150.012 97.2891C150.08 97.3394 150.128 97.3613 150.152 97.3711C150.179 97.3626 150.263 97.3354 150.398 97.2188C151.276 96.4659 152.23 95.9192 153.258 95.6602C154.512 95.3442 155.706 95.6681 156.738 96.3984C157.289 96.7894 157.742 96.9183 158.109 96.9141C158.67 96.9074 159.248 96.8015 159.844 96.5742C161.168 96.0694 162.457 96.3877 163.535 97.207C164.067 97.6096 164.465 97.6958 164.766 97.6758C164.994 97.6598 165.422 97.5202 166.031 96.8672C166.534 96.3281 167.183 95.8445 168 95.707C168.862 95.5622 169.638 95.8457 170.262 96.3047C170.951 96.812 171.633 97.2299 172.301 97.5703C172.757 97.8026 173.142 97.839 173.508 97.7461C174.234 97.5615 174.96 97.3575 175.688 97.1367C176.77 96.8078 177.868 96.8615 178.922 97.2773C179.013 97.3135 179.189 97.3904 179.637 96.9961C180.549 96.194 181.594 95.6399 182.754 95.543C183.55 95.4766 184.348 95.4518 185.145 95.4609C186.127 95.4726 187.082 95.7126 188.004 96.1406C188.665 96.4473 189.322 96.6645 189.961 96.8086C190.723 96.9805 191.484 97.1648 192.246 97.3594C192.685 97.4714 193.122 97.4455 193.594 97.2656C194.422 96.9505 195.261 96.7204 196.102 96.5625C196.731 96.4441 197.371 96.2394 198.023 95.9531C198.934 95.5536 199.876 95.3234 200.836 95.2969C201.625 95.2751 202.414 95.29 203.203 95.332C203.889 95.3686 204.579 95.3598 205.266 95.3086C206.728 95.2006 207.903 96.0708 208.781 97.1367C209.069 97.4854 209.271 97.6206 209.367 97.6641C209.404 97.6805 209.426 97.6759 209.426 97.6758H209.438C210.425 97.3723 211.432 97.3201 212.438 97.5352C212.617 97.5736 212.908 97.5673 213.41 97.1484C214.35 96.3636 215.44 95.8673 216.645 95.8828C217.526 95.8942 218.402 96.0195 219.27 96.2578C220.171 96.5054 221.045 96.9099 221.895 97.4414C221.903 97.4357 221.919 97.4258 221.93 97.418C222 97.3654 222.098 97.2732 222.223 97.125C222.692 96.5667 223.265 96.0695 223.957 95.8008C224.694 95.5149 225.468 95.5249 226.195 95.8242C226.557 95.9735 226.883 95.972 227.262 95.8008C228.158 95.3965 229.084 95.1491 230.027 95.0859C231.445 94.9922 232.614 95.7863 233.508 96.8086C233.517 96.8195 233.522 96.8339 233.531 96.8438C234.041 96.3004 234.73 95.82 235.594 95.7305C236.498 95.6377 237.271 96.0107 237.855 96.5156C238.414 96.9984 238.81 97.0987 239.074 97.0898C239.772 97.0663 240.473 96.9988 241.172 96.9023C241.936 96.7969 242.704 96.7026 243.469 96.6211C244.61 96.5002 245.697 96.821 246.68 97.4414C247.116 97.7164 247.423 97.7332 247.699 97.6523C248.548 97.4024 249.405 97.2454 250.266 97.1836C251.136 97.1214 252.013 97.1552 252.879 97.3008C253.123 97.3406 253.466 97.3105 253.969 96.9258C254.566 96.469 255.306 96.1626 256.148 96.2461C256.966 96.3273 257.638 96.7474 258.164 97.2539C258.343 97.4266 258.455 97.475 258.492 97.4883C258.506 97.4836 258.539 97.4704 258.586 97.4414C259.479 96.8883 260.42 96.5237 261.398 96.375C262.087 96.2707 262.78 96.1229 263.473 95.9297C264.537 95.6327 265.611 95.6821 266.648 96.0703C267.418 96.3587 268.189 96.6704 268.957 96.9961C269.181 97.0911 269.405 97.1148 269.789 96.8555C270.732 96.219 271.76 95.8349 272.859 95.8242C273.611 95.8172 274.369 95.8051 275.121 95.8008C276.322 95.7952 277.407 96.3144 278.344 97.1016C278.567 97.2883 278.703 97.3179 278.742 97.3242C278.766 97.3277 278.817 97.3355 278.93 97.2773C279.758 96.8465 280.6 96.4974 281.449 96.2461C282.347 95.9805 283.262 95.8635 284.18 95.8945C284.87 95.9177 285.564 95.8938 286.254 95.8359C287.065 95.7682 287.88 95.755 288.691 95.7891C289.709 95.8323 290.685 96.1473 291.609 96.668C292.226 97.0151 292.812 97.2214 293.367 97.3125C294.094 97.4317 294.821 97.5318 295.547 97.6172C295.813 97.6484 296.185 97.587 296.707 97.1836C297.254 96.7602 297.903 96.4519 298.641 96.3984C299.389 96.3448 300.084 96.5621 300.68 96.9375C301.276 97.3124 301.819 97.5142 302.32 97.582C302.467 97.6017 302.79 97.58 303.34 97.0547C303.861 96.5573 304.518 96.1473 305.309 96.0469C306.129 95.944 306.877 96.2023 307.488 96.6328C308.021 97.0082 308.439 97.0993 308.777 97.0781C309.188 97.0519 309.68 96.8932 310.254 96.4805C310.874 96.0353 311.636 95.7734 312.48 95.9062C313.288 96.0346 313.941 96.4926 314.449 97.0195C315.045 97.638 315.45 97.742 315.656 97.7461C316.215 97.7571 316.789 97.6618 317.379 97.4531C318.161 97.1766 318.95 96.9295 319.734 96.7148C320.631 96.4701 321.54 96.3751 322.453 96.4219C322.932 96.4461 323.438 96.3402 323.988 96.082C324.975 95.6192 326.018 95.4416 327.082 95.5898C327.623 95.6652 328.166 95.6252 328.723 95.4727C329.64 95.2206 330.577 95.1305 331.512 95.2148C332.265 95.2828 333.02 95.363 333.773 95.4375C334.481 95.5074 335.188 95.5447 335.895 95.5547C337.179 95.5728 338.279 96.2391 339.188 97.1602C339.225 97.198 339.266 97.2191 339.293 97.2422C339.308 97.2296 339.333 97.2243 339.352 97.207C340.249 96.3758 341.279 95.7849 342.422 95.625C343.748 95.4409 344.919 95.9949 345.879 96.8672C346.015 96.9908 346.109 97.027 346.148 97.043C346.164 97.0375 346.211 97.0298 346.277 96.9844C347.126 96.4008 348 95.9472 348.902 95.6484C349.928 95.3089 350.98 95.2821 352.02 95.5664C352.618 95.7302 353.207 95.7859 353.789 95.7539C354.938 95.6902 356.013 96.0722 356.977 96.7383C357.027 96.7728 357.063 96.7887 357.082 96.7969C357.117 96.7829 357.209 96.7417 357.352 96.6094C357.736 96.2517 358.168 95.9741 358.617 95.7656C358.289 95.1235 358.12 94.4085 358.254 93.6211C358.436 92.557 358.954 91.5766 359.684 90.6797C360.034 90.2481 359.982 90.0465 359.93 89.9062C359.498 88.7555 359.572 87.5741 360.105 86.4727C360.332 86.0057 360.371 85.6045 360.281 85.2188C360.151 84.6622 359.903 84.065 359.496 83.4375C359.139 82.8859 358.891 82.2656 358.852 81.5859C358.812 80.9017 358.985 80.2492 359.297 79.6641C359.565 79.1587 359.631 78.7274 359.578 78.3281C359.501 77.7495 359.326 77.1452 359.027 76.5234C358.607 75.6482 358.324 74.745 358.195 73.8281C357.991 72.36 358.791 71.1461 359.824 70.2422C359.868 70.2034 359.889 70.1548 359.918 70.125C359.097 69.2438 358.507 68.2506 358.301 67.1484C358.016 65.6256 358.853 64.3808 359.918 63.4805C359.979 63.4292 360.011 63.3654 360.047 63.3281C359.208 62.3878 358.665 61.258 358.793 59.9766C358.852 59.3827 358.826 58.7852 358.699 58.1836C358.42 56.8589 358.891 55.6516 359.73 54.6562C360.258 54.0304 360.561 53.4671 360.703 52.9688C360.845 52.4706 360.851 51.9841 360.727 51.4922C360.621 51.0742 360.33 50.5473 359.719 49.9219C358.819 49.0013 358.189 47.8843 358.219 46.5938C358.236 45.8843 358.222 45.1705 358.184 44.4609C358.107 43.0429 358.921 41.8801 359.953 40.9922C360.147 40.8259 360.222 40.6984 360.258 40.6406C359.726 39.7799 359.336 38.8902 359.121 37.9688C358.861 36.8556 359.019 35.7547 359.52 34.7227C359.873 33.9932 360.203 33.2594 360.516 32.5312C360.748 31.9879 360.834 31.4817 360.797 30.9961C360.773 30.687 360.604 30.2376 360.059 29.6484C359.575 29.1268 359.185 28.4794 359.074 27.7148C358.96 26.9248 359.17 26.1924 359.566 25.5703C359.838 25.1439 359.85 24.8519 359.766 24.5859C359.405 23.4608 359.484 22.3188 359.977 21.2461C360.143 20.8826 360.144 20.5806 359.988 20.2266C359.589 19.316 359.368 18.3746 359.344 17.4141C359.318 16.3812 359.581 15.3832 360.07 14.4375C360.096 14.3877 360.103 14.3561 360.105 14.3438V14.3203C360.099 14.2921 360.053 14.1517 359.824 13.9102C358.967 13.0052 358.36 11.9504 358.254 10.7578C358.128 9.34121 358.888 8.15892 359.895 7.25391C360.199 6.97991 360.309 6.79669 360.34 6.71484C360.349 6.69027 360.351 6.6748 360.352 6.66797C360.352 6.6671 360.35 6.65063 360.34 6.62109C360.222 6.28235 360.123 6.04573 360.047 5.89453C360.009 5.82004 359.983 5.77522 359.977 5.76562L360.082 5.87109C359.796 5.62534 359.25 5.05444 358.523 4.26562C358.26 3.98027 358.104 3.92174 358.078 3.91406C358.07 3.91708 358.057 3.93024 358.043 3.9375C357.294 4.3124 356.542 4.68778 355.793 5.0625C355.081 5.4181 354.287 5.49596 353.508 5.22656C352.783 4.9757 352.199 4.46551 351.727 3.90234C351.661 3.82407 351.595 3.77845 351.551 3.73828C351.016 4.19205 350.367 4.5561 349.594 4.60547C348.785 4.65656 348.072 4.36253 347.484 3.92578C346.988 3.55668 346.643 3.52775 346.395 3.57422C345.495 3.74148 344.591 3.77244 343.688 3.65625C343.17 3.58929 342.64 3.63033 342.094 3.80859C341.115 4.12868 340.11 4.20255 339.105 4.01953C338.596 3.92693 338.086 3.9572 337.559 4.11328C336.443 4.44545 335.314 4.34886 334.254 3.86719C333.671 3.60258 333.117 3.4798 332.59 3.46875C332.205 3.46149 331.751 3.5758 331.207 3.9375C330.162 4.63263 328.972 4.92328 327.738 4.59375C327.237 4.45958 326.749 4.45474 326.25 4.58203C325.241 4.84029 324.218 4.82127 323.215 4.53516C322.689 4.38515 322.179 4.36542 321.668 4.46484C320.518 4.69005 319.394 4.44989 318.375 3.86719C317.942 3.62099 317.61 3.60115 317.297 3.69141C316.532 3.91372 315.765 4.12945 315 4.32422C314.111 4.55052 313.207 4.63841 312.305 4.59375C311.469 4.55197 310.627 4.43798 309.797 4.25391C309.554 4.20094 309.232 4.22219 308.754 4.57031C307.71 5.32937 306.494 5.66044 305.215 5.29688C304.504 5.09479 303.791 4.93418 303.082 4.79297C302.355 4.64825 301.629 4.51682 300.902 4.40625C300.396 4.32913 299.879 4.36994 299.344 4.54688C298.44 4.84532 297.52 4.98142 296.59 4.95703C295.921 4.93905 295.245 4.9753 294.574 5.0625C293.375 5.21892 292.246 4.8578 291.258 4.16016C291.051 4.01439 290.92 3.9782 290.859 3.97266C290.806 3.96851 290.714 3.97744 290.566 4.05469C289.713 4.501 288.841 4.82694 287.953 5.02734C286.66 5.31874 285.461 4.91733 284.449 4.125C284.352 4.04846 284.279 4.01271 284.238 3.99609C284.221 3.98927 284.21 3.98609 284.203 3.98438L284.191 3.97266L284.168 3.98438C284.14 3.99367 284.078 4.01804 283.992 4.07812C283.419 4.48272 282.742 4.75266 281.988 4.74609C281.235 4.73891 280.563 4.4543 279.996 4.04297C279.609 3.76267 279.413 3.79576 279.223 3.87891C278.494 4.19771 277.761 4.5395 277.031 4.89844C275.95 5.42916 274.791 5.54073 273.645 5.15625C272.695 4.8373 271.795 4.30265 270.938 3.60938C270.719 3.43297 270.585 3.39373 270.539 3.38672C270.511 3.38264 270.446 3.3778 270.316 3.44531C269.476 3.8832 268.618 4.22622 267.75 4.45312C266.922 4.66932 266.089 4.81548 265.254 4.88672C264.141 4.98151 263.077 4.67515 262.102 4.08984C261.917 3.97987 261.796 3.96197 261.727 3.96094C261.658 3.9601 261.54 3.97726 261.363 4.07812C260.536 4.54991 259.696 4.93336 258.844 5.21484C257.873 5.53539 256.877 5.61802 255.879 5.44922C255.016 5.30253 254.156 5.05521 253.312 4.71094C253.079 4.61562 252.844 4.59618 252.457 4.85156C251.902 5.21961 251.265 5.46454 250.57 5.49609C249.87 5.52699 249.208 5.339 248.625 5.00391C248.081 4.69182 247.601 4.57908 247.172 4.59375C246.32 4.62257 245.465 4.56377 244.617 4.41797C243.852 4.2863 243.085 4.14461 242.32 3.98438C241.579 3.82917 240.835 3.68147 240.094 3.53906C239.674 3.45834 239.236 3.49338 238.746 3.71484C237.788 4.14982 236.784 4.34726 235.758 4.26562C235.067 4.21045 234.374 4.19439 233.684 4.21875C232.906 4.24643 232.118 4.25753 231.34 4.24219C230.682 4.22955 230.02 4.27682 229.359 4.38281C228.354 4.54356 227.355 4.44232 226.383 4.10156C226.195 4.03567 225.959 4.01288 225.527 4.33594C224.923 4.7889 224.167 5.07808 223.324 4.98047C222.512 4.88542 221.841 4.46009 221.32 3.94922C221.258 3.88832 221.204 3.85739 221.168 3.83203C221.151 3.84483 221.131 3.85997 221.109 3.87891C220.559 4.35836 219.866 4.73268 219.047 4.75781C218.219 4.78269 217.498 4.44847 216.926 3.98438L216.727 3.85547C216.701 3.86566 216.642 3.90127 216.551 3.97266C215.974 4.42531 215.259 4.74428 214.441 4.71094C213.63 4.67632 212.938 4.29785 212.391 3.82031C212.162 3.62123 212.024 3.59145 211.992 3.58594C211.98 3.58416 211.97 3.5841 211.957 3.58594C211.939 3.58922 211.893 3.59895 211.828 3.63281C210.82 4.16622 209.732 4.37876 208.617 4.18359C207.767 4.03467 206.921 3.80058 206.086 3.48047C205.891 3.40589 205.666 3.37941 205.254 3.67969C204.696 4.08469 204.043 4.36668 203.309 4.39453C202.568 4.42184 201.887 4.18909 201.305 3.80859C200.811 3.48552 200.434 3.42773 200.121 3.48047C199.178 3.63912 198.233 3.61087 197.297 3.39844C196.662 3.25395 196.025 3.18834 195.398 3.19922C195.144 3.20441 194.735 3.33078 194.156 3.87891C193.232 4.75271 192.117 5.34694 190.852 5.33203C190.227 5.32515 189.599 5.39522 188.965 5.54297C187.84 5.80529 186.729 5.64404 185.695 5.12109C185.142 4.84126 184.641 4.73108 184.172 4.74609C183.449 4.76921 182.727 4.81292 182.004 4.875C180.968 4.96397 179.956 4.75972 178.992 4.3125C178.439 4.05599 177.93 3.96242 177.445 3.98438C176.852 4.01156 176.247 4.12898 175.629 4.34766C174.601 4.71138 173.538 4.75776 172.488 4.47656C172.207 4.40101 171.886 4.42198 171.434 4.71094C170.801 5.1152 170.047 5.31794 169.242 5.17969C168.473 5.04623 167.831 4.62731 167.32 4.125C167.22 4.02664 167.151 3.97355 167.109 3.94922C167.09 3.96059 167.069 3.98457 167.039 4.00781C166.156 4.68511 165.206 5.16286 164.203 5.39062C163.127 5.63423 162.06 5.52082 161.039 5.08594C160.261 4.75442 159.482 4.39696 158.707 4.00781C158.353 3.83014 158.073 3.82646 157.746 3.97266C156.492 4.53839 155.202 4.38063 154.066 3.65625C153.735 3.44582 153.547 3.46355 153.305 3.58594C152.128 4.18215 150.871 4.18349 149.695 3.58594C149.103 3.28503 148.547 3.13275 148.02 3.09375Z" fill="#5497FF"/>
</svg>
