<svg width="248" height="48" viewBox="0 0 248 48" fill="none" xmlns="http://www.w3.org/2000/svg">
<path d="M24.6172 37H7.41719V35.1C8.08385 34.8333 8.83385 34.5667 9.66719 34.3C10.5339 34 11.4005 33.7833 12.2672 33.65V5.25H6.46719L3.26719 13.8H1.21719C1.08385 13.1333 0.950521 12.2833 0.817188 11.25C0.683854 10.2167 0.567188 9.15 0.467188 8.05C0.367188 6.95 0.283854 5.86666 0.217188 4.8C0.150521 3.7 0.117188 2.76666 0.117188 2H31.9672C31.9672 2.8 31.9339 3.73333 31.8672 4.8C31.8005 5.86666 31.7172 6.95 31.6172 8.05C31.5172 9.15 31.4005 10.2167 31.2672 11.25C31.1339 12.25 31.0005 13.1 30.8672 13.8H28.7672L25.5672 5.25H19.7672V33.65C20.6339 33.8167 21.4839 34.0167 22.3172 34.25C23.1839 34.4833 23.9505 34.7667 24.6172 35.1V37ZM48.0668 37H34.2668V35.05C34.7668 34.7833 35.2835 34.5667 35.8168 34.4C36.3501 34.2 36.9335 34.0167 37.5668 33.85V15.55L34.2668 15.15V13.2C34.7668 13 35.3835 12.8 36.1168 12.6C36.8835 12.4 37.6835 12.2333 38.5168 12.1C39.3501 11.9333 40.1668 11.8 40.9668 11.7C41.7668 11.5667 42.4668 11.4667 43.0668 11.4H44.7668V33.85C45.4335 34.0167 46.0335 34.2 46.5668 34.4C47.1001 34.5667 47.6001 34.7833 48.0668 35.05V37ZM36.7168 3.8C36.7168 2.63333 37.1168 1.71666 37.9168 1.05C38.7168 0.383332 39.7501 0.0499989 41.0168 0.0499989C42.2835 0.0499989 43.3168 0.383332 44.1168 1.05C44.9168 1.71666 45.3168 2.63333 45.3168 3.8C45.3168 4.93333 44.9168 5.83333 44.1168 6.5C43.3168 7.16667 42.2835 7.5 41.0168 7.5C39.7501 7.5 38.7168 7.16667 37.9168 6.5C37.1168 5.83333 36.7168 4.93333 36.7168 3.8ZM79.0184 37H66.5184V35.05C66.8517 34.85 67.2184 34.65 67.6184 34.45C68.0517 34.2167 68.5184 34.0167 69.0184 33.85V23.9C69.0184 22.3667 68.9684 21.0667 68.8684 20C68.8017 18.9333 68.635 18.0667 68.3684 17.4C68.1017 16.7 67.735 16.2 67.2684 15.9C66.8017 15.5667 66.2017 15.4 65.4684 15.4C64.4017 15.4 63.4684 15.8167 62.6684 16.65C61.9017 17.45 61.335 18.5167 60.9684 19.85V33.85C61.8684 34.1167 62.7017 34.5167 63.4684 35.05V37H50.4684V35.05C50.935 34.8167 51.4517 34.6 52.0184 34.4C52.585 34.2 53.1684 34.0167 53.7684 33.85V15.55L50.4684 15.15V13.2C51.0017 12.9667 51.6517 12.75 52.4184 12.55C53.2184 12.35 54.035 12.1833 54.8684 12.05C55.7017 11.8833 56.5017 11.75 57.2684 11.65C58.0684 11.55 58.735 11.4667 59.2684 11.4H60.9684V17.05H61.0184C61.5517 15.4833 62.485 14.15 63.8184 13.05C65.185 11.95 66.8184 11.4 68.7184 11.4C69.5184 11.4 70.3017 11.4833 71.0684 11.65C71.835 11.8167 72.535 12.1333 73.1684 12.6C73.835 13.0333 74.4017 13.65 74.8684 14.45C75.335 15.25 75.6684 16.2833 75.8684 17.55C76.4684 15.7167 77.4684 14.2333 78.8684 13.1C80.2684 11.9667 81.9684 11.4 83.9684 11.4C85.2017 11.4 86.285 11.5667 87.2184 11.9C88.185 12.2 88.985 12.75 89.6184 13.55C90.285 14.35 90.785 15.4333 91.1184 16.8C91.4517 18.1667 91.6184 19.9 91.6184 22V33.85C92.7517 34.05 93.8517 34.45 94.9184 35.05V37H81.9184V35.05C82.685 34.55 83.5184 34.15 84.4184 33.85V23C84.4184 20.4 84.1684 18.4833 83.6684 17.25C83.2017 16.0167 82.1684 15.4 80.5684 15.4C79.3684 15.4 78.4184 15.85 77.7184 16.75C77.0517 17.65 76.5517 18.85 76.2184 20.35V33.85C76.785 34.0167 77.285 34.2 77.7184 34.4C78.185 34.6 78.6184 34.8167 79.0184 35.05V37ZM119.81 32.8C119.543 33.3667 119.11 33.95 118.51 34.55C117.943 35.1167 117.226 35.6333 116.36 36.1C115.526 36.5333 114.543 36.8833 113.41 37.15C112.31 37.45 111.11 37.6 109.81 37.6C107.743 37.6 105.91 37.3 104.31 36.7C102.71 36.0667 101.376 35.1833 100.31 34.05C99.2431 32.8833 98.4264 31.5 97.8598 29.9C97.3264 28.3 97.0598 26.5 97.0598 24.5C97.0598 20.2333 98.1764 16.9833 100.41 14.75C102.643 12.5167 105.743 11.4 109.71 11.4C111.41 11.4 112.993 11.6333 114.46 12.1C115.96 12.5667 117.193 13.3333 118.16 14.4C119.16 15.4667 119.843 16.8667 120.21 18.6C120.61 20.3333 120.593 22.45 120.16 24.95H104.81C104.843 27.5833 105.51 29.6833 106.81 31.25C108.143 32.8167 110.093 33.6 112.66 33.6C113.76 33.6 114.893 33.4333 116.06 33.1C117.26 32.7667 118.193 32.3333 118.86 31.8L119.81 32.8ZM109.51 14.25C108.843 14.25 108.243 14.3667 107.71 14.6C107.21 14.8333 106.76 15.2667 106.36 15.9C105.993 16.5 105.693 17.3333 105.46 18.4C105.226 19.4333 105.06 20.75 104.96 22.35H113.01C113.243 19.75 113.093 17.75 112.56 16.35C112.026 14.95 111.01 14.25 109.51 14.25ZM152.065 37H139.565V35.05C139.899 34.85 140.265 34.65 140.665 34.45C141.099 34.2167 141.565 34.0167 142.065 33.85V23.9C142.065 22.3667 142.015 21.0667 141.915 20C141.849 18.9333 141.682 18.0667 141.415 17.4C141.149 16.7 140.782 16.2 140.315 15.9C139.849 15.5667 139.249 15.4 138.515 15.4C137.449 15.4 136.515 15.8167 135.715 16.65C134.949 17.45 134.382 18.5167 134.015 19.85V33.85C134.915 34.1167 135.749 34.5167 136.515 35.05V37H123.515V35.05C123.982 34.8167 124.499 34.6 125.065 34.4C125.632 34.2 126.215 34.0167 126.815 33.85V15.55L123.515 15.15V13.2C124.049 12.9667 124.699 12.75 125.465 12.55C126.265 12.35 127.082 12.1833 127.915 12.05C128.749 11.8833 129.549 11.75 130.315 11.65C131.115 11.55 131.782 11.4667 132.315 11.4H134.015V17.05H134.065C134.599 15.4833 135.532 14.15 136.865 13.05C138.232 11.95 139.865 11.4 141.765 11.4C142.565 11.4 143.349 11.4833 144.115 11.65C144.882 11.8167 145.582 12.1333 146.215 12.6C146.882 13.0333 147.449 13.65 147.915 14.45C148.382 15.25 148.715 16.2833 148.915 17.55C149.515 15.7167 150.515 14.2333 151.915 13.1C153.315 11.9667 155.015 11.4 157.015 11.4C158.249 11.4 159.332 11.5667 160.265 11.9C161.232 12.2 162.032 12.75 162.665 13.55C163.332 14.35 163.832 15.4333 164.165 16.8C164.499 18.1667 164.665 19.9 164.665 22V33.85C165.799 34.05 166.899 34.45 167.965 35.05V37H154.965V35.05C155.732 34.55 156.565 34.15 157.465 33.85V23C157.465 20.4 157.215 18.4833 156.715 17.25C156.249 16.0167 155.215 15.4 153.615 15.4C152.415 15.4 151.465 15.85 150.765 16.75C150.099 17.65 149.599 18.85 149.265 20.35V33.85C149.832 34.0167 150.332 34.2 150.765 34.4C151.232 34.6 151.665 34.8167 152.065 35.05V37ZM170.107 24.5C170.107 22.4667 170.407 20.65 171.007 19.05C171.64 17.4167 172.523 16.0333 173.657 14.9C174.823 13.7667 176.223 12.9 177.857 12.3C179.49 11.7 181.34 11.4 183.407 11.4C185.74 11.4 187.74 11.7333 189.407 12.4C191.107 13.0333 192.49 13.9333 193.557 15.1C194.657 16.2333 195.457 17.6167 195.957 19.25C196.457 20.85 196.707 22.6 196.707 24.5C196.707 26.5333 196.407 28.3667 195.807 30C195.207 31.6 194.323 32.9667 193.157 34.1C192.023 35.2333 190.623 36.1 188.957 36.7C187.323 37.3 185.473 37.6 183.407 37.6C181.14 37.6 179.173 37.2833 177.507 36.65C175.84 35.9833 174.457 35.0833 173.357 33.95C172.257 32.7833 171.44 31.4 170.907 29.8C170.373 28.1667 170.107 26.4 170.107 24.5ZM177.857 24.5C177.857 26 177.94 27.3833 178.107 28.65C178.307 29.8833 178.64 30.9333 179.107 31.8C179.573 32.6667 180.207 33.35 181.007 33.85C181.807 34.3167 182.84 34.55 184.107 34.55C184.84 34.55 185.507 34.3833 186.107 34.05C186.707 33.6833 187.223 33.1167 187.657 32.35C188.09 31.55 188.407 30.5167 188.607 29.25C188.84 27.95 188.957 26.3667 188.957 24.5C188.957 22.9667 188.857 21.5833 188.657 20.35C188.49 19.1167 188.173 18.0667 187.707 17.2C187.273 16.3333 186.673 15.6667 185.907 15.2C185.14 14.7 184.173 14.45 183.007 14.45C182.14 14.45 181.39 14.6333 180.757 15C180.123 15.3333 179.59 15.9 179.157 16.7C178.723 17.4667 178.39 18.5 178.157 19.8C177.957 21.0667 177.857 22.6333 177.857 24.5ZM212.744 17.75C212.344 17.95 211.877 18.2833 211.344 18.75C210.811 19.2167 210.327 19.9833 209.894 21.05V33.85C210.561 33.9167 211.227 34.05 211.894 34.25C212.561 34.4167 213.227 34.6833 213.894 35.05V37H199.394V35.05C199.994 34.7167 200.561 34.4667 201.094 34.3C201.627 34.1333 202.161 33.9833 202.694 33.85V15.55L199.394 15.15V13.2C199.927 12.9667 200.577 12.75 201.344 12.55C202.144 12.35 202.961 12.1833 203.794 12.05C204.627 11.8833 205.427 11.75 206.194 11.65C206.994 11.55 207.661 11.4667 208.194 11.4H209.894V18.05H210.094C210.361 17.3167 210.744 16.55 211.244 15.75C211.777 14.95 212.394 14.2167 213.094 13.55C213.794 12.8833 214.561 12.35 215.394 11.95C216.227 11.55 217.094 11.3667 217.994 11.4C218.361 11.8667 218.677 12.5333 218.944 13.4C219.211 14.2333 219.427 15.0333 219.594 15.8V17.75H212.744ZM222.117 15.15C221.617 15.0167 221.15 14.85 220.717 14.65C220.317 14.45 219.9 14.2167 219.467 13.95V12H232.617V13.9C231.917 14.3667 230.967 14.7833 229.767 15.15L234.817 27.7L235.667 30.9H235.767L236.567 27.65L240.467 15.15C239.467 14.95 238.55 14.55 237.717 13.95V12H247.367V13.95C246.667 14.4167 245.717 14.8167 244.517 15.15L236.367 37C235.567 39.1333 234.767 40.8667 233.967 42.2C233.167 43.5667 232.367 44.65 231.567 45.45C230.767 46.25 229.967 46.8 229.167 47.1C228.367 47.4333 227.567 47.65 226.767 47.75C226.433 47.45 226.133 47.0667 225.867 46.6C225.6 46.1667 225.367 45.6833 225.167 45.15C224.967 44.65 224.8 44.1333 224.667 43.6C224.533 43.0667 224.45 42.5667 224.417 42.1L225.067 40.9H231.167C231.467 40.4333 231.717 39.9333 231.917 39.4C232.15 38.8667 232.417 38.0667 232.717 37L222.117 15.15Z" fill="#5497FF"/>
</svg>
